<svg width="40" height="40" viewBox="0 0 40 40" fill="none" xmlns="http://www.w3.org/2000/svg">
<path d="M20.878 29.4815C20.578 29.5415 20.278 29.6515 19.978 29.6515C19.268 29.6415 18.568 29.5615 17.858 29.5415C16.898 29.5115 15.928 28.5915 15.948 27.6515C15.968 26.9215 16.048 26.2015 16.068 25.4715C16.088 24.6615 15.868 24.3315 15.068 24.2715C14.468 24.2315 13.828 24.3415 13.238 24.4815C12.278 24.7215 12.468 25.5915 12.768 26.4415C13.148 27.5215 14.138 28.0115 14.918 28.7115C15.078 28.8615 15.178 29.0715 15.308 29.2615C15.098 29.4015 14.888 29.6515 14.678 29.6515C13.678 29.6515 12.668 29.6615 11.688 29.5015C11.268 29.4315 10.908 28.9615 10.528 28.6615C9.73796 28.0015 9.00796 27.2415 8.13796 26.7115C7.74796 26.4715 7.05797 26.6015 6.53797 26.7015C6.07797 26.7915 5.81797 27.1815 5.85797 27.6815C5.89797 28.1515 5.92797 28.6215 6.56797 28.7215C6.72797 28.7515 6.83797 29.0315 6.97797 29.1915C6.78797 29.2715 6.60796 29.3815 6.41796 29.4215C6.15796 29.4815 5.88797 29.5215 5.62797 29.5215C4.99797 29.5215 4.36796 29.5015 3.73796 29.4915C3.59796 29.4915 3.46797 29.4615 3.32797 29.4815C2.60797 29.5415 2.26797 29.2215 2.33797 28.6615C2.43797 27.8715 2.56797 27.0815 2.75797 26.3015C2.94797 25.5315 3.36797 24.7815 3.40797 24.0115C3.45797 23.2615 3.20797 22.4715 3.00797 21.7215C2.77797 20.8715 2.35797 20.0715 2.17797 19.2215C1.90797 17.9915 1.84796 16.7515 2.70796 15.6515C3.09796 15.1515 3.31796 14.5215 3.73796 14.0615C4.58796 13.1415 5.29796 12.1515 6.63796 11.6715C7.65796 11.3115 8.66797 11.2215 9.67797 11.0115C9.73797 11.0015 9.80797 10.9915 9.86797 11.0115C10.928 11.4215 12.038 11.4715 13.158 11.5615C13.688 11.6015 14.218 11.7215 14.758 11.7515C15.718 11.8115 16.678 11.9115 17.628 11.8715C18.988 11.8115 20.358 11.6915 21.708 11.5015C23.008 11.3115 24.258 11.4015 25.528 11.6815C26.488 11.8915 27.488 12.1615 28.448 12.1015C29.548 12.0315 30.558 12.1515 31.478 12.6715C33.328 13.7215 35.188 14.7415 36.848 16.0915C37.278 16.4415 37.278 17.0115 36.718 17.3015C35.928 17.7215 35.078 18.0215 34.228 18.3115C32.988 18.7415 31.678 18.9915 30.498 19.5415C29.228 20.1315 28.088 21.0215 26.858 21.7115C26.208 22.0815 25.608 22.4515 25.208 23.1115C24.898 23.6215 24.818 24.0515 25.128 24.6015C25.438 25.1515 25.718 25.7515 25.868 26.3615C26.088 27.2415 26.708 27.6915 27.418 28.1115C27.758 28.3115 28.108 28.4715 28.438 28.6915C28.598 28.8015 28.788 29.0015 28.778 29.1415C28.768 29.2915 28.548 29.5315 28.388 29.5515C27.878 29.6315 27.368 29.6315 26.848 29.6415C26.598 29.6415 26.348 29.5415 26.108 29.5615C24.918 29.6915 24.108 29.1215 23.298 28.3215C22.588 27.6115 21.708 27.0815 20.878 26.5115C20.678 26.3715 20.358 26.2915 20.138 26.3415C19.708 26.4415 19.138 26.4315 19.088 27.0915C19.038 27.7415 19.428 28.2815 20.058 28.5715C20.378 28.7215 20.638 29.0115 20.928 29.2315C20.918 29.3015 20.898 29.3915 20.878 29.4815Z" fill="#1D1D1D"/>
</svg>
