<svg xmlns="http://www.w3.org/2000/svg" xmlns:xlink="http://www.w3.org/1999/xlink" width="131.75" height="123.85" viewBox="0 0 131.75 123.85">
  <defs>
    <filter id="support_ico1_w" x="0" y="0" width="131.75" height="123.85" filterUnits="userSpaceOnUse">
      <feOffset dy="3" input="SourceAlpha"/>
      <feGaussianBlur stdDeviation="15" result="blur"/>
      <feFlood flood-opacity="0.122"/>
      <feComposite operator="in" in2="blur"/>
      <feComposite in="SourceGraphic"/>
    </filter>
  </defs>
  <g transform="matrix(1, 0, 0, 1, 0, 0)" filter="url(#support_ico1_w)">
    <path id="support_ico1_w-2" data-name="support_ico1_w" d="M22,23.1Zm0,17.5-3.3-3.05q-4.65-4.25-7.65-7.25a55.871,55.871,0,0,1-4.8-5.35,17.117,17.117,0,0,1-2.525-4.3A11.669,11.669,0,0,1,3,16.55,9.588,9.588,0,0,1,5.775,9.6,9.211,9.211,0,0,1,12.65,6.75a10.148,10.148,0,0,1,5.175,1.375A12.752,12.752,0,0,1,22,12.2a13.931,13.931,0,0,1,4.325-4.125A9.98,9.98,0,0,1,31.35,6.75,8.642,8.642,0,0,1,37.675,9.3a10.494,10.494,0,0,1,3.075,6.2h-2.2a7.606,7.606,0,0,0-2.275-4.625A6.765,6.765,0,0,0,31.35,9a7.967,7.967,0,0,0-4.65,1.5A12.188,12.188,0,0,0,23,14.95H20.95a12.088,12.088,0,0,0-3.65-4.425A7.878,7.878,0,0,0,12.65,9a7.056,7.056,0,0,0-5.3,2.175,7.438,7.438,0,0,0-2.1,5.375,9.447,9.447,0,0,0,.775,3.725,18.763,18.763,0,0,0,2.65,4.175A58.764,58.764,0,0,0,13.8,29.925Q17.05,33.05,22,37.6q1.6-1.45,3-2.7t2.75-2.45l.25.25q.25.25.55.525t.55.525l.25.25-2.725,2.425Q25.25,37.65,23.6,39.2Zm14.1-7.1V27.15H29.75v-2.3H36.1V18.5h2.25v6.35h6.4v2.3h-6.4V33.5Z" transform="translate(42 35.25)" fill="#fff"/>
  </g>
</svg>
