<svg xmlns="http://www.w3.org/2000/svg" width="38" height="38" viewBox="0 0 38 38">
  <path id="support_ico2" d="M10.5,43A5.463,5.463,0,0,1,5,37.5v-27A5.463,5.463,0,0,1,10.5,5h27A5.463,5.463,0,0,1,43,10.5v27A5.463,5.463,0,0,1,37.5,43Zm0-2.25h27a3.244,3.244,0,0,0,3.25-3.25v-27A3.244,3.244,0,0,0,37.5,7.25h-27A3.244,3.244,0,0,0,7.25,10.5v27a3.244,3.244,0,0,0,3.25,3.25Zm3.6-6.1L20,28.7l3.65,3.65L28,26.9l6.2,7.75Zm2.4-15.5A3.158,3.158,0,0,1,13.35,16a3.147,3.147,0,0,1,5.375-2.225,3.139,3.139,0,0,1,0,4.45,3.033,3.033,0,0,1-2.225.925Z" transform="translate(-5 -5)" fill="#3d3d3d"/>
</svg>
