<svg width="50" height="50" viewBox="0 0 50 50" fill="none" xmlns="http://www.w3.org/2000/svg">
<path d="M31.0254 13.4474C31.0954 12.4074 30.7754 11.4574 30.3154 10.5574C29.9854 9.89741 29.5154 9.32741 28.9454 8.85741C28.5454 8.52741 28.0854 8.26741 27.6154 8.03741C26.9654 7.72741 26.2754 7.62741 25.5654 7.56741C24.8054 7.49741 24.0554 7.59741 23.3454 7.83741C22.7854 8.01741 22.2554 8.27741 21.7854 8.65741C21.5154 8.87741 21.2454 9.10741 20.9954 9.34741C20.8554 9.48741 20.7154 9.63741 20.5954 9.79741C20.2654 10.2574 19.9654 10.7474 19.7154 11.2574C19.4054 11.8874 19.2854 12.5574 19.0954 13.2174C19.0554 13.3574 18.9954 13.4874 18.9354 13.6074C18.7154 14.0474 18.3054 13.9274 18.0554 13.6874C17.9954 13.6274 17.9354 13.5574 17.8854 13.4974C17.6754 13.2174 17.3954 13.1974 17.0854 13.2874C16.8454 13.3574 16.6154 13.4374 16.3854 13.5274C15.8954 13.7274 15.6554 13.5774 15.4054 13.2274C15.3054 13.0774 15.2054 12.9274 15.0854 12.7874C14.8654 12.5374 14.5154 12.4074 14.1554 12.5974C13.9454 12.7074 13.6854 12.7474 13.4454 12.7874C13.0754 12.8474 12.6854 12.8774 12.3154 12.9374C12.0354 12.9774 11.7654 12.9374 11.5154 12.8074C11.0654 12.5774 11.0554 12.0374 11.4654 11.7474C11.9954 11.3774 12.5754 11.1174 13.1354 10.8174C13.7854 10.4774 14.3954 10.0974 14.8254 9.48741C14.9554 9.30741 15.0454 9.10741 15.1454 8.91741C15.2854 8.65741 15.4054 8.38741 15.5554 8.13741C15.7954 7.75741 16.0454 7.38741 16.3054 7.02741C16.6154 6.59741 16.9954 6.21741 17.4054 5.86741C17.8554 5.47741 18.3654 5.14741 18.8554 4.80741C19.5254 4.34741 20.2754 4.03741 21.0154 3.70741C21.4254 3.52741 21.8454 3.37741 22.2654 3.21741C22.7554 3.02741 23.0854 2.67741 23.3054 2.20741C23.4054 1.99741 23.5554 1.79741 23.6654 1.59741C23.8654 1.22741 24.1254 0.897411 24.3754 0.567411C24.5354 0.357411 24.7254 0.177411 24.9554 0.0774111C25.3154 -0.0725889 25.5854 -0.022589 25.6754 0.387411C25.7754 0.847411 25.8954 1.29741 25.9454 1.75741C26.0054 2.24741 26.2954 2.52741 26.6754 2.74741C26.8154 2.82741 26.9754 2.87741 27.1254 2.91741C27.5554 3.03741 27.9854 3.14741 28.4054 3.31741C28.9754 3.55741 29.5454 3.77741 30.0954 4.07741C30.8554 4.48741 31.5654 4.95741 32.2454 5.48741C32.8354 5.94741 33.3654 6.46741 33.8554 7.02741C34.4954 7.76741 35.0354 8.58741 35.4354 9.49741C35.8354 10.3974 36.0954 11.3274 36.2054 12.2974C36.2654 12.8774 36.2954 13.4574 36.2654 14.0374C36.2254 14.7774 36.0954 15.5074 35.9054 16.2274C35.7254 16.8874 35.4554 17.5074 35.1754 18.1174C34.9354 18.6274 34.6054 19.1074 34.2854 19.5774C33.9554 20.0474 33.6054 20.4974 33.2354 20.9274C32.9454 21.2674 32.6154 21.5674 32.2954 21.8774C31.9854 22.1774 31.6754 22.4774 31.3454 22.7374C30.8954 23.0974 30.4054 23.4174 29.9554 23.7774C29.7254 23.9574 29.5054 24.1574 29.3154 24.3874C29.0454 24.7074 29.0454 25.0874 29.2154 25.4574C29.5054 26.1174 29.8654 26.7374 30.2754 27.3174C30.5754 27.7374 30.9254 28.1374 31.2954 28.5074C31.7654 28.9874 32.2954 29.3874 32.8754 29.7274C33.6154 30.1674 34.4154 30.3974 35.2554 30.5674C36.1354 30.7374 36.9754 30.6074 37.8154 30.3774C38.4854 30.1974 39.0754 29.8674 39.6054 29.4474C40.3654 28.8574 40.9854 28.1374 41.4254 27.2774C41.6554 26.8274 41.8454 26.3674 41.9854 25.8774C42.1554 25.2874 42.2154 24.6874 42.2154 24.0674C42.2154 23.4674 42.1154 22.8974 41.9754 22.3174C41.8054 21.6374 41.4754 21.0374 41.0854 20.4774C40.8054 20.0774 40.4554 19.7174 40.0854 19.3874C39.7454 19.0774 39.3454 18.8574 38.9554 18.6174C38.7154 18.4674 38.4354 18.3774 38.1654 18.2874C37.9354 18.2074 37.6954 18.1374 37.4454 18.0874C37.1954 18.0374 37.0554 17.8874 37.0054 17.6574C36.9554 17.4374 37.0454 17.2674 37.2154 17.1274C37.5054 16.9074 37.5154 16.6174 37.4154 16.3074C37.3954 16.2574 37.3654 16.2074 37.3554 16.1474C37.3154 16.0074 37.2754 15.8674 37.2554 15.7274C37.2154 15.3974 37.2554 15.0974 37.5254 14.8374C37.6654 14.6974 37.7554 14.4874 37.8454 14.2974C37.9554 14.0574 37.9754 13.7974 37.8954 13.5474C37.8854 13.4974 37.8654 13.4574 37.8554 13.4074C37.7654 13.0874 37.6454 12.7874 37.5854 12.4474C37.5154 11.9974 37.4054 11.5574 37.4254 11.0974C37.4254 11.0174 37.3954 10.9274 37.3954 10.8474C37.3854 10.7174 37.3854 10.5974 37.5154 10.5174C37.6354 10.4474 37.7754 10.4574 37.9054 10.5874C38.0854 10.7574 38.2754 10.9274 38.4154 11.1274C38.7554 11.5974 39.0654 12.0874 39.3954 12.5774C39.4854 12.7074 39.5954 12.8374 39.6954 12.9574C39.7254 12.9974 39.7654 13.0174 39.7954 13.0574C40.1354 13.5974 40.6754 13.8874 41.1754 14.2274C41.7254 14.6074 42.2654 14.9974 42.8054 15.3874C43.4254 15.8374 44.0054 16.3474 44.5354 16.9074C45.2054 17.6174 45.7854 18.3874 46.2254 19.2674C46.5754 19.9674 46.8954 20.6774 47.1554 21.4174C47.2354 21.6574 47.3554 21.8874 47.4554 22.1274C47.6454 22.5574 47.9754 22.8174 48.3854 23.0174C48.7554 23.1874 49.1154 23.3774 49.4854 23.5674C49.5854 23.6174 49.6754 23.6974 49.7554 23.7774C49.7854 23.8074 49.8254 23.8474 49.8354 23.8874C49.9654 24.2874 49.7854 24.6174 49.3854 24.7374C49.0254 24.8374 48.6754 24.9574 48.3054 25.0274C47.9154 25.1074 47.6754 25.3574 47.5354 25.6874C47.3254 26.1974 47.1654 26.7274 46.9854 27.2474C46.8654 27.5874 46.7154 27.9174 46.5954 28.2574C46.3954 28.8374 46.0854 29.3574 45.7854 29.8874C45.4554 30.4674 45.0554 31.0074 44.6254 31.5174C43.6754 32.6374 42.5354 33.5174 41.2354 34.1874C41.0054 34.3074 40.7654 34.3974 40.5254 34.4874C40.1754 34.6174 39.8354 34.7574 39.4754 34.8574C38.7754 35.0474 38.0554 35.1474 37.3354 35.2074C37.0154 35.2274 36.6854 35.2474 36.3654 35.2474C35.6354 35.2474 34.9254 35.1574 34.2054 35.0274C33.2654 34.8674 32.3854 34.5374 31.5354 34.1174C31.0554 33.8774 30.5654 33.6174 30.1154 33.3274C29.7354 33.0774 29.3954 32.7674 29.0454 32.4774C28.7054 32.1874 28.3554 31.9074 28.0554 31.5874C27.6654 31.1774 27.3154 30.7374 26.9654 30.2974C26.7554 30.0374 26.5854 29.7474 26.3754 29.4974C26.1054 29.1674 25.8154 28.8674 25.3754 28.7774C25.0954 28.7274 24.8454 28.7774 24.6154 28.9174C24.4654 29.0074 24.3254 29.0974 24.1854 29.1974C23.4554 29.7174 22.7254 30.2374 22.0854 30.8674C21.4054 31.5274 20.8254 32.2774 20.4454 33.1574C20.0654 34.0374 19.8454 34.9574 19.8354 35.9274C19.8254 36.5074 19.8454 37.0674 20.0054 37.6274C20.1554 38.1474 20.3954 38.6374 20.6554 39.1174C20.8754 39.5274 21.1854 39.8674 21.4954 40.1974C22.0554 40.7974 22.7354 41.2474 23.5054 41.5274C24.5354 41.9074 25.6154 42.0574 26.7154 41.8374C27.3354 41.7174 27.9154 41.4874 28.4554 41.1474C29.0554 40.7674 29.5754 40.3074 30.0454 39.7774C30.4054 39.3674 30.7154 38.9174 30.9854 38.4474C31.3254 37.8574 31.6154 37.2274 31.7854 36.5574C31.8254 36.3874 31.8754 36.2274 31.9354 36.0674C32.0654 35.6974 32.4754 35.6174 32.7254 35.9174C32.8954 36.1174 33.0554 36.3374 33.2054 36.5574C33.4454 36.8974 33.7154 36.9774 34.0954 36.7774C34.2954 36.6774 34.4954 36.5774 34.7354 36.5774C34.9954 36.5674 35.1954 36.6574 35.3754 36.8274C35.5354 36.9774 35.6854 37.1374 35.8354 37.2974C35.9854 37.4674 36.1554 37.5174 36.3754 37.4874C36.8654 37.4274 37.2954 37.1774 37.7554 37.0274C38.0654 36.9274 38.3654 36.8074 38.7054 36.8274C38.7554 36.8274 38.8054 36.8274 38.8454 36.8374C39.1154 36.8974 39.1954 37.0974 39.0154 37.2974C38.8254 37.5074 38.6054 37.6874 38.3854 37.8774C38.0354 38.1774 37.6754 38.4774 37.3254 38.7774C37.2254 38.8674 37.1154 38.9374 37.0254 39.0374C36.8754 39.1874 36.7254 39.3574 36.5754 39.5174C36.2454 39.8674 35.9754 40.2674 35.7254 40.6974C35.4954 41.0874 35.2154 41.4574 34.9454 41.8274C34.6654 42.2074 34.3854 42.5774 34.0954 42.9374C33.5754 43.5574 32.9654 44.0974 32.3154 44.5874C31.7654 44.9974 31.1554 45.3174 30.5554 45.6274C30.4354 45.6874 30.3054 45.7274 30.1854 45.7674C29.5854 45.9674 28.9754 46.1574 28.3754 46.3774C27.8854 46.5574 27.4854 46.8374 27.2954 47.3574C27.1054 47.8674 26.8154 48.3274 26.5054 48.7774C26.3754 48.9774 26.1654 49.1374 25.9554 49.2774C25.7254 49.4374 25.4454 49.3474 25.3554 49.0774C25.2754 48.8474 25.2254 48.5974 25.1954 48.3574C25.1654 48.0174 25.1054 47.6974 24.9454 47.3974C24.7954 47.1074 24.5554 46.9074 24.2954 46.7274C23.9254 46.4774 23.4954 46.3774 23.0654 46.2974C22.6554 46.2274 22.2554 46.1174 21.8654 45.9374C21.5454 45.7874 21.2054 45.6774 20.8854 45.5274C20.5454 45.3574 20.2054 45.1774 19.8854 44.9774C19.1554 44.5374 18.5154 43.9874 17.8854 43.4074C17.6254 43.1674 17.4054 42.8674 17.1754 42.5974C16.9554 42.3374 16.7354 42.0774 16.5454 41.7974C16.2154 41.3074 15.9254 40.7974 15.6554 40.2674C15.3854 39.7274 15.1954 39.1674 15.0254 38.5874C14.9354 38.2574 14.8154 37.9274 14.7554 37.5974C14.6854 37.2274 14.6454 36.8474 14.6254 36.4674C14.5954 35.9974 14.5654 35.5274 14.5854 35.0674C14.6254 34.3674 14.6354 33.6574 14.8754 32.9774C15.0654 32.4474 15.1854 31.8974 15.4654 31.3974C15.7654 30.8374 16.0854 30.2874 16.4854 29.7774C17.1354 28.9374 17.8954 28.2074 18.6954 27.5074C19.0054 27.2374 19.3354 26.9874 19.6354 26.7174C20.1054 26.2974 20.5754 25.8774 21.0154 25.4374C21.2354 25.2174 21.3754 24.9474 21.3454 24.6174C21.3354 24.5274 21.3354 24.4474 21.3454 24.3574C21.4054 23.9074 21.1954 23.5574 20.9254 23.2374C20.6054 22.8474 20.2554 22.4774 19.9554 22.0774C19.4754 21.4274 18.8954 20.8774 18.2954 20.3674C17.8654 20.0074 17.3954 19.7074 16.8854 19.4474C15.9754 18.9874 15.0054 18.8774 14.0154 18.9374C13.3354 18.9774 12.6854 19.1374 12.0654 19.4374C11.3454 19.7774 10.7254 20.2274 10.1954 20.8074C9.69536 21.3574 9.30536 21.9874 9.03536 22.6974C8.85536 23.1974 8.67536 23.6874 8.62536 24.2074C8.56536 24.6974 8.53536 25.1874 8.56536 25.6874C8.60536 26.1974 8.62536 26.7174 8.74536 27.2174C8.98536 28.2274 9.37536 29.1474 10.1454 29.8874C10.4054 30.1374 10.6954 30.3274 10.9954 30.5174C11.5754 30.8874 12.2354 31.0374 12.8854 31.2174C12.9354 31.2274 12.9754 31.2374 13.0254 31.2574C13.4754 31.3774 13.5854 31.7174 13.2954 32.0774C12.9654 32.4874 12.9554 32.6674 13.2054 33.1374C13.4454 33.5774 13.4854 34.0174 13.2354 34.4774C13.1454 34.6374 13.0654 34.7974 12.9954 34.9674C12.8254 35.3674 12.9054 35.7474 13.0554 36.1274C13.1354 36.3274 13.1754 36.5474 13.2254 36.7574C13.2554 36.8674 13.2554 36.9874 13.3054 37.0874C13.5154 37.5674 13.5154 38.0674 13.5254 38.5774C13.5254 38.6574 13.4854 38.7974 13.4354 38.8174C13.3354 38.8474 13.1954 38.8474 13.1154 38.7874C12.9454 38.6574 12.7754 38.4974 12.6654 38.3174C12.2854 37.7074 11.8554 37.1374 11.3654 36.6274C11.0254 36.2674 10.6354 35.9574 10.2554 35.6474C9.82536 35.2974 9.37536 34.9774 8.94536 34.6374C8.47536 34.2674 8.00536 33.8874 7.56536 33.4874C7.16536 33.1274 6.79536 32.7274 6.42536 32.3274C5.81536 31.6774 5.33536 30.9374 4.92536 30.1474C4.78536 29.8874 4.65536 29.6174 4.52536 29.3574C4.39536 29.0974 4.29536 28.8174 4.14536 28.5574C3.93536 28.1774 3.80536 27.7674 3.65536 27.3674C3.55536 27.0974 3.43536 26.8374 3.28536 26.5874C3.22536 26.4774 3.10536 26.3874 2.98536 26.3374C2.48536 26.0874 1.95536 25.8774 1.46536 25.6174C0.985357 25.3674 0.505358 25.1074 0.205358 24.6174C0.0753579 24.3974 -0.0246429 24.1774 0.00535714 23.9174C0.0153571 23.7674 0.00535714 23.6074 0.00535714 23.4574C0.0153571 23.2974 0.0753576 23.2274 0.235358 23.2274C0.355358 23.2274 0.495358 23.2174 0.605358 23.2674C1.27536 23.5574 1.98536 23.5474 2.68536 23.5274C2.95536 23.5174 3.17536 23.3774 3.35536 23.1874C3.59536 22.9274 3.72536 22.6174 3.82536 22.2874C3.92536 21.9474 4.02536 21.6074 4.17536 21.2874C4.45536 20.6574 4.76536 20.0474 5.17536 19.4974C5.43536 19.1474 5.67536 18.7774 5.96536 18.4574C6.25536 18.1174 6.60536 17.8374 6.90536 17.5074C7.18536 17.1974 7.50536 16.9574 7.84536 16.7174C8.15536 16.4974 8.46536 16.2774 8.78536 16.0674C9.34536 15.7074 9.96536 15.4574 10.5854 15.1974C11.1254 14.9774 11.6954 14.8674 12.2654 14.7574C12.6554 14.6774 13.0554 14.6074 13.4454 14.5774C14.2154 14.5074 14.9854 14.4974 15.7554 14.6274C16.5154 14.7574 17.2754 14.8674 18.0054 15.1374C18.8154 15.4374 19.6054 15.7674 20.3154 16.2474C20.7954 16.5774 21.2854 16.8874 21.7354 17.2474C22.1154 17.5474 22.4554 17.8974 22.7954 18.2374C23.2654 18.7074 23.6954 19.2174 24.0854 19.7674C24.2754 20.0374 24.4754 20.3074 24.6754 20.5674C25.1354 21.1774 26.0454 21.2374 26.5754 20.6674C26.9454 20.2674 27.3754 19.9374 27.7654 19.5574C28.0454 19.2874 28.3154 19.0074 28.5754 18.7174C28.8754 18.3974 29.1654 18.0674 29.4354 17.7274C29.6754 17.4274 29.8754 17.1074 30.0854 16.7974C30.1954 16.6274 30.3154 16.4674 30.4054 16.2874C30.8054 15.3674 31.0754 14.4374 31.0254 13.4474Z" fill="#231815"/>
</svg>
