<svg width="180" height="30" viewBox="0 0 180 30" fill="none" xmlns="http://www.w3.org/2000/svg">
<path d="M18.7604 8.51842C18.8028 7.91203 18.6093 7.35811 18.3311 6.83335C18.1316 6.44852 17.8474 6.11617 17.5027 5.84213C17.2608 5.64972 16.9827 5.49812 16.6985 5.36401C16.3054 5.18326 15.8882 5.12496 15.4589 5.08997C14.9993 5.04916 14.5458 5.10746 14.1165 5.2474C13.7779 5.35235 13.4574 5.50395 13.1732 5.72552C13.0099 5.85379 12.8467 5.9879 12.6955 6.12784C12.6108 6.20947 12.5262 6.29693 12.4536 6.39022C12.2541 6.65843 12.0727 6.94413 11.9215 7.2415C11.734 7.60883 11.6615 7.99949 11.5466 8.38432C11.5224 8.46595 11.4861 8.54175 11.4498 8.61171C11.3168 8.86826 11.0689 8.7983 10.9177 8.65836C10.8814 8.62337 10.8452 8.58256 10.8149 8.54758C10.688 8.38432 10.5186 8.37265 10.3312 8.42513C10.1861 8.46595 10.047 8.51259 9.90791 8.56507C9.61162 8.68168 9.46649 8.59422 9.31532 8.39015C9.25486 8.30269 9.19439 8.21523 9.12183 8.1336C8.9888 7.98783 8.77716 7.91203 8.55947 8.02281C8.43249 8.08695 8.27527 8.11027 8.13015 8.1336C7.90642 8.16858 7.67059 8.18607 7.44686 8.22106C7.27755 8.24438 7.11429 8.22106 6.96312 8.14526C6.69101 8.01115 6.68496 7.69629 6.93288 7.5272C7.25336 7.31147 7.60408 7.15987 7.9427 6.98495C8.33574 6.7867 8.7046 6.56514 8.96461 6.20947C9.04322 6.10451 9.09764 5.9879 9.15811 5.87712C9.24276 5.72552 9.31532 5.56809 9.40603 5.42232C9.55115 5.20075 9.70232 4.98502 9.85954 4.77511C10.047 4.52439 10.2768 4.30283 10.5247 4.09875C10.7968 3.87136 11.1052 3.67894 11.4015 3.4807C11.8066 3.21249 12.2601 3.03174 12.7076 2.83932C12.9555 2.73437 13.2095 2.64691 13.4634 2.55362C13.7597 2.44283 13.9593 2.23876 14.0923 1.96472C14.1528 1.84227 14.2435 1.72566 14.31 1.60904C14.4309 1.39331 14.5881 1.2009 14.7393 1.00848C14.8361 0.886038 14.951 0.781086 15.09 0.722779C15.3077 0.635318 15.471 0.664472 15.5254 0.90353C15.5859 1.17174 15.6584 1.43412 15.6887 1.70234C15.7249 1.98804 15.9003 2.1513 16.1301 2.27958C16.2147 2.32622 16.3115 2.35537 16.4022 2.3787C16.6622 2.44867 16.9222 2.5128 17.1762 2.61193C17.5208 2.75186 17.8655 2.88014 18.1981 3.05506C18.6576 3.29412 19.087 3.56816 19.4981 3.87719C19.8549 4.1454 20.1754 4.44859 20.4717 4.77511C20.8587 5.20659 21.1852 5.6847 21.4271 6.2153C21.669 6.74006 21.8262 7.28231 21.8927 7.84789C21.929 8.18607 21.9471 8.52425 21.929 8.86243C21.9048 9.2939 21.8262 9.71955 21.7113 10.1394C21.6024 10.5242 21.4392 10.8857 21.2699 11.2414C21.1247 11.5387 20.9252 11.8186 20.7317 12.0926C20.5322 12.3667 20.3205 12.6291 20.0968 12.8798C19.9214 13.078 19.7219 13.2529 19.5284 13.4337C19.3409 13.6086 19.1535 13.7835 18.9539 13.9351C18.6818 14.145 18.3855 14.3316 18.1134 14.5415C17.9744 14.6465 17.8413 14.7631 17.7264 14.8972C17.5632 15.0838 17.5632 15.3054 17.666 15.5211C17.8413 15.9059 18.059 16.2674 18.3069 16.6056C18.4883 16.8505 18.7 17.0837 18.9237 17.2995C19.2079 17.5793 19.5284 17.8126 19.8791 18.0108C20.3266 18.2673 20.8103 18.4015 21.3182 18.5006C21.8504 18.5997 22.3583 18.5239 22.8662 18.3898C23.2714 18.2848 23.6281 18.0924 23.9486 17.8475C24.4082 17.5035 24.7831 17.0837 25.0491 16.5823C25.1882 16.3199 25.3031 16.0517 25.3877 15.766C25.4905 15.422 25.5268 15.0721 25.5268 14.7106C25.5268 14.3608 25.4663 14.0284 25.3817 13.6903C25.2789 13.2938 25.0794 12.9439 24.8435 12.6174C24.6742 12.3842 24.4626 12.1743 24.2388 11.9819C24.0333 11.8011 23.7914 11.6728 23.5556 11.5329C23.4104 11.4454 23.2411 11.393 23.0779 11.3405C22.9388 11.2938 22.7937 11.253 22.6425 11.2239C22.4913 11.1947 22.4067 11.1073 22.3764 10.9731C22.3462 10.8449 22.4006 10.7457 22.5034 10.6641C22.6788 10.5358 22.6848 10.3668 22.6243 10.186C22.6123 10.1568 22.5941 10.1277 22.5881 10.0927C22.5639 10.0111 22.5397 9.92945 22.5276 9.84782C22.5034 9.65541 22.5276 9.48049 22.6909 9.32889C22.7755 9.24726 22.8299 9.12481 22.8844 9.01403C22.9509 8.87409 22.963 8.7225 22.9146 8.57673C22.9085 8.54757 22.8965 8.52425 22.8904 8.4951C22.836 8.30852 22.7634 8.13359 22.7271 7.93535C22.6848 7.67297 22.6183 7.41642 22.6304 7.14821C22.6304 7.10156 22.6123 7.04909 22.6123 7.00244C22.6062 6.92664 22.6062 6.85667 22.6848 6.81003C22.7574 6.76921 22.842 6.77504 22.9206 6.85084C23.0295 6.94996 23.1444 7.04909 23.229 7.1657C23.4346 7.43974 23.6221 7.72545 23.8216 8.01115C23.876 8.08695 23.9426 8.16275 24.003 8.23272C24.0212 8.25604 24.0453 8.2677 24.0635 8.29102C24.2691 8.60588 24.5956 8.77497 24.8979 8.97322C25.2305 9.19478 25.5571 9.42218 25.8836 9.64958C26.2585 9.91196 26.6092 10.2093 26.9297 10.5358C27.3348 10.9498 27.6855 11.3988 27.9516 11.9119C28.1632 12.32 28.3567 12.734 28.5139 13.1655C28.5623 13.3054 28.6349 13.4395 28.6953 13.5795C28.8102 13.8302 29.0098 13.9818 29.2577 14.0984C29.4814 14.1975 29.6991 14.3083 29.9228 14.4191C29.9833 14.4482 30.0377 14.4949 30.0861 14.5415C30.1042 14.559 30.1284 14.5823 30.1345 14.6057C30.2131 14.8389 30.1043 15.0313 29.8624 15.1013C29.6447 15.1596 29.4331 15.2296 29.2093 15.2704C28.9735 15.317 28.8284 15.4628 28.7437 15.6552C28.6167 15.9526 28.52 16.2616 28.4111 16.5648C28.3386 16.763 28.2479 16.9554 28.1753 17.1537C28.0544 17.4919 27.8669 17.7951 27.6855 18.1041C27.486 18.4423 27.2441 18.7571 26.9841 19.0545C26.4097 19.7075 25.7203 20.2206 24.9342 20.6113C24.7952 20.6813 24.65 20.7337 24.5049 20.7862C24.2933 20.862 24.0877 20.9436 23.87 21.0019C23.4467 21.1127 23.0113 21.171 22.576 21.206C22.3825 21.2177 22.1829 21.2293 21.9894 21.2293C21.548 21.2293 21.1187 21.1769 20.6833 21.1011C20.1149 21.0078 19.5828 20.8154 19.0688 20.5705C18.7786 20.4305 18.4823 20.2789 18.2102 20.1098C17.9804 19.9641 17.7748 19.7833 17.5632 19.6142C17.3576 19.4451 17.1459 19.2819 16.9645 19.0953C16.7287 18.8563 16.5171 18.5997 16.3054 18.3431C16.1785 18.1915 16.0757 18.0225 15.9487 17.8767C15.7854 17.6843 15.6101 17.5094 15.344 17.4569C15.1747 17.4277 15.0235 17.4569 14.8844 17.5385C14.7937 17.591 14.7091 17.6435 14.6244 17.7018C14.183 18.005 13.7416 18.3082 13.3546 18.6755C12.9434 19.0603 12.5927 19.4976 12.3629 20.0107C12.1331 20.5238 12.0001 21.0603 11.9941 21.6258C11.988 21.964 12.0001 22.2905 12.0969 22.6171C12.1876 22.9202 12.3327 23.2059 12.4899 23.4858C12.6229 23.7249 12.8104 23.9231 12.9978 24.1155C13.3365 24.4654 13.7476 24.7278 14.2132 24.891C14.8361 25.1126 15.4891 25.2 16.1543 25.0718C16.5292 25.0018 16.8799 24.8677 17.2064 24.6695C17.5692 24.4479 17.8837 24.1797 18.1679 23.8706C18.3855 23.6316 18.573 23.3692 18.7363 23.0952C18.9418 22.7512 19.1172 22.3838 19.22 21.9932C19.2442 21.894 19.2744 21.8008 19.3107 21.7075C19.3893 21.4917 19.6372 21.4451 19.7884 21.62C19.8912 21.7366 19.9879 21.8649 20.0786 21.9932C20.2238 22.1914 20.387 22.2381 20.6168 22.1214C20.7377 22.0631 20.8587 22.0048 21.0038 22.0048C21.161 21.999 21.282 22.0515 21.3908 22.1506C21.4875 22.2381 21.5783 22.3313 21.669 22.4246C21.7597 22.5238 21.8624 22.5529 21.9955 22.5354C22.2918 22.5004 22.5518 22.3547 22.8299 22.2672C23.0174 22.2089 23.1988 22.1389 23.4044 22.1506C23.4346 22.1506 23.4649 22.1506 23.489 22.1564C23.6523 22.1914 23.7007 22.308 23.5918 22.4246C23.4769 22.5471 23.3439 22.652 23.2109 22.7628C22.9993 22.9377 22.7816 23.1127 22.5699 23.2876C22.5095 23.3401 22.4429 23.3809 22.3885 23.4392C22.2978 23.5266 22.2071 23.6258 22.1164 23.7191C21.9169 23.9231 21.7536 24.1564 21.6024 24.4071C21.4634 24.6345 21.2941 24.8502 21.1308 25.0659C20.9615 25.2875 20.7922 25.5032 20.6168 25.7131C20.3024 26.0747 19.9335 26.3895 19.5405 26.6752C19.2079 26.9143 18.839 27.1009 18.4762 27.2816C18.4037 27.3166 18.3251 27.3399 18.2525 27.3632C17.8897 27.4799 17.5208 27.5906 17.158 27.7189C16.8617 27.8239 16.6199 27.9871 16.505 28.2903C16.3901 28.5877 16.2147 28.8559 16.0273 29.1183C15.9487 29.2349 15.8217 29.3282 15.6947 29.4098C15.5556 29.5031 15.3863 29.4506 15.3319 29.2932C15.2835 29.1591 15.2533 29.0133 15.2351 28.8734C15.217 28.6751 15.1807 28.4886 15.084 28.3136C14.9933 28.1446 14.8482 28.0279 14.6909 27.923C14.4672 27.7772 14.2072 27.7189 13.9472 27.6723C13.6993 27.6314 13.4574 27.5673 13.2216 27.4624C13.0281 27.3749 12.8225 27.3108 12.629 27.2233C12.4234 27.1242 12.2178 27.0192 12.0243 26.9026C11.5829 26.6461 11.1959 26.3254 10.8149 25.9872C10.6577 25.8473 10.5247 25.6723 10.3856 25.5149C10.2526 25.3633 10.1196 25.2117 10.0047 25.0485C9.80512 24.7627 9.62976 24.4654 9.46649 24.1564C9.30323 23.8415 9.18834 23.515 9.08555 23.1768C9.03112 22.9844 8.95856 22.792 8.92228 22.5996C8.87995 22.3838 8.85577 22.1623 8.84367 21.9407C8.82553 21.6666 8.80739 21.3926 8.81949 21.1244C8.84367 20.7162 8.84972 20.3023 8.99484 19.9058C9.10973 19.5967 9.18229 19.2761 9.35161 18.9845C9.53301 18.658 9.72651 18.3373 9.96838 18.04C10.3614 17.5502 10.821 17.1245 11.3047 16.7164C11.4922 16.559 11.6917 16.4132 11.8731 16.2558C12.1573 16.0109 12.4415 15.766 12.7076 15.5094C12.8406 15.3812 12.9253 15.2237 12.9071 15.0313C12.9011 14.9788 12.9011 14.9322 12.9071 14.8797C12.9434 14.6173 12.8164 14.4133 12.6532 14.2267C12.4597 13.9993 12.248 13.7835 12.0666 13.5503C11.7764 13.1713 11.4257 12.8506 11.0629 12.5533C10.8028 12.3434 10.5186 12.1684 10.2103 12.0168C9.65999 11.7486 9.07345 11.6845 8.47482 11.7195C8.06363 11.7428 7.67059 11.8361 7.29569 12.011C6.86032 12.2093 6.48542 12.4716 6.16494 12.8098C5.8626 13.1305 5.62677 13.4978 5.46351 13.9118C5.35466 14.2034 5.24582 14.4891 5.21559 14.7923C5.17931 15.078 5.16117 15.3637 5.17931 15.6552C5.20349 15.9526 5.21559 16.2558 5.28815 16.5473C5.43327 17.1362 5.6691 17.6726 6.1347 18.1041C6.29192 18.2499 6.46728 18.3606 6.64868 18.4714C6.9994 18.6872 7.39849 18.7746 7.79153 18.8796C7.82176 18.8854 7.84595 18.8912 7.87618 18.9029C8.14829 18.9729 8.21481 19.1711 8.03945 19.381C7.8399 19.6201 7.83386 19.725 7.98503 19.9991C8.13015 20.2556 8.15434 20.5122 8.00317 20.7804C7.94875 20.8737 7.90037 20.967 7.85804 21.0661C7.75525 21.2993 7.80362 21.5209 7.89432 21.7424C7.9427 21.8591 7.96689 21.9873 7.99712 22.1098C8.01526 22.1739 8.01526 22.2439 8.0455 22.3022C8.17248 22.5821 8.17248 22.8736 8.17852 23.171C8.17852 23.2176 8.15434 23.2992 8.1241 23.3109C8.06363 23.3284 7.97898 23.3284 7.93061 23.2934C7.82781 23.2176 7.72501 23.1243 7.6585 23.0194C7.42872 22.6637 7.16871 22.3313 6.87241 22.034C6.66682 21.8241 6.431 21.6433 6.20122 21.4626C5.94121 21.2585 5.6691 21.0719 5.40909 20.8737C5.12489 20.6579 4.84069 20.4364 4.57463 20.2031C4.33275 19.9932 4.10902 19.76 3.88529 19.5268C3.51644 19.1478 3.22619 18.7163 2.97827 18.2557C2.89361 18.1041 2.81501 17.9467 2.7364 17.7951C2.65779 17.6435 2.59732 17.4802 2.50662 17.3286C2.37964 17.107 2.30103 16.868 2.21032 16.6348C2.14986 16.4773 2.0773 16.3257 1.98659 16.18C1.95031 16.1158 1.87775 16.0633 1.80519 16.0342C1.50285 15.8884 1.18237 15.766 0.886073 15.6144C0.595827 15.4686 0.30558 15.317 0.124176 15.0313C0.0455675 14.903 -0.0149011 14.7748 0.00323936 14.6232C0.00928617 14.5357 0.00323936 14.4424 0.00323936 14.355C0.00928617 14.2617 0.0455673 14.2208 0.142316 14.2208C0.214878 14.2208 0.299533 14.215 0.366048 14.2442C0.771184 14.4133 1.20051 14.4074 1.62378 14.3958C1.78705 14.3899 1.92008 14.3083 2.02892 14.1975C2.17404 14.0459 2.25265 13.8652 2.31312 13.6728C2.37359 13.4745 2.43406 13.2763 2.52476 13.0897C2.69407 12.7224 2.88152 12.3667 3.12944 12.046C3.28666 11.8419 3.43178 11.6262 3.60714 11.4396C3.7825 11.2414 3.99413 11.0781 4.17554 10.8857C4.34485 10.7049 4.53835 10.565 4.74394 10.4251C4.93139 10.2968 5.11884 10.1685 5.31234 10.0461C5.65096 9.83616 6.02586 9.69039 6.40076 9.53879C6.72729 9.41052 7.07196 9.34638 7.41663 9.28224C7.65245 9.2356 7.89432 9.19478 8.13015 9.17729C8.59575 9.13648 9.06136 9.13064 9.52696 9.20644C9.98652 9.28224 10.4461 9.34638 10.8875 9.50381C11.3773 9.67873 11.855 9.87114 12.2843 10.151C12.5746 10.3434 12.8708 10.5242 13.143 10.7341C13.3727 10.909 13.5783 11.1131 13.7839 11.3113C14.0681 11.5854 14.3281 11.8827 14.564 12.2034C14.6788 12.3609 14.7998 12.5183 14.9207 12.6699C15.1989 13.0256 15.7491 13.0605 16.0696 12.7282C16.2933 12.495 16.5534 12.3025 16.7892 12.081C16.9585 11.9235 17.1218 11.7603 17.279 11.5912C17.4604 11.4046 17.6357 11.2122 17.799 11.014C17.9441 10.839 18.0651 10.6525 18.192 10.4717C18.2586 10.3726 18.3311 10.2793 18.3855 10.1743C18.6274 9.63792 18.7907 9.09566 18.7604 8.51842Z" fill="white"/>
<path d="M73.321 8.84493C73.1517 8.78079 72.9824 8.66418 72.807 8.65835C71.6702 8.6117 70.5334 8.57672 69.451 9.04318C68.6952 9.36969 67.891 9.48048 67.0747 9.45132C65.6113 9.39885 64.6862 7.79541 65.4178 6.57096C65.9076 5.74883 66.6514 5.31736 67.6491 5.3057C69.0157 5.29404 70.3883 5.36984 71.7428 5.22407C74.1131 4.96752 76.4774 5.18908 78.8417 5.11328C79.5855 5.08996 80.3293 4.95586 81.067 4.96169C82.0345 4.96752 83.008 5.02582 83.9755 5.12495C85.2937 5.25905 86.5877 5.5156 87.8394 5.99955C88.6376 6.30858 89.0669 7.08406 88.2203 7.91202C87.4222 8.68167 86.4849 9.00819 85.3904 8.86242C84.562 8.75164 83.7397 8.54174 82.9112 8.40763C82.0526 8.27352 81.1819 8.1744 80.3172 8.07528C80.1599 8.05779 79.9544 8.04613 79.8455 8.12775C79.6823 8.24437 79.5129 8.43095 79.4827 8.60587C79.4646 8.71083 79.6943 8.92073 79.8516 8.96154C80.0934 9.03151 80.3655 8.9907 80.6255 9.01402C81.1093 9.06067 81.5991 9.07233 82.0647 9.18311C82.9838 9.39885 83.3708 9.8653 83.4615 10.7574C83.4978 11.1014 83.5159 11.4454 83.528 11.7894C83.5764 14.1684 83.6248 16.5473 83.661 18.9262C83.6852 20.3023 83.1471 21.5675 82.6754 22.8211C82.2884 23.8473 80.9581 24.2846 80.0934 23.6607C78.8901 22.7861 77.5901 22.9785 76.2718 23.0718C75.9151 23.0952 75.5644 23.2059 75.2137 23.1943C74.5122 23.171 73.8652 23.3226 73.2303 23.5849C72.8433 23.7424 72.4382 23.8706 72.033 23.9814C71.0232 24.2613 70.4971 24.0456 70.086 23.1126C69.5841 21.9757 69.4027 20.7629 69.4329 19.5326C69.4692 18.0633 69.578 16.5998 69.6022 15.1304C69.6143 14.3841 69.5357 13.6319 69.4571 12.8914C69.3241 11.597 70.2311 10.1802 71.5191 9.74869C71.8879 9.62624 72.2628 9.53878 72.6317 9.41634C72.8856 9.32888 73.1275 9.20643 73.3754 9.10148C73.3452 9.01402 73.3331 8.92656 73.321 8.84493ZM76.6044 15.9875C77.2152 16.3199 77.8803 16.5823 78.4064 16.9962C79.2832 17.6901 79.0292 18.3315 78.2371 18.8154C76.9128 19.6201 75.4555 19.4976 74.0043 19.1594C73.9741 19.1536 73.9438 19.1361 73.9196 19.1186C73.5024 18.7804 72.9642 18.4831 72.9582 17.9C72.9522 17.3111 73.3936 16.9554 73.9196 16.7047C74.095 16.6172 74.2583 16.5006 74.4276 16.3957C74.1917 16.3024 74.0043 16.3374 73.8229 16.349C73.5931 16.3607 73.3694 16.3432 73.1396 16.3665C72.5228 16.419 72.1842 16.7805 72.2386 17.3577C72.2991 17.9758 72.3898 18.5939 72.5107 19.2061C72.68 20.0865 72.7345 20.1448 73.6536 20.1157C74.7541 20.0865 75.8546 19.9816 76.9551 19.9407C77.5054 19.9233 78.0557 19.9874 78.612 19.9932C79.392 19.9991 79.5915 19.9349 79.7367 19.2352C79.906 18.4189 79.906 17.5677 79.9664 16.7339C80.0027 16.2149 79.6883 15.9934 79.1864 15.9875C78.3036 15.9817 77.4389 15.9875 76.6044 15.9875ZM79.9906 12.4075C79.8516 12.3084 79.6278 12.0227 79.392 12.0168C79.0534 12.0052 78.8297 12.2909 78.8478 12.6582C78.8659 13.008 79.0352 13.2646 79.4101 13.3112C79.7004 13.3462 80.0148 12.9322 79.9906 12.4075ZM73.2484 12.7107C72.8433 12.6465 72.4624 12.5474 72.42 13.0547C72.4079 13.2005 72.5954 13.4862 72.7224 13.4978C73.2726 13.5736 73.3391 13.2238 73.2484 12.7107ZM76.3988 12.4075C76.3384 12.3492 76.1993 12.0926 76.0239 12.0693C75.6672 12.0227 75.6127 12.3433 75.6611 12.5882C75.7035 12.7981 75.8365 13.1363 75.9756 13.1538C76.3686 13.218 76.4109 12.8973 76.3988 12.4075ZM76.8765 8.60004C76.5621 8.39597 76.3323 8.16274 76.2477 8.20355C76.03 8.31434 75.8728 8.54757 75.6914 8.72832C75.8546 8.8391 76.036 9.04901 76.1811 9.03151C76.3807 9.00819 76.556 8.80995 76.8765 8.60004Z" fill="white"/>
<path d="M162.916 18.0633C162.348 17.9875 161.913 17.9292 161.356 17.8534C161.302 18.6405 161.235 19.346 161.217 20.0515C161.205 20.8037 161.26 21.5559 161.254 22.308C161.247 22.6812 161.217 23.0602 161.12 23.4217C160.933 24.098 160.6 24.3313 159.953 24.3313C159.427 24.3313 158.871 23.9639 158.72 23.445C158.617 23.0893 158.581 22.7045 158.551 22.3313C158.472 21.3984 158.418 20.4597 158.333 19.5268C158.315 19.3577 158.212 19.1944 158.127 18.9729C157.45 19.3519 157.124 19.9291 156.803 20.4888C156.301 21.3693 155.563 22.0048 154.717 22.5471C154.584 22.6345 154.439 22.7453 154.288 22.757C154.046 22.7803 153.707 22.8153 153.568 22.687C153.429 22.5587 153.375 22.1914 153.465 22.0107C153.798 21.3343 154.13 20.6404 154.602 20.0574C155.793 18.5939 156.761 17.0021 157.686 15.387C157.777 15.2237 157.855 15.0488 157.91 14.868C157.94 14.7573 157.916 14.629 157.916 14.4249C157.42 14.4249 156.948 14.4249 156.483 14.4249C156.065 14.4249 155.636 14.4599 155.231 14.4016C154.705 14.32 154.179 14.1334 154.088 13.5386C153.985 12.8681 154.052 12.2034 154.693 11.7603C155.455 11.2355 156.313 10.979 157.244 10.9673C157.765 10.9615 158.291 10.9906 158.805 10.9615C159.512 10.9207 160.22 10.8449 160.927 10.7807C161.737 10.7049 162.541 10.6175 163.328 10.944C164.011 11.2297 164.235 11.6495 163.872 12.2734C163.588 12.7573 163.195 13.1888 162.808 13.6086C162.251 14.2092 162.269 14.4949 162.947 14.9497C163.213 15.1304 163.449 15.3462 163.721 15.5153C164.301 15.8826 164.64 16.384 164.646 17.0837C165.686 17.3403 166.611 17.0604 167.53 16.7572C167.893 16.6347 168.117 15.9176 167.99 15.5327C167.857 15.1246 167.542 14.9613 166.992 15.0196C166.702 15.0488 166.411 15.1013 166.121 15.1071C165.347 15.1188 164.966 14.8389 164.773 14.1509C164.567 13.4104 164.724 12.8565 165.359 12.5649C166.024 12.2617 166.738 12.0227 167.445 11.8419C168.111 11.6728 168.268 11.597 168.298 10.9323C168.322 10.4017 168.34 9.85365 168.225 9.34055C168.05 8.53008 168.492 8.03447 169.03 7.56218C169.193 7.41642 169.405 7.31146 169.604 7.21234C170.535 6.74589 171.074 6.93247 171.418 7.87704C171.66 8.5534 171.817 9.25892 171.594 9.98192C171.521 10.221 171.454 10.4717 171.442 10.7166C171.4 11.4338 171.678 11.6961 172.416 11.6553C172.706 11.6378 172.996 11.5854 173.281 11.5329C174.339 11.3346 175.591 12.4775 175.324 13.801C175.216 14.3433 174.81 14.6173 174.333 14.7281C173.613 14.8914 172.869 14.9555 172.132 15.0488C171.878 15.0838 171.618 15.0954 171.309 15.1188C171.219 15.3928 171.098 15.6494 171.061 15.9176C170.995 16.5065 171.255 16.7805 171.884 16.8038C173.668 16.8738 175.451 16.9205 177.235 17.0021C178.366 17.0487 179.182 17.6435 179.775 18.5181C180.144 19.0603 180.047 19.5035 179.575 19.9524C178.693 20.7979 177.61 20.862 176.491 20.5938C174.877 20.2031 173.25 19.9233 171.581 20.0282C170.584 20.0924 169.598 20.3372 168.606 20.3722C167.234 20.4189 165.897 20.6346 164.585 21.0019C164.047 21.1535 163.509 21.3285 163.049 20.8329C162.517 20.2556 162.269 19.6084 162.554 18.8446C162.632 18.6288 162.741 18.4364 162.916 18.0633Z" fill="white"/>
<path d="M98.9471 11.5387C98.542 11.6553 98.2759 11.737 97.9978 11.8069C97.1935 12.0227 96.353 11.632 96.0809 10.9207C95.7604 10.0635 96.1051 9.2181 96.9517 8.90324C98.0159 8.51258 99.1285 8.29102 100.271 8.29685C100.531 8.29685 100.791 8.31434 101.051 8.27936C102.128 8.14525 102.164 8.06362 102.224 7.01993C102.273 6.18614 102.714 5.46313 103.258 4.85091C103.766 4.28533 104.776 4.43693 105.181 5.11912C105.466 5.59724 105.659 6.14532 105.786 6.68175C106.088 7.94118 106.264 8.10444 107.63 8.02864C108.114 7.99948 108.598 7.94701 109.076 7.8887C109.898 7.78375 110.63 8.04613 111.301 8.43679C112.323 9.03152 112.286 10.1685 111.271 10.7632C110.624 11.1422 109.916 11.1656 109.196 11.1247C107.896 11.0489 107.794 11.0839 107.261 12.2209C106.379 14.0984 106.475 14.18 107.89 15.4686C109.892 17.2761 112.141 18.7571 114.596 19.9349C115.237 20.2439 115.878 20.553 116.465 20.9436C117.438 21.5908 117.287 22.7628 116.205 23.2526C116.114 23.2934 116.029 23.3459 115.939 23.3634C114.391 23.6257 112.843 23.6432 111.301 23.3284C111.047 23.2759 110.757 23.066 110.611 22.8503C109.42 21.0777 107.715 19.7308 106.397 18.0691C106.185 17.8009 105.901 17.5735 105.629 17.3578C104.939 16.8155 104.583 16.8446 104.002 17.5385C102.896 18.8621 101.65 20.0457 100.205 21.0194C98.8322 21.9465 97.3326 22.5995 95.6093 22.6404C95.3855 22.6462 95.1437 22.6404 94.9381 22.5704C94.4181 22.3955 93.8557 22.238 93.8134 21.5617C93.771 20.8795 93.8376 20.2323 94.5511 19.8533C95.2404 19.4918 95.9479 19.1886 96.7703 19.2527C97.5866 19.3169 98.3061 19.0661 98.9471 18.5822C99.8481 17.9117 100.767 17.2703 101.65 16.5823C102.055 16.2674 102.406 15.8418 102.297 15.2937C102.188 14.7514 101.765 14.4599 101.203 14.3491C100.852 14.2791 100.513 14.1859 100.163 14.1042C99.0681 13.8652 98.3908 13.2354 98.8625 12.1743C98.929 12.0343 98.9108 11.8652 98.9471 11.5387ZM102.478 11.358C102.829 12.116 103.361 12.2792 103.893 12.3725C104.238 12.4366 104.583 12.0926 104.613 11.7428C104.655 11.323 104.347 11.1597 104.014 11.1656C103.549 11.1714 103.083 11.2822 102.478 11.358Z" fill="white"/>
<path d="M52.7798 18.728C54.5757 18.588 56.0935 18.4423 57.6112 18.3665C58.2461 18.3315 58.9113 18.3548 59.5341 18.4889C60.5137 18.7046 60.9067 19.5035 60.4411 20.3664C59.7518 21.6492 58.7359 22.6345 57.321 23.1885C57.2303 23.2234 57.1214 23.2118 57.0428 23.2584C55.8939 23.9639 54.6967 23.8065 53.4812 23.4508C52.3384 23.1185 51.1774 22.827 50.0346 22.4946C48.8615 22.1506 47.6945 21.7774 46.5274 21.4276C45.9409 21.2527 45.3543 21.0661 44.7557 20.9203C42.4095 20.3489 41.0006 18.2965 41.4844 16.0284C41.7263 14.903 42.0951 13.7952 42.4095 12.6815C42.4579 12.5008 42.5184 12.32 42.5547 12.1335C42.6756 11.5679 42.4398 11.2997 41.8532 11.3346C41.6597 11.3463 41.4783 11.4221 41.2848 11.4571C40.3415 11.6087 39.5554 11.288 39.0959 10.565C38.7633 10.0344 38.854 9.06067 39.3559 8.46011C40.0997 7.57385 41.0188 6.99078 42.2584 6.95579C43.7036 6.91498 45.1004 7.17736 46.479 7.51554C47.8154 7.84789 48.2205 9.21227 47.3195 10.2443C46.5395 11.1364 45.8199 12.0577 45.4209 13.1713C45.1971 13.7894 45.0097 14.4191 44.8645 15.0605C44.6529 15.9934 45.6325 17.0254 46.5274 17.3519C47.374 17.661 48.2508 17.9175 49.1336 18.0983C50.4216 18.3781 51.7337 18.553 52.7798 18.728Z" fill="white"/>
<path d="M142.605 21.3634C141.867 21.1419 141.118 20.9553 140.398 20.6871C139.34 20.2964 138.3 19.865 137.266 19.4218C135.784 18.7921 134.472 17.9467 133.777 16.4657C133.632 16.1625 133.571 15.8068 133.547 15.4686C133.444 13.8768 133.45 12.2734 133.239 10.6933C133.118 9.78368 133.444 9.10732 133.892 8.42513C134.569 7.3931 135.343 7.33479 136.226 8.23855C136.449 8.46594 136.631 8.72833 136.8 8.99654C137.066 9.41052 137.429 9.59127 137.937 9.58544C138.783 9.57378 139.624 9.60876 140.47 9.61459C141.511 9.62042 142.333 10.1977 142.484 11.0373C142.617 11.7603 142.351 12.2734 141.607 12.4891C140.87 12.7049 140.096 12.8098 139.334 12.9672C138.608 13.113 137.846 13.1713 137.169 13.4279C136.322 13.7486 136.238 14.3375 136.885 14.9672C137.296 15.3637 137.755 15.731 138.251 16.0167C139.334 16.6406 140.404 17.2062 141.783 17.1479C143.028 17.0954 144.292 17.3694 145.55 17.521C145.834 17.556 146.118 17.6668 146.366 17.8067C147.146 18.2265 147.249 18.9729 146.62 19.6026C145.538 20.6929 144.238 21.311 142.605 21.3634Z" fill="white"/>
<path d="M129.314 7.0316C130.137 7.12489 130.838 7.42226 131.243 8.14526C131.648 8.8741 131.352 9.53297 130.917 10.1569C130.88 10.2093 130.838 10.2676 130.784 10.291C129.115 11.1014 129.326 12.6757 129.266 14.0518C129.169 16.3257 129.242 18.5997 129.538 20.8678C129.623 21.5034 129.483 22.1798 129.344 22.8153C129.278 23.1243 129.006 23.4217 128.758 23.6491C128.347 24.0281 127.911 23.9814 127.464 23.6141C127.028 23.2643 126.871 22.8036 126.841 22.2905C126.726 20.1682 126.635 18.0458 126.496 15.9292C126.43 14.9672 126.303 14.0051 126.134 13.0605C125.994 12.2792 125.928 12.2967 125.118 12.2093C124.706 12.1626 124.283 12.081 123.902 11.9236C123.14 11.6087 122.657 10.8507 122.741 10.1335C122.838 9.31723 123.122 8.6467 124.09 8.39598C125.275 8.09279 126.43 7.66132 127.609 7.32897C128.165 7.17154 128.752 7.12489 129.314 7.0316Z" fill="white"/>
<path d="M160.165 6.82168C161.054 6.75755 161.81 6.98494 162.505 7.65547C163.104 8.23271 162.971 9.27058 162.257 9.55045C160.855 10.0927 159.391 10.3726 157.892 9.96443C157.202 9.77785 156.876 9.20644 156.924 8.50092C156.972 7.8129 157.589 7.11905 158.303 6.97328C158.647 6.90331 159.004 6.85667 159.361 6.82168C159.621 6.80419 159.881 6.82168 160.165 6.82168Z" fill="white"/>
</svg>
