<svg width="180" height="30" viewBox="0 0 180 30" fill="none" xmlns="http://www.w3.org/2000/svg">
<path d="M18.7604 8.51839C18.8028 7.912 18.6093 7.35808 18.3311 6.83332C18.1316 6.44849 17.8474 6.11614 17.5027 5.8421C17.2608 5.64969 16.9827 5.49809 16.6985 5.36398C16.3054 5.18323 15.8882 5.12493 15.4589 5.08994C14.9993 5.04913 14.5458 5.10743 14.1165 5.24737C13.7779 5.35232 13.4574 5.50392 13.1732 5.72549C13.0099 5.85376 12.8467 5.98787 12.6955 6.1278C12.6108 6.20943 12.5262 6.2969 12.4536 6.39019C12.2541 6.6584 12.0727 6.9441 11.9215 7.24147C11.734 7.6088 11.6615 7.99946 11.5466 8.38428C11.5224 8.46591 11.4861 8.54171 11.4498 8.61168C11.3168 8.86823 11.0689 8.79827 10.9177 8.65833C10.8814 8.62334 10.8452 8.58253 10.8149 8.54754C10.688 8.38429 10.5186 8.37262 10.3312 8.4251C10.1861 8.46591 10.047 8.51256 9.90791 8.56504C9.61162 8.68165 9.46649 8.59419 9.31532 8.39012C9.25486 8.30266 9.19439 8.21519 9.12183 8.13356C8.9888 7.9878 8.77716 7.912 8.55947 8.02278C8.43249 8.08692 8.27527 8.11024 8.13015 8.13356C7.90642 8.16855 7.67059 8.18604 7.44686 8.22103C7.27755 8.24435 7.11429 8.22103 6.96312 8.14523C6.69101 8.01112 6.68496 7.69626 6.93288 7.52717C7.25336 7.31144 7.60408 7.15984 7.9427 6.98492C8.33574 6.78667 8.7046 6.56511 8.96461 6.20943C9.04322 6.10448 9.09764 5.98787 9.15811 5.87709C9.24276 5.72549 9.31532 5.56806 9.40603 5.42229C9.55115 5.20072 9.70232 4.98499 9.85954 4.77508C10.047 4.52436 10.2768 4.3028 10.5247 4.09872C10.7968 3.87133 11.1052 3.67891 11.4015 3.48067C11.8066 3.21246 12.2601 3.0317 12.7076 2.83929C12.9555 2.73434 13.2095 2.64688 13.4634 2.55359C13.7597 2.4428 13.9593 2.23873 14.0923 1.96469C14.1528 1.84224 14.2435 1.72563 14.31 1.60901C14.4309 1.39328 14.5881 1.20087 14.7393 1.00845C14.8361 0.886008 14.951 0.781055 15.09 0.722748C15.3077 0.635288 15.471 0.664441 15.5254 0.9035C15.5859 1.17171 15.6584 1.43409 15.6887 1.70231C15.7249 1.98801 15.9003 2.15127 16.1301 2.27954C16.2147 2.32619 16.3115 2.35534 16.4022 2.37867C16.6622 2.44863 16.9222 2.51277 17.1762 2.61189C17.5208 2.75183 17.8655 2.88011 18.1981 3.05503C18.6576 3.29409 19.087 3.56813 19.4981 3.87716C19.8549 4.14537 20.1754 4.44856 20.4717 4.77508C20.8587 5.20656 21.1852 5.68467 21.4271 6.21527C21.669 6.74003 21.8262 7.28228 21.8927 7.84786C21.929 8.18604 21.9471 8.52422 21.929 8.8624C21.9048 9.29387 21.8262 9.71952 21.7113 10.1393C21.6024 10.5242 21.4392 10.8857 21.2699 11.2413C21.1247 11.5387 20.9252 11.8186 20.7317 12.0926C20.5322 12.3667 20.3205 12.629 20.0968 12.8798C19.9214 13.078 19.7219 13.2529 19.5284 13.4337C19.3409 13.6086 19.1535 13.7835 18.9539 13.9351C18.6818 14.145 18.3855 14.3316 18.1134 14.5415C17.9744 14.6465 17.8413 14.7631 17.7264 14.8972C17.5632 15.0838 17.5632 15.3053 17.666 15.5211C17.8413 15.9059 18.059 16.2674 18.3069 16.6056C18.4883 16.8505 18.7 17.0837 18.9237 17.2994C19.2079 17.5793 19.5284 17.8125 19.8791 18.0108C20.3266 18.2673 20.8103 18.4014 21.3182 18.5005C21.8504 18.5997 22.3583 18.5239 22.8662 18.3898C23.2714 18.2848 23.6281 18.0924 23.9486 17.8475C24.4082 17.5035 24.7831 17.0837 25.0491 16.5822C25.1882 16.3199 25.3031 16.0517 25.3877 15.7659C25.4905 15.4219 25.5268 15.0721 25.5268 14.7106C25.5268 14.3608 25.4663 14.0284 25.3817 13.6902C25.2789 13.2937 25.0794 12.9439 24.8435 12.6174C24.6742 12.3841 24.4626 12.1742 24.2388 11.9818C24.0333 11.8011 23.7914 11.6728 23.5556 11.5329C23.4104 11.4454 23.2411 11.3929 23.0779 11.3404C22.9388 11.2938 22.7937 11.253 22.6425 11.2238C22.4913 11.1947 22.4067 11.1072 22.3764 10.9731C22.3462 10.8448 22.4006 10.7457 22.5034 10.6641C22.6788 10.5358 22.6848 10.3667 22.6243 10.186C22.6123 10.1568 22.5941 10.1277 22.5881 10.0927C22.5639 10.0111 22.5397 9.92942 22.5276 9.84779C22.5034 9.65538 22.5276 9.48046 22.6909 9.32886C22.7755 9.24723 22.8299 9.12478 22.8844 9.014C22.9509 8.87406 22.963 8.72247 22.9146 8.5767C22.9085 8.54754 22.8965 8.52422 22.8904 8.49507C22.836 8.30849 22.7634 8.13356 22.7271 7.93532C22.6848 7.67294 22.6183 7.41639 22.6304 7.14818C22.6304 7.10153 22.6123 7.04906 22.6123 7.00241C22.6062 6.92661 22.6062 6.85664 22.6848 6.81C22.7574 6.76918 22.842 6.77501 22.9206 6.85081C23.0295 6.94993 23.1444 7.04906 23.229 7.16567C23.4346 7.43971 23.6221 7.72542 23.8216 8.01112C23.876 8.08692 23.9426 8.16272 24.003 8.23269C24.0212 8.25601 24.0453 8.26767 24.0635 8.29099C24.2691 8.60585 24.5956 8.77494 24.8979 8.97319C25.2305 9.19475 25.5571 9.42215 25.8836 9.64955C26.2585 9.91193 26.6092 10.2093 26.9297 10.5358C27.3348 10.9498 27.6855 11.3988 27.9516 11.9119C28.1632 12.32 28.3567 12.734 28.5139 13.1655C28.5623 13.3054 28.6349 13.4395 28.6953 13.5794C28.8102 13.8302 29.0098 13.9818 29.2577 14.0984C29.4814 14.1975 29.6991 14.3083 29.9228 14.4191C29.9833 14.4482 30.0377 14.4949 30.0861 14.5415C30.1043 14.559 30.1284 14.5823 30.1345 14.6056C30.2131 14.8389 30.1043 15.0313 29.8624 15.1012C29.6447 15.1596 29.4331 15.2295 29.2093 15.2703C28.9735 15.317 28.8284 15.4628 28.7437 15.6552C28.6167 15.9525 28.52 16.2616 28.4111 16.5648C28.3386 16.763 28.2479 16.9554 28.1753 17.1537C28.0544 17.4918 27.8669 17.795 27.6855 18.1041C27.486 18.4422 27.2441 18.7571 26.9841 19.0545C26.4097 19.7075 25.7203 20.2206 24.9342 20.6113C24.7952 20.6812 24.65 20.7337 24.5049 20.7862C24.2933 20.862 24.0877 20.9436 23.87 21.0019C23.4467 21.1127 23.0113 21.171 22.576 21.206C22.3825 21.2177 22.1829 21.2293 21.9894 21.2293C21.548 21.2293 21.1187 21.1768 20.6833 21.101C20.1149 21.0077 19.5828 20.8153 19.0688 20.5704C18.7786 20.4305 18.4823 20.2789 18.2102 20.1098C17.9804 19.964 17.7748 19.7833 17.5632 19.6142C17.3576 19.4451 17.1459 19.2819 16.9645 19.0953C16.7287 18.8562 16.5171 18.5997 16.3054 18.3431C16.1785 18.1915 16.0757 18.0224 15.9487 17.8767C15.7854 17.6842 15.6101 17.5093 15.344 17.4569C15.1747 17.4277 15.0235 17.4569 14.8844 17.5385C14.7937 17.591 14.7091 17.6434 14.6244 17.7017C14.183 18.0049 13.7416 18.3081 13.3546 18.6755C12.9434 19.0603 12.5927 19.4976 12.3629 20.0107C12.1331 20.5238 12.0001 21.0602 11.9941 21.6258C11.988 21.964 12.0001 22.2905 12.0969 22.617C12.1876 22.9202 12.3327 23.2059 12.4899 23.4858C12.6229 23.7249 12.8104 23.9231 12.9978 24.1155C13.3365 24.4654 13.7476 24.7277 14.2132 24.891C14.8361 25.1126 15.4891 25.2 16.1543 25.0717C16.5292 25.0018 16.8799 24.8677 17.2064 24.6694C17.5692 24.4479 17.8837 24.1796 18.1679 23.8706C18.3855 23.6316 18.573 23.3692 18.7363 23.0951C18.9418 22.7511 19.1172 22.3838 19.22 21.9931C19.2442 21.894 19.2744 21.8007 19.3107 21.7074C19.3893 21.4917 19.6372 21.445 19.7884 21.62C19.8912 21.7366 19.9879 21.8649 20.0786 21.9931C20.2238 22.1914 20.387 22.238 20.6168 22.1214C20.7377 22.0631 20.8587 22.0048 21.0038 22.0048C21.161 21.999 21.282 22.0514 21.3908 22.1506C21.4875 22.238 21.5783 22.3313 21.669 22.4246C21.7597 22.5237 21.8625 22.5529 21.9955 22.5354C22.2918 22.5004 22.5518 22.3546 22.8299 22.2672C23.0174 22.2089 23.1988 22.1389 23.4044 22.1506C23.4346 22.1506 23.4649 22.1506 23.489 22.1564C23.6523 22.1914 23.7007 22.308 23.5918 22.4246C23.4769 22.547 23.3439 22.652 23.2109 22.7628C22.9993 22.9377 22.7816 23.1126 22.5699 23.2875C22.5095 23.34 22.4429 23.3808 22.3885 23.4391C22.2978 23.5266 22.2071 23.6257 22.1164 23.719C21.9169 23.9231 21.7536 24.1563 21.6024 24.407C21.4634 24.6344 21.294 24.8502 21.1308 25.0659C20.9615 25.2875 20.7922 25.5032 20.6168 25.7131C20.3024 26.0746 19.9335 26.3895 19.5405 26.6752C19.2079 26.9142 18.839 27.1008 18.4762 27.2816C18.4037 27.3166 18.3251 27.3399 18.2525 27.3632C17.8897 27.4798 17.5208 27.5906 17.158 27.7189C16.8617 27.8238 16.6199 27.9871 16.505 28.2903C16.3901 28.5877 16.2147 28.8559 16.0273 29.1182C15.9487 29.2349 15.8217 29.3282 15.6947 29.4098C15.5556 29.5031 15.3863 29.4506 15.3319 29.2932C15.2835 29.1591 15.2533 29.0133 15.2351 28.8734C15.217 28.6751 15.1807 28.4885 15.084 28.3136C14.9933 28.1445 14.8482 28.0279 14.6909 27.923C14.4672 27.7772 14.2072 27.7189 13.9472 27.6722C13.6993 27.6314 13.4574 27.5673 13.2216 27.4623C13.0281 27.3749 12.8225 27.3107 12.629 27.2233C12.4234 27.1241 12.2178 27.0192 12.0243 26.9026C11.5829 26.646 11.1959 26.3253 10.8149 25.9872C10.6577 25.8472 10.5247 25.6723 10.3856 25.5149C10.2526 25.3633 10.1196 25.2117 10.0047 25.0484C9.80512 24.7627 9.62976 24.4654 9.46649 24.1563C9.30323 23.8415 9.18834 23.5149 9.08555 23.1768C9.03112 22.9844 8.95856 22.7919 8.92228 22.5995C8.87995 22.3838 8.85577 22.1622 8.84367 21.9407C8.82553 21.6666 8.80739 21.3926 8.81949 21.1244C8.84367 20.7162 8.84972 20.3022 8.99484 19.9057C9.10973 19.5967 9.18229 19.276 9.35161 18.9845C9.53301 18.658 9.72651 18.3373 9.96838 18.0399C10.3614 17.5501 10.821 17.1245 11.3047 16.7164C11.4922 16.5589 11.6917 16.4132 11.8731 16.2557C12.1573 16.0108 12.4415 15.7659 12.7076 15.5094C12.8406 15.3811 12.9253 15.2237 12.9071 15.0313C12.9011 14.9788 12.9011 14.9322 12.9071 14.8797C12.9434 14.6173 12.8164 14.4132 12.6532 14.2266C12.4597 13.9992 12.248 13.7835 12.0666 13.5503C11.7764 13.1713 11.4257 12.8506 11.0629 12.5532C10.8028 12.3433 10.5186 12.1684 10.2103 12.0168C9.65999 11.7486 9.07345 11.6845 8.47482 11.7194C8.06363 11.7428 7.67059 11.8361 7.29569 12.011C6.86032 12.2092 6.48542 12.4716 6.16494 12.8098C5.8626 13.1305 5.62677 13.4978 5.46351 13.9118C5.35466 14.2033 5.24582 14.489 5.21559 14.7922C5.17931 15.0779 5.16117 15.3636 5.17931 15.6552C5.20349 15.9525 5.21559 16.2557 5.28815 16.5473C5.43327 17.1362 5.6691 17.6726 6.1347 18.1041C6.29192 18.2498 6.46728 18.3606 6.64868 18.4714C6.9994 18.6871 7.39849 18.7746 7.79153 18.8795C7.82176 18.8854 7.84595 18.8912 7.87618 18.9029C8.14829 18.9728 8.21481 19.1711 8.03945 19.381C7.8399 19.62 7.83386 19.725 7.98503 19.999C8.13015 20.2556 8.15434 20.5121 8.00317 20.7803C7.94875 20.8736 7.90037 20.9669 7.85804 21.0661C7.75525 21.2993 7.80362 21.5208 7.89432 21.7424C7.9427 21.859 7.96689 21.9873 7.99712 22.1097C8.01526 22.1739 8.01526 22.2439 8.04549 22.3022C8.17248 22.582 8.17248 22.8736 8.17852 23.1709C8.17852 23.2176 8.15434 23.2992 8.1241 23.3109C8.06363 23.3284 7.97898 23.3284 7.93061 23.2934C7.82781 23.2176 7.72501 23.1243 7.6585 23.0193C7.42872 22.6637 7.16871 22.3313 6.87241 22.0339C6.66682 21.824 6.431 21.6433 6.20122 21.4625C5.9412 21.2585 5.6691 21.0719 5.40909 20.8736C5.12489 20.6579 4.84069 20.4363 4.57463 20.2031C4.33275 19.9932 4.10902 19.76 3.88529 19.5267C3.51644 19.1478 3.22619 18.7163 2.97827 18.2557C2.89361 18.1041 2.81501 17.9466 2.7364 17.795C2.65779 17.6434 2.59732 17.4802 2.50662 17.3286C2.37964 17.107 2.30103 16.868 2.21032 16.6347C2.14986 16.4773 2.07729 16.3257 1.98659 16.1799C1.95031 16.1158 1.87775 16.0633 1.80519 16.0342C1.50285 15.8884 1.18237 15.7659 0.886073 15.6144C0.595827 15.4686 0.30558 15.317 0.124176 15.0313C0.0455675 14.903 -0.0149011 14.7747 0.00323936 14.6231C0.00928617 14.5357 0.00323936 14.4424 0.00323936 14.3549C0.00928617 14.2616 0.0455673 14.2208 0.142316 14.2208C0.214878 14.2208 0.299533 14.215 0.366048 14.2441C0.771184 14.4132 1.20051 14.4074 1.62378 14.3957C1.78705 14.3899 1.92008 14.3083 2.02892 14.1975C2.17404 14.0459 2.25265 13.8651 2.31312 13.6727C2.37359 13.4745 2.43406 13.2762 2.52476 13.0897C2.69407 12.7223 2.88152 12.3667 3.12944 12.046C3.28666 11.8419 3.43178 11.6262 3.60714 11.4396C3.7825 11.2413 3.99413 11.0781 4.17554 10.8857C4.34485 10.7049 4.53835 10.565 4.74394 10.425C4.93139 10.2968 5.11884 10.1685 5.31234 10.046C5.65096 9.83613 6.02586 9.69036 6.40076 9.53876C6.72729 9.41049 7.07196 9.34635 7.41663 9.28221C7.65245 9.23557 7.89432 9.19475 8.13015 9.17726C8.59575 9.13645 9.06136 9.13061 9.52696 9.20641C9.98652 9.28221 10.4461 9.34635 10.8875 9.50378C11.3773 9.6787 11.855 9.87111 12.2843 10.151C12.5746 10.3434 12.8708 10.5242 13.143 10.7341C13.3727 10.909 13.5783 11.1131 13.7839 11.3113C14.0681 11.5853 14.3281 11.8827 14.564 12.2034C14.6788 12.3608 14.7998 12.5183 14.9207 12.6698C15.1989 13.0255 15.7491 13.0605 16.0696 12.7282C16.2933 12.4949 16.5534 12.3025 16.7892 12.0809C16.9585 11.9235 17.1218 11.7603 17.279 11.5912C17.4604 11.4046 17.6357 11.2122 17.799 11.0139C17.9441 10.839 18.0651 10.6524 18.192 10.4717C18.2586 10.3726 18.3311 10.2793 18.3855 10.1743C18.6274 9.63789 18.7907 9.09563 18.7604 8.51839Z" fill="black"/>
<path d="M73.3213 8.8449C73.1519 8.78076 72.9826 8.66415 72.8073 8.65832C71.6705 8.61167 70.5337 8.57669 69.4513 9.04314C68.6954 9.36966 67.8912 9.48045 67.0749 9.45129C65.6116 9.39882 64.6864 7.79538 65.4181 6.57093C65.9079 5.7488 66.6516 5.31733 67.6493 5.30567C69.0159 5.29401 70.3886 5.3698 71.743 5.22404C74.1134 4.96749 76.4777 5.18905 78.842 5.11325C79.5857 5.08993 80.3295 4.95583 81.0672 4.96166C82.0347 4.96749 83.0082 5.02579 83.9757 5.12492C85.2939 5.25902 86.5879 5.51557 87.8396 5.99952C88.6378 6.30855 89.0671 7.08403 88.2206 7.91199C87.4224 8.68164 86.4852 9.00816 85.3907 8.86239C84.5623 8.75161 83.7399 8.5417 82.9115 8.4076C82.0528 8.27349 81.1821 8.17437 80.3174 8.07525C80.1602 8.05776 79.9546 8.04609 79.8458 8.12772C79.6825 8.24434 79.5132 8.43092 79.4829 8.60584C79.4648 8.7108 79.6946 8.9207 79.8518 8.96151C80.0937 9.03148 80.3658 8.99067 80.6258 9.01399C81.1095 9.06064 81.5993 9.0723 82.0649 9.18308C82.9841 9.39882 83.371 9.86527 83.4617 10.7574C83.498 11.1014 83.5162 11.4454 83.5283 11.7894C83.5766 14.1683 83.625 16.5473 83.6613 18.9262C83.6855 20.3022 83.1473 21.5675 82.6757 22.8211C82.2887 23.8473 80.9584 24.2846 80.0937 23.6607C78.8904 22.7861 77.5903 22.9785 76.2721 23.0718C75.9153 23.0951 75.5646 23.2059 75.2139 23.1942C74.5125 23.1709 73.8655 23.3225 73.2305 23.5849C72.8436 23.7423 72.4384 23.8706 72.0333 23.9814C71.0235 24.2613 70.4974 24.0455 70.0862 23.1126C69.5843 21.9756 69.4029 20.7628 69.4332 19.5326C69.4694 18.0632 69.5783 16.5997 69.6025 15.1304C69.6146 14.3841 69.5359 13.6319 69.4573 12.8914C69.3243 11.597 70.2313 10.1801 71.5193 9.74866C71.8882 9.62621 72.2631 9.53875 72.6319 9.41631C72.8859 9.32885 73.1278 9.2064 73.3757 9.10145C73.3454 9.01399 73.3333 8.92653 73.3213 8.8449ZM76.6047 15.9875C77.2154 16.3199 77.8805 16.5822 78.4066 16.9962C79.2834 17.6901 79.0294 18.3314 78.2373 18.8154C76.9131 19.62 75.4558 19.4976 74.0045 19.1594C73.9743 19.1536 73.9441 19.1361 73.9199 19.1186C73.5027 18.7804 72.9645 18.483 72.9584 17.9C72.9524 17.3111 73.3938 16.9554 73.9199 16.7047C74.0952 16.6172 74.2585 16.5006 74.4278 16.3957C74.192 16.3024 74.0045 16.3373 73.8231 16.349C73.5934 16.3607 73.3696 16.3432 73.1398 16.3665C72.5231 16.419 72.1845 16.7805 72.2389 17.3577C72.2993 17.9758 72.39 18.5938 72.511 19.206C72.6803 20.0865 72.7347 20.1448 73.6538 20.1156C74.7543 20.0865 75.8549 19.9815 76.9554 19.9407C77.5056 19.9232 78.0559 19.9874 78.6122 19.9932C79.3923 19.999 79.5918 19.9349 79.7369 19.2352C79.9062 18.4189 79.9062 17.5676 79.9667 16.7338C80.003 16.2149 79.6885 15.9933 79.1867 15.9875C78.3038 15.9817 77.4391 15.9875 76.6047 15.9875ZM79.9909 12.4075C79.8518 12.3083 79.6281 12.0226 79.3922 12.0168C79.0536 12.0051 78.8299 12.2908 78.848 12.6582C78.8662 13.008 79.0355 13.2646 79.4104 13.3112C79.7006 13.3462 80.0151 12.9322 79.9909 12.4075ZM73.2487 12.7107C72.8436 12.6465 72.4626 12.5474 72.4203 13.0547C72.4082 13.2004 72.5956 13.4861 72.7226 13.4978C73.2729 13.5736 73.3394 13.2238 73.2487 12.7107ZM76.3991 12.4075C76.3386 12.3491 76.1995 12.0926 76.0242 12.0693C75.6674 12.0226 75.613 12.3433 75.6614 12.5882C75.7037 12.7981 75.8367 13.1363 75.9758 13.1538C76.3688 13.2179 76.4112 12.8972 76.3991 12.4075ZM76.8768 8.60001C76.5623 8.39594 76.3326 8.16271 76.2479 8.20352C76.0302 8.31431 75.873 8.54754 75.6916 8.72829C75.8549 8.83907 76.0363 9.04898 76.1814 9.03148C76.3809 9.00816 76.5563 8.80992 76.8768 8.60001Z" fill="black"/>
<path d="M162.917 18.0632C162.348 17.9874 161.913 17.9291 161.357 17.8533C161.302 18.6405 161.236 19.346 161.217 20.0515C161.205 20.8037 161.26 21.5558 161.254 22.308C161.248 22.6812 161.217 23.0601 161.121 23.4216C160.933 24.098 160.601 24.3312 159.954 24.3312C159.428 24.3312 158.871 23.9639 158.72 23.445C158.617 23.0893 158.581 22.7045 158.551 22.3313C158.472 21.3984 158.418 20.4597 158.333 19.5267C158.315 19.3577 158.212 19.1944 158.128 18.9728C157.45 19.3518 157.124 19.9291 156.803 20.4888C156.301 21.3692 155.564 22.0048 154.717 22.547C154.584 22.6345 154.439 22.7453 154.288 22.7569C154.046 22.7803 153.707 22.8153 153.568 22.687C153.429 22.5587 153.375 22.1914 153.465 22.0106C153.798 21.3343 154.131 20.6404 154.602 20.0573C155.793 18.5938 156.761 17.0021 157.686 15.3869C157.777 15.2237 157.855 15.0488 157.91 14.868C157.94 14.7572 157.916 14.629 157.916 14.4249C157.42 14.4249 156.948 14.4249 156.483 14.4249C156.066 14.4249 155.636 14.4599 155.231 14.4016C154.705 14.3199 154.179 14.1333 154.088 13.5386C153.986 12.8681 154.052 12.2034 154.693 11.7603C155.455 11.2355 156.314 10.9789 157.245 10.9673C157.765 10.9614 158.291 10.9906 158.805 10.9614C159.512 10.9206 160.22 10.8448 160.927 10.7807C161.738 10.7049 162.542 10.6174 163.328 10.944C164.011 11.2297 164.235 11.6495 163.872 12.2734C163.588 12.7573 163.195 13.1888 162.808 13.6086C162.251 14.2091 162.27 14.4949 162.947 14.9496C163.213 15.1304 163.449 15.3461 163.721 15.5152C164.301 15.8826 164.64 16.384 164.646 17.0837C165.686 17.3402 166.611 17.0604 167.53 16.7572C167.893 16.6347 168.117 15.9175 167.99 15.5327C167.857 15.1246 167.542 14.9613 166.992 15.0196C166.702 15.0488 166.412 15.1012 166.121 15.1071C165.347 15.1187 164.967 14.8389 164.773 14.1508C164.567 13.4103 164.725 12.8564 165.36 12.5649C166.025 12.2617 166.738 12.0226 167.446 11.8419C168.111 11.6728 168.268 11.597 168.298 10.9323C168.322 10.4017 168.341 9.85362 168.226 9.34052C168.05 8.53005 168.492 8.03444 169.03 7.56215C169.193 7.41639 169.405 7.31143 169.604 7.21231C170.536 6.74586 171.074 6.93244 171.418 7.87701C171.66 8.55337 171.818 9.25889 171.594 9.98189C171.521 10.221 171.455 10.4717 171.443 10.7166C171.4 11.4337 171.678 11.6961 172.416 11.6553C172.706 11.6378 172.997 11.5853 173.281 11.5329C174.339 11.3346 175.591 12.4774 175.325 13.801C175.216 14.3433 174.811 14.6173 174.333 14.7281C173.613 14.8913 172.87 14.9555 172.132 15.0488C171.878 15.0838 171.618 15.0954 171.31 15.1187C171.219 15.3928 171.098 15.6493 171.062 15.9175C170.995 16.5064 171.255 16.7805 171.884 16.8038C173.668 16.8738 175.452 16.9204 177.235 17.0021C178.366 17.0487 179.183 17.6434 179.775 18.518C180.144 19.0603 180.047 19.5034 179.576 19.9524C178.693 20.7978 177.61 20.862 176.492 20.5938C174.877 20.2031 173.251 19.9232 171.582 20.0282C170.584 20.0923 169.598 20.3372 168.607 20.3722C167.234 20.4188 165.898 20.6346 164.586 21.0019C164.047 21.1535 163.509 21.3284 163.05 20.8328C162.518 20.2556 162.27 19.6084 162.554 18.8446C162.632 18.6288 162.741 18.4364 162.917 18.0632Z" fill="black"/>
<path d="M98.9474 11.5387C98.5422 11.6553 98.2762 11.7369 97.998 11.8069C97.1938 12.0226 96.3533 11.632 96.0812 10.9206C95.7607 10.0635 96.1054 9.21807 96.9519 8.90321C98.0161 8.51255 99.1288 8.29099 100.272 8.29682C100.532 8.29682 100.792 8.31431 101.052 8.27933C102.128 8.14522 102.164 8.06359 102.225 7.0199C102.273 6.18611 102.715 5.4631 103.259 4.85088C103.767 4.2853 104.776 4.4369 105.182 5.11909C105.466 5.59721 105.659 6.14529 105.786 6.68172C106.089 7.94115 106.264 8.10441 107.631 8.02861C108.114 7.99945 108.598 7.94698 109.076 7.88867C109.898 7.78372 110.63 8.0461 111.301 8.43675C112.323 9.03149 112.287 10.1685 111.271 10.7632C110.624 11.1422 109.916 11.1655 109.197 11.1247C107.897 11.0489 107.794 11.0839 107.262 12.2209C106.379 14.0984 106.476 14.18 107.891 15.4686C109.892 17.2761 112.141 18.7571 114.596 19.9349C115.237 20.2439 115.878 20.5529 116.465 20.9436C117.438 21.5908 117.287 22.7628 116.205 23.2526C116.114 23.2934 116.03 23.3458 115.939 23.3633C114.391 23.6257 112.843 23.6432 111.301 23.3284C111.047 23.2759 110.757 23.066 110.612 22.8502C109.42 21.0777 107.715 19.7308 106.397 18.0691C106.185 17.8009 105.901 17.5735 105.629 17.3577C104.94 16.8155 104.583 16.8446 104.002 17.5385C102.896 18.862 101.65 20.0457 100.205 21.0194C98.8325 21.9465 97.3329 22.5995 95.6095 22.6403C95.3858 22.6462 95.1439 22.6403 94.9383 22.5704C94.4183 22.3954 93.8559 22.238 93.8136 21.5617C93.7713 20.8795 93.8378 20.2323 94.5513 19.8533C95.2407 19.4918 95.9481 19.1886 96.7705 19.2527C97.5868 19.3168 98.3064 19.0661 98.9474 18.5822C99.8483 17.9116 100.767 17.2703 101.65 16.5822C102.055 16.2674 102.406 15.8417 102.297 15.2937C102.188 14.7514 101.765 14.4599 101.203 14.3491C100.852 14.2791 100.513 14.1858 100.163 14.1042C99.0683 13.8651 98.391 13.2354 98.8627 12.1742C98.9292 12.0343 98.9111 11.8652 98.9474 11.5387ZM102.479 11.3579C102.829 12.1159 103.362 12.2792 103.894 12.3725C104.238 12.4366 104.583 12.0926 104.613 11.7428C104.656 11.3229 104.347 11.1597 104.015 11.1655C103.549 11.1714 103.083 11.2821 102.479 11.3579Z" fill="black"/>
<path d="M52.7801 18.7279C54.576 18.588 56.0937 18.4422 57.6115 18.3664C58.2464 18.3315 58.9115 18.3548 59.5343 18.4889C60.5139 18.7046 60.907 19.5034 60.4414 20.3664C59.752 21.6491 58.7362 22.6345 57.3212 23.1884C57.2305 23.2234 57.1217 23.2117 57.0431 23.2584C55.8942 23.9639 54.6969 23.8065 53.4815 23.4508C52.3386 23.1185 51.1777 22.8269 50.0348 22.4946C48.8617 22.1506 47.6947 21.7774 46.5277 21.4276C45.9411 21.2526 45.3546 21.0661 44.7559 20.9203C42.4098 20.3489 41.0009 18.2965 41.4846 16.0283C41.7265 14.903 42.0953 13.7952 42.4098 12.6815C42.4582 12.5008 42.5186 12.32 42.5549 12.1334C42.6758 11.5678 42.44 11.2996 41.8535 11.3346C41.66 11.3463 41.4786 11.4221 41.2851 11.4571C40.3418 11.6087 39.5557 11.288 39.0961 10.565C38.7636 10.0344 38.8543 9.06064 39.3561 8.46008C40.0999 7.57382 41.019 6.99075 42.2586 6.95576C43.7038 6.91495 45.1006 7.17733 46.4793 7.51551C47.8156 7.84786 48.2208 9.21224 47.3198 10.2443C46.5398 11.1364 45.8202 12.0576 45.4211 13.1713C45.1974 13.7893 45.0099 14.4191 44.8648 15.0604C44.6532 15.9933 45.6327 17.0254 46.5277 17.3519C47.3742 17.6609 48.251 17.9175 49.1338 18.0982C50.4218 18.3781 51.734 18.553 52.7801 18.7279Z" fill="black"/>
<path d="M142.606 21.3634C141.868 21.1418 141.118 20.9553 140.399 20.6871C139.34 20.2964 138.3 19.8649 137.266 19.4218C135.785 18.7921 134.473 17.9466 133.777 16.4656C133.632 16.1624 133.572 15.8068 133.548 15.4686C133.445 13.8768 133.451 12.2734 133.239 10.6932C133.118 9.78365 133.445 9.10729 133.892 8.4251C134.57 7.39307 135.344 7.33476 136.226 8.23852C136.45 8.46591 136.632 8.7283 136.801 8.99651C137.067 9.41049 137.43 9.59124 137.938 9.58541C138.784 9.57375 139.625 9.60873 140.471 9.61456C141.511 9.62039 142.334 10.1976 142.485 11.0373C142.618 11.7603 142.352 12.2734 141.608 12.4891C140.87 12.7048 140.096 12.8098 139.334 12.9672C138.609 13.113 137.847 13.1713 137.17 13.4278C136.323 13.7485 136.238 14.3374 136.885 14.9671C137.297 15.3636 137.756 15.731 138.252 16.0167C139.334 16.6406 140.405 17.2061 141.783 17.1478C143.029 17.0953 144.293 17.3694 145.551 17.521C145.835 17.556 146.119 17.6668 146.367 17.8067C147.147 18.2265 147.25 18.9728 146.621 19.6025C145.538 20.6929 144.238 21.3109 142.606 21.3634Z" fill="black"/>
<path d="M129.315 7.03157C130.137 7.12486 130.839 7.42223 131.244 8.14523C131.649 8.87407 131.353 9.53294 130.917 10.1568C130.881 10.2093 130.839 10.2676 130.784 10.2909C129.115 11.1014 129.327 12.6757 129.267 14.0517C129.17 16.3257 129.242 18.5997 129.539 20.8678C129.623 21.5034 129.484 22.1797 129.345 22.8153C129.279 23.1243 129.006 23.4217 128.759 23.6491C128.347 24.0281 127.912 23.9814 127.465 23.6141C127.029 23.2642 126.872 22.8036 126.842 22.2905C126.727 20.1681 126.636 18.0458 126.497 15.9292C126.431 14.9672 126.304 14.0051 126.134 13.0605C125.995 12.2792 125.929 12.2967 125.118 12.2092C124.707 12.1626 124.284 12.081 123.903 11.9235C123.141 11.6087 122.657 10.8507 122.742 10.1335C122.839 9.3172 123.123 8.64667 124.09 8.39595C125.276 8.09276 126.431 7.66129 127.61 7.32894C128.166 7.17151 128.753 7.12486 129.315 7.03157Z" fill="black"/>
<path d="M160.166 6.82165C161.055 6.75752 161.81 6.98491 162.506 7.65544C163.104 8.23268 162.971 9.27055 162.258 9.55042C160.855 10.0927 159.392 10.3725 157.892 9.9644C157.203 9.77782 156.876 9.20641 156.925 8.50089C156.973 7.81287 157.59 7.11902 158.303 6.97325C158.648 6.90328 159.005 6.85664 159.361 6.82165C159.621 6.80416 159.882 6.82165 160.166 6.82165Z" fill="black"/>
</svg>
