<svg width="24" height="22" viewBox="0 0 24 22" fill="none" xmlns="http://www.w3.org/2000/svg">
<path d="M8.625 21.625L12.4062 17.875H23.875V21.625H8.625ZM2 19.75H3.53125L15.125 8.1875L13.5625 6.625L2 18.2188V19.75ZM19.125 6.8125L14.9062 2.625L16.5625 1C16.9167 0.645833 17.3542 0.46875 17.875 0.46875C18.3958 0.46875 18.8438 0.645833 19.2188 1L20.75 2.53125C21.1042 2.90625 21.2917 3.34875 21.3125 3.85875C21.3333 4.36958 21.1562 4.80208 20.7812 5.15625L19.125 6.8125ZM17.7812 8.1875L4.34375 21.625H0.125V17.4062L13.5625 3.96875L17.7812 8.1875Z" fill="white"/>
</svg>
