<svg width="28" height="29" viewBox="0 0 28 29" fill="none" xmlns="http://www.w3.org/2000/svg">
<path d="M8.19048 0.523705C6.69841 0.587197 5.68254 0.825292 4.79365 1.1745C3.88889 1.53958 3.11111 2.01577 2.33333 2.79355C1.55556 3.57132 1.07937 4.3491 0.730159 5.26974C0.380952 6.15863 0.15873 7.1745 0.0793651 8.66656C0.015873 10.1586 0 10.6348 0 14.4285C0.015873 18.2221 0.031746 18.6983 0.0952381 20.1904C0.15873 21.6824 0.396825 22.6983 0.746032 23.5713C1.11111 24.492 1.5873 25.2697 2.36508 26.0475C3.14286 26.8253 3.92063 27.3015 4.84127 27.6507C5.73016 27.9999 6.74603 28.2221 8.2381 28.3015C9.73016 28.365 10.2063 28.3808 14 28.3808C17.7937 28.365 18.2698 28.365 19.7619 28.2856C21.254 28.2221 22.2698 27.984 23.1587 27.6348C24.0794 27.2697 24.8571 26.7935 25.6349 26.0158C26.4127 25.238 26.8889 24.4602 27.2381 23.5396C27.5873 22.6507 27.8095 21.6348 27.8889 20.1428C27.9524 18.6507 27.9683 18.1745 27.9683 14.3808C27.9524 10.5872 27.9524 10.111 27.873 8.61894C27.8095 7.12688 27.5714 6.11101 27.2222 5.22212C26.8571 4.30148 26.381 3.5237 25.6032 2.74593C24.8254 1.96815 24.0476 1.49196 23.127 1.14275C22.2381 0.793546 21.2222 0.571324 19.7302 0.491959C18.2222 0.44434 17.746 0.428467 13.9524 0.428467C10.1587 0.44434 9.68254 0.460213 8.19048 0.523705ZM8.34921 25.7777C6.98413 25.7142 6.25397 25.492 5.7619 25.3015C5.11111 25.0475 4.65079 24.7459 4.15873 24.2539C3.66667 23.7618 3.36508 23.3015 3.11111 22.6507C2.92063 22.1586 2.68254 21.4126 2.61905 20.0634C2.55556 18.5872 2.53968 18.1428 2.52381 14.4126C2.52381 10.6824 2.52381 10.238 2.5873 8.7618C2.65079 7.39672 2.87302 6.66656 3.06349 6.1745C3.31746 5.5237 3.61905 5.06339 4.11111 4.57132C4.60318 4.07926 5.06349 3.77767 5.71429 3.5237C6.20635 3.33323 6.95238 3.11101 8.30159 3.03164C9.77778 2.96815 10.2222 2.95228 13.9365 2.9364C17.6667 2.9364 18.1111 2.9364 19.5873 2.9999C20.9524 3.06339 21.6825 3.28561 22.1746 3.47609C22.8254 3.73005 23.3016 4.03164 23.7778 4.5237C24.2698 5.01577 24.5714 5.47609 24.8254 6.12688C25.0159 6.61894 25.2381 7.36497 25.3175 8.71418C25.381 10.1904 25.3968 10.6348 25.4127 14.3491C25.4286 18.0793 25.4127 18.5237 25.3492 19.9999C25.2857 21.365 25.0635 22.0951 24.873 22.6031C24.619 23.2539 24.3175 23.7142 23.8254 24.2062C23.3333 24.6983 22.873 24.9999 22.2222 25.2539C21.7302 25.4443 20.9841 25.6666 19.6349 25.7459C18.1587 25.8094 17.7143 25.8253 13.9841 25.8412C10.2698 25.857 9.8254 25.8412 8.34921 25.7777ZM19.746 6.9364C19.746 7.85704 20.5079 8.60307 21.4286 8.60307C22.3492 8.60307 23.1111 7.84117 23.0952 6.92053C23.0952 5.9999 22.3333 5.25386 21.4127 5.25386C20.4921 5.25386 19.746 6.01577 19.746 6.9364ZM6.80952 14.4126C6.80952 18.3808 10.0317 21.5713 14 21.5713C17.9524 21.5554 21.1587 18.3491 21.1587 14.3808C21.1429 10.4285 17.9365 7.20624 13.9683 7.22212C10 7.23799 6.79365 10.4602 6.80952 14.4126ZM9.31746 14.4126C9.31746 11.8412 11.3968 9.7618 13.9683 9.74593C16.5397 9.74593 18.6349 11.8253 18.6349 14.3967C18.6349 16.9681 16.5556 19.0634 13.9841 19.0634C11.4127 19.0634 9.33333 16.984 9.31746 14.4126Z" fill="white"/>
</svg>
