<svg id="footer_ico" xmlns="http://www.w3.org/2000/svg" width="90" height="30" viewBox="0 0 90 30">
  <rect id="사각형_33" data-name="사각형 33" width="30" height="30" fill="none"/>
  <rect id="사각형_34" data-name="사각형 34" width="30" height="30" transform="translate(30)" fill="none"/>
  <rect id="사각형_35" data-name="사각형 35" width="30" height="30" transform="translate(60)" fill="none"/>
  <g id="insta" transform="translate(3.293 3.3)">
    <g id="그룹_13" data-name="그룹 13" transform="translate(0 0)">
      <path id="SVGID_1_" d="M13.157,9.08a8.418,8.418,0,0,0-2.844.545,5.9,5.9,0,0,0-2.06,1.355,5.616,5.616,0,0,0-1.342,2.073A8.758,8.758,0,0,0,6.366,15.9C6.313,17.145,6.3,17.544,6.3,20.72s.027,3.574.08,4.823a8.263,8.263,0,0,0,.545,2.83A5.828,5.828,0,0,0,8.28,30.447a5.616,5.616,0,0,0,2.073,1.342,8.758,8.758,0,0,0,2.844.545c1.249.053,1.648.066,4.823.066s3.574-.013,4.823-.08a8.417,8.417,0,0,0,2.844-.545A5.828,5.828,0,0,0,27.76,30.42,5.616,5.616,0,0,0,29.1,28.347a8.758,8.758,0,0,0,.545-2.844c.053-1.249.066-1.648.066-4.823s-.013-3.574-.08-4.823a8.418,8.418,0,0,0-.545-2.844,5.828,5.828,0,0,0-1.355-2.073A5.616,5.616,0,0,0,25.66,9.6a8.758,8.758,0,0,0-2.844-.545C21.554,9.013,21.156,9,17.98,9s-3.574.027-4.823.08m.133,21.141a6.489,6.489,0,0,1-2.166-.4A3.908,3.908,0,0,1,8.9,27.6a6.475,6.475,0,0,1-.412-2.166c-.053-1.236-.066-1.608-.08-4.73s0-3.495.053-4.73a6.489,6.489,0,0,1,.4-2.166,3.908,3.908,0,0,1,2.219-2.219,6.841,6.841,0,0,1,2.166-.412c1.236-.053,1.608-.066,4.717-.08s3.495,0,4.73.053a6.489,6.489,0,0,1,2.166.4,3.517,3.517,0,0,1,1.342.877,3.622,3.622,0,0,1,.877,1.342,6.841,6.841,0,0,1,.412,2.166c.053,1.236.066,1.608.08,4.717s0,3.495-.053,4.73a6.671,6.671,0,0,1-.4,2.179A3.908,3.908,0,0,1,24.9,29.782a6.841,6.841,0,0,1-2.166.412c-1.236.053-1.608.066-4.73.08s-3.481,0-4.717-.053M22.83,14.448a1.4,1.4,0,1,0,1.4-1.409,1.406,1.406,0,0,0-1.4,1.409M12,20.707a6.006,6.006,0,1,0,5.993-6.019A6,6,0,0,0,12,20.707m2.1,0A3.9,3.9,0,1,1,18.007,24.6,3.91,3.91,0,0,1,14.1,20.707" transform="translate(-6.3 -9)" fill="#666"/>
    </g>
  </g>
  <g id="facebook" transform="translate(39.04 3.3)">
    <g id="그룹_20" data-name="그룹 20" transform="translate(0 0)">
      <path id="패스_34" data-name="패스 34" d="M36.884,38.9V27.725H33.2V23.858h3.684V19.687A4.3,4.3,0,0,1,40.995,15.5h4.126V19h-1.9c-.944,0-2.192.761-2.192,1.705v3.167H44.74v3.852H41.025V38.9Z" transform="translate(-33.2 -15.5)" fill="#666"/>
    </g>
  </g>
  <path id="naver" d="M108.23,92.16h6.887s6.25,9.673,6.44,9.933.209,0,.209,0a17.073,17.073,0,0,1-.6-4.561V92.16h6.86v17.92h-6.86s-6.124-9.159-6.31-9.411-.209,0-.209,0a12.246,12.246,0,0,1,.444,3.589v5.822H108.23Z" transform="translate(-43.127 -86.12)" fill="#666"/>
</svg>
