<svg width="129" height="44" viewBox="0 0 129 44" fill="none" xmlns="http://www.w3.org/2000/svg">
<path d="M108.23 36.4501C107.93 36.5101 107.63 36.6201 107.33 36.6201C106.62 36.6101 105.92 36.5301 105.21 36.5101C104.25 36.4801 103.28 35.5601 103.3 34.6201C103.32 33.8901 103.4 33.1701 103.42 32.4401C103.44 31.6301 103.22 31.3001 102.42 31.2401C101.82 31.2001 101.18 31.3101 100.59 31.4501C99.63 31.6901 99.82 32.5601 100.12 33.4101C100.5 34.4901 101.49 34.9801 102.27 35.6801C102.43 35.8301 102.53 36.0401 102.66 36.2301C102.45 36.3701 102.24 36.6201 102.03 36.6201C101.03 36.6201 100.02 36.6301 99.04 36.4701C98.62 36.4001 98.26 35.9301 97.88 35.6301C97.09 34.9701 96.36 34.2101 95.49 33.6801C95.1 33.4401 94.41 33.5701 93.89 33.6701C93.43 33.7601 93.17 34.1501 93.21 34.6501C93.25 35.1201 93.28 35.5901 93.92 35.6901C94.08 35.7201 94.19 36.0001 94.33 36.1601C94.14 36.2401 93.96 36.3501 93.77 36.3901C93.51 36.4501 93.24 36.4901 92.98 36.4901C92.35 36.4901 91.72 36.4701 91.09 36.4601C90.95 36.4601 90.82 36.4301 90.68 36.4501C89.96 36.5101 89.62 36.1901 89.69 35.6301C89.79 34.8401 89.92 34.0501 90.11 33.2701C90.3 32.5001 90.72 31.7501 90.76 30.9801C90.81 30.2301 90.56 29.4401 90.36 28.6901C90.13 27.8401 89.71 27.0401 89.53 26.1901C89.26 24.9601 89.2 23.7201 90.06 22.6201C90.45 22.1201 90.67 21.4901 91.09 21.0301C91.94 20.1101 92.65 19.1201 93.99 18.6401C95.01 18.2801 96.02 18.1901 97.03 17.9801C97.09 17.9701 97.16 17.9601 97.22 17.9801C98.28 18.3901 99.39 18.4401 100.51 18.5301C101.04 18.5701 101.57 18.6901 102.11 18.7201C103.07 18.7801 104.03 18.8801 104.98 18.8401C106.34 18.7801 107.71 18.6601 109.06 18.4701C110.36 18.2801 111.61 18.3701 112.88 18.6501C113.84 18.8601 114.84 19.1301 115.8 19.0701C116.9 19.0001 117.91 19.1201 118.83 19.6401C120.68 20.6901 122.54 21.7101 124.2 23.0601C124.63 23.4101 124.63 23.9801 124.07 24.2701C123.28 24.6901 122.43 24.9901 121.58 25.2801C120.34 25.7101 119.03 25.9601 117.85 26.5101C116.58 27.1001 115.44 27.9901 114.21 28.6801C113.56 29.0501 112.96 29.4201 112.56 30.0801C112.25 30.5901 112.17 31.0201 112.48 31.5701C112.79 32.1201 113.07 32.7201 113.22 33.3301C113.44 34.2101 114.06 34.6601 114.77 35.0801C115.11 35.2801 115.46 35.4401 115.79 35.6601C115.95 35.7701 116.14 35.9701 116.13 36.1101C116.12 36.2601 115.9 36.5001 115.74 36.5201C115.23 36.6001 114.72 36.6001 114.2 36.6101C113.95 36.6101 113.7 36.5101 113.46 36.5301C112.27 36.6601 111.46 36.0901 110.65 35.2901C109.94 34.5801 109.06 34.0501 108.23 33.4801C108.03 33.3401 107.71 33.2601 107.49 33.3101C107.06 33.4101 106.49 33.4001 106.44 34.0601C106.39 34.7101 106.78 35.2501 107.41 35.5401C107.73 35.6901 107.99 35.9801 108.28 36.2001C108.27 36.2701 108.25 36.3601 108.23 36.4501Z" fill="#1D1D1D"/>
<path d="M12.0099 10.9299C12.8299 10.4799 13.5399 10.2499 13.8499 9.52991C14.3399 8.37991 15.3299 7.92991 16.4299 7.64991C16.7499 7.56991 17.1199 7.73991 17.4699 7.74991C19.0799 7.79991 20.6999 8.01991 21.9399 9.05991C23.0799 10.0199 24.2199 11.0099 24.8499 12.4899C25.4599 13.9099 25.7399 15.2999 25.6199 16.8499C25.5099 18.2399 25.1999 19.4999 24.5599 20.7399C24.0699 21.6899 24.0299 22.6699 24.7299 23.6999C25.2299 24.4399 25.3299 25.4699 25.5799 26.3699C25.9799 27.8699 25.5899 29.3399 25.3199 30.8099C25.2999 30.9099 25.2499 31.0099 25.1999 31.0899C24.6499 31.9999 24.2099 33.0199 23.4999 33.7899C22.7099 34.6499 21.7299 35.3599 20.5599 35.7599C19.1299 36.2499 17.6699 36.4699 16.1899 36.4999C13.3499 36.5499 10.5199 36.5199 7.67993 36.5099C7.45993 36.5099 7.22993 36.4599 7.00993 36.4299C6.36993 36.3299 6.13993 35.9899 6.13993 35.3099C6.15993 26.6699 6.15993 18.0299 6.14993 9.39991C6.14993 9.04991 6.09993 8.69991 6.05993 8.34991C6.02993 7.89991 6.50993 7.39991 7.12993 7.37991C7.89993 7.35991 8.66993 7.46991 9.43993 7.46991C9.86993 7.46991 10.3099 7.41991 10.7299 7.33991C11.6199 7.16991 12.1099 7.69991 11.9999 8.60991C11.9099 9.31991 11.9999 10.0399 12.0099 10.9299ZM15.3099 24.4599C15.3099 24.4799 15.3099 24.4999 15.3099 24.5199C14.7199 24.5199 14.1299 24.5199 13.5399 24.5199C12.5299 24.5199 12.1299 24.8199 11.9899 25.7899C11.9299 26.2399 12.0099 26.7099 12.0299 27.1599C12.0499 27.4899 12.0899 27.8199 12.0799 28.1499C12.0699 28.5399 11.9599 28.9299 11.9799 29.3199C12.0199 30.4499 12.5099 31.0899 13.4499 31.0899C14.9899 31.0899 16.5499 31.1299 18.0499 30.8799C18.7299 30.7599 19.5099 30.0899 19.8599 29.4599C20.2099 28.8299 20.1599 27.9299 20.1599 27.1499C20.1599 25.9099 19.1399 24.7899 17.9299 24.6399C17.0599 24.5499 16.1799 24.5199 15.3099 24.4599ZM15.0599 13.1899C15.0599 13.2199 15.0499 13.2599 15.0499 13.2899C14.4799 13.2899 13.9199 13.2899 13.3499 13.2899C12.5699 13.2999 12.0999 13.7499 12.0999 14.5199C12.0899 15.5699 12.0999 16.6299 12.0999 17.6799C12.0999 18.6599 12.4599 18.9999 13.4699 18.9699C14.6999 18.9299 15.9399 18.8699 17.1699 18.8499C18.6299 18.8299 19.6599 18.0599 20.0099 16.6699C20.3899 15.1899 19.6299 13.8399 18.1499 13.5499C17.1299 13.3499 16.0899 13.2999 15.0599 13.1899Z" fill="#1D1D1D"/>
<path d="M67.22 22.5599C67.22 18.4999 67.22 14.4399 67.22 10.3899C67.22 9.64993 67.22 8.90993 67.22 8.16993C67.22 7.62993 67.72 7.20993 68.25 7.22993C69.44 7.27993 70.63 7.32993 71.82 7.34993C72.79 7.36993 73.16 7.85993 72.94 8.79993C72.85 9.19993 72.78 9.61993 72.79 10.0299C72.8 10.2699 72.94 10.6599 73.1 10.6999C73.32 10.7599 73.68 10.6399 73.87 10.4699C74.44 9.95993 74.97 9.40993 75.5 8.85993C76.52 7.79993 77.8 7.65993 79.16 7.77993C79.63 7.81993 80.15 7.76993 80.58 7.93993C82.19 8.54993 83.79 9.31993 84.82 10.7099C85.65 11.8199 86.33 13.0599 86.55 14.5299C86.88 16.6899 86.58 18.6799 85.53 20.5899C85.01 21.5299 84.39 22.3499 83.55 23.0199C83.03 23.4299 83.03 23.8899 83.45 24.5399C84.47 26.0999 85.14 27.7899 85.24 29.6599C85.35 31.7899 86.01 33.6699 87.38 35.3199C87.56 35.5399 87.69 36.0799 87.57 36.1999C87.32 36.4399 86.89 36.5999 86.54 36.6099C85.47 36.6299 84.41 36.5299 83.34 36.5199C82.52 36.5099 81.83 36.3399 81.46 35.4999C81.04 34.5699 80.44 33.6899 80.18 32.7199C79.93 31.7899 80.05 30.7799 79.94 29.8099C79.76 28.2199 79.11 26.8699 78.02 25.6599C76.82 24.3199 75.31 24.3899 73.78 24.4399C73.51 24.4499 73.08 24.8199 73.03 25.0799C72.86 25.9299 72.79 26.7999 72.77 27.6599C72.75 28.4499 72.87 29.2399 72.88 30.0299C72.9 31.6499 72.89 33.2699 72.88 34.8899C72.88 35.1999 72.79 35.4999 72.76 35.8099C72.72 36.3199 72.37 36.4899 71.95 36.4999C70.69 36.5299 69.43 36.5199 68.17 36.4999C67.52 36.4899 67.21 36.0699 67.21 35.2499C67.21 33.0799 67.21 30.9199 67.21 28.7499C67.22 26.6799 67.22 24.6199 67.22 22.5599ZM75.42 13.6699C74.92 13.6699 74.4 13.6099 73.91 13.6899C73.59 13.7499 73.15 13.9599 73.04 14.2199C72.84 14.6699 72.81 15.2099 72.78 15.7199C72.74 16.4099 72.81 17.1099 72.76 17.7999C72.72 18.3499 73.08 18.9599 73.6 18.9599C75.32 18.9699 77.05 18.9999 78.77 18.9499C80.1 18.9099 80.58 18.5199 80.95 17.2399C81.06 16.8499 81.08 16.4299 81.08 16.0199C81.1 14.7799 79.96 13.6599 78.71 13.6599C77.62 13.6699 76.52 13.6699 75.42 13.6699Z" fill="#1D1D1D"/>
<path d="M45.6501 30.51C45.6501 28.83 45.6501 27.15 45.6501 25.47C45.6501 19.75 45.6501 14.03 45.6501 8.30997C45.6501 7.62997 45.9001 7.36997 46.5801 7.36997C47.6701 7.35997 48.7701 7.36997 49.8601 7.36997C50.0901 7.36997 50.3401 7.38997 50.5401 7.31997C51.0701 7.11997 51.7001 7.71997 51.7001 8.32997C51.7001 11.31 51.7001 14.3 51.7001 17.28C51.7001 17.5 51.5901 17.73 51.6301 17.93C51.8201 18.93 52.3701 19.18 53.6101 18.98C54.1301 18.89 54.6701 18.97 55.2001 18.96C56.4301 18.93 57.6601 18.94 58.8801 18.82C59.4501 18.76 59.6801 18.28 59.5701 17.66C59.5101 17.35 59.6401 17.01 59.6401 16.69C59.6501 14 59.6401 11.31 59.6401 8.61997C59.6401 7.61997 60.1801 7.24997 61.1901 7.34997C62.2001 7.43997 63.2201 7.36997 64.2401 7.37997C65.3301 7.37997 65.5701 7.66997 65.4601 8.72997C65.4201 9.13997 65.5401 9.55997 65.5401 9.96997C65.5401 10.44 65.4501 10.92 65.4501 11.39C65.4401 18.3 65.4501 25.22 65.4501 32.13C65.4501 33.27 65.4601 34.41 65.4501 35.55C65.4401 36.35 64.9301 36.66 64.1401 36.57C63.1801 36.47 62.2101 36.52 61.2501 36.52C59.8201 36.51 59.5501 36.28 59.5301 34.84C59.5201 34.22 59.6201 33.6 59.6401 32.98C59.6601 32.31 59.6501 31.63 59.6501 30.95C59.6501 29.37 59.6501 27.8 59.6501 26.22C59.6501 24.56 59.2001 24.59 57.8901 24.45C56.7601 24.32 55.5901 24.52 54.4401 24.53C53.8601 24.54 53.2801 24.47 52.7001 24.41C52.1801 24.35 51.9001 24.66 51.7701 25.07C51.6401 25.48 51.5801 25.92 51.5901 26.35C51.6101 27.71 51.6901 29.07 51.7001 30.42C51.7001 31.65 51.6201 32.88 51.5901 34.11C51.5801 34.64 51.6501 35.18 51.5701 35.69C51.4401 36.52 51.2101 36.58 50.3601 36.54C49.2201 36.48 48.0801 36.49 46.9401 36.53C45.8401 36.57 45.6001 36.36 45.6401 35.2C45.6801 33.62 45.6501 32.07 45.6501 30.51Z" fill="#1D1D1D"/>
<path d="M27.3599 21.7399C27.3599 17.2399 27.3599 12.7399 27.3599 8.2499C27.3599 7.4499 27.8099 7.2299 28.5999 7.3299C29.5699 7.4499 30.5799 7.4199 31.5599 7.3299C32.5699 7.2399 33.0499 7.7299 32.8899 8.7199C32.7999 9.2899 32.8999 9.8999 32.9699 10.4899C32.9899 10.6399 33.2499 10.8799 33.3699 10.8699C33.6099 10.8399 33.8799 10.6999 34.0399 10.5199C34.8099 9.6399 35.5099 8.6999 36.3199 7.8499C36.5799 7.5699 37.0799 7.3899 37.4799 7.3799C39.3499 7.3299 41.2199 7.3499 43.0899 7.3599C43.8499 7.3599 44.0999 7.7799 44.0599 8.5599C44.0199 9.5299 44.1199 10.5099 44.1299 11.4899C44.1299 11.8999 44.0999 12.3199 43.9999 12.7199C43.8799 13.2099 43.4599 13.2899 43.0099 13.2799C40.1299 13.2799 37.2499 13.2899 34.3699 13.2699C33.2699 13.2699 33.0499 13.4999 32.9599 14.3899C32.8399 15.5399 32.8599 16.7099 32.9599 17.8599C33.0299 18.6999 33.4399 18.9499 34.3199 18.9499C36.5899 18.9499 38.8599 18.9499 41.1299 18.9499C41.9999 18.9499 42.2299 19.1999 42.2499 20.0499C42.2799 21.1299 42.3299 22.2199 42.3699 23.2999C42.3999 24.0699 41.7299 24.6099 40.9799 24.4299C40.7999 24.3899 40.6099 24.3699 40.4199 24.3699C39.1399 24.4099 37.8699 24.4599 36.5899 24.4899C35.8299 24.5099 35.0699 24.4599 34.3099 24.4999C33.2999 24.5599 32.9099 24.9999 32.9099 25.9899C32.9099 27.0999 32.8999 28.2199 32.9199 29.3299C32.9299 29.7399 32.9699 30.1599 33.0599 30.5599C33.1799 31.0699 33.5799 31.1799 34.0699 31.1799C36.9099 31.1699 39.7399 31.1799 42.5799 31.1699C43.8399 31.1699 44.1699 31.5399 44.1399 32.7499C44.1199 33.5899 44.1399 34.4299 44.1299 35.2699C44.1199 36.1499 43.7899 36.4699 42.9199 36.4699C38.0599 36.4699 33.1999 36.4699 28.3499 36.4699C27.5999 36.4699 27.3599 36.2299 27.3599 35.4599C27.3499 30.9099 27.3599 26.3199 27.3599 21.7399Z" fill="#1D1D1D"/>
</svg>
