<svg width="129" height="44" viewBox="0 0 129 44" fill="none" xmlns="http://www.w3.org/2000/svg">
<path d="M108.23 36.4501C107.93 36.5101 107.63 36.6201 107.33 36.6201C106.62 36.6101 105.92 36.5301 105.21 36.5101C104.25 36.4801 103.28 35.5601 103.3 34.6201C103.32 33.8901 103.4 33.1701 103.42 32.4401C103.44 31.6301 103.22 31.3001 102.42 31.2401C101.82 31.2001 101.18 31.3101 100.59 31.4501C99.63 31.6901 99.82 32.5601 100.12 33.4101C100.5 34.4901 101.49 34.9801 102.27 35.6801C102.43 35.8301 102.53 36.0401 102.66 36.2301C102.45 36.3701 102.24 36.6201 102.03 36.6201C101.03 36.6201 100.02 36.6301 99.04 36.4701C98.62 36.4001 98.26 35.9301 97.88 35.6301C97.09 34.9701 96.36 34.2101 95.49 33.6801C95.1 33.4401 94.41 33.5701 93.89 33.6701C93.43 33.7601 93.17 34.1501 93.21 34.6501C93.25 35.1201 93.28 35.5901 93.92 35.6901C94.08 35.7201 94.19 36.0001 94.33 36.1601C94.14 36.2401 93.96 36.3501 93.77 36.3901C93.51 36.4501 93.24 36.4901 92.98 36.4901C92.35 36.4901 91.72 36.4701 91.09 36.4601C90.95 36.4601 90.82 36.4301 90.68 36.4501C89.96 36.5101 89.62 36.1901 89.69 35.6301C89.79 34.8401 89.92 34.0501 90.11 33.2701C90.3 32.5001 90.72 31.7501 90.76 30.9801C90.81 30.2301 90.56 29.4401 90.36 28.6901C90.13 27.8401 89.71 27.0401 89.53 26.1901C89.26 24.9601 89.2 23.7201 90.06 22.6201C90.45 22.1201 90.67 21.4901 91.09 21.0301C91.94 20.1101 92.65 19.1201 93.99 18.6401C95.01 18.2801 96.02 18.1901 97.03 17.9801C97.09 17.9701 97.16 17.9601 97.22 17.9801C98.28 18.3901 99.39 18.4401 100.51 18.5301C101.04 18.5701 101.57 18.6901 102.11 18.7201C103.07 18.7801 104.03 18.8801 104.98 18.8401C106.34 18.7801 107.71 18.6601 109.06 18.4701C110.36 18.2801 111.61 18.3701 112.88 18.6501C113.84 18.8601 114.84 19.1301 115.8 19.0701C116.9 19.0001 117.91 19.1201 118.83 19.6401C120.68 20.6901 122.54 21.7101 124.2 23.0601C124.63 23.4101 124.63 23.9801 124.07 24.2701C123.28 24.6901 122.43 24.9901 121.58 25.2801C120.34 25.7101 119.03 25.9601 117.85 26.5101C116.58 27.1001 115.44 27.9901 114.21 28.6801C113.56 29.0501 112.96 29.4201 112.56 30.0801C112.25 30.5901 112.17 31.0201 112.48 31.5701C112.79 32.1201 113.07 32.7201 113.22 33.3301C113.44 34.2101 114.06 34.6601 114.77 35.0801C115.11 35.2801 115.46 35.4401 115.79 35.6601C115.95 35.7701 116.14 35.9701 116.13 36.1101C116.12 36.2601 115.9 36.5001 115.74 36.5201C115.23 36.6001 114.72 36.6001 114.2 36.6101C113.95 36.6101 113.7 36.5101 113.46 36.5301C112.27 36.6601 111.46 36.0901 110.65 35.2901C109.94 34.5801 109.06 34.0501 108.23 33.4801C108.03 33.3401 107.71 33.2601 107.49 33.3101C107.06 33.4101 106.49 33.4001 106.44 34.0601C106.39 34.7101 106.78 35.2501 107.41 35.5401C107.73 35.6901 107.99 35.9801 108.28 36.2001C108.27 36.2701 108.25 36.3601 108.23 36.4501Z" fill="white"/>
<path d="M12.01 10.9299C12.83 10.4799 13.54 10.2499 13.85 9.52991C14.34 8.37991 15.33 7.92991 16.43 7.64991C16.75 7.56991 17.12 7.73991 17.47 7.74991C19.08 7.79991 20.7 8.01991 21.94 9.05991C23.08 10.0199 24.22 11.0099 24.85 12.4899C25.46 13.9099 25.74 15.2999 25.62 16.8499C25.51 18.2399 25.2 19.4999 24.56 20.7399C24.07 21.6899 24.03 22.6699 24.73 23.6999C25.23 24.4399 25.33 25.4699 25.58 26.3699C25.98 27.8699 25.59 29.3399 25.32 30.8099C25.3 30.9099 25.25 31.0099 25.2 31.0899C24.65 31.9999 24.21 33.0199 23.5 33.7899C22.71 34.6499 21.73 35.3599 20.56 35.7599C19.13 36.2499 17.67 36.4699 16.19 36.4999C13.35 36.5499 10.52 36.5199 7.67999 36.5099C7.45999 36.5099 7.22999 36.4599 7.00999 36.4299C6.36999 36.3299 6.13999 35.9899 6.13999 35.3099C6.15999 26.6699 6.15999 18.0299 6.14999 9.39991C6.14999 9.04991 6.09999 8.69991 6.05999 8.34991C6.02999 7.89991 6.50999 7.39991 7.12999 7.37991C7.89999 7.35991 8.66999 7.46991 9.43999 7.46991C9.86999 7.46991 10.31 7.41991 10.73 7.33991C11.62 7.16991 12.11 7.69991 12 8.60991C11.91 9.31991 12 10.0399 12.01 10.9299ZM15.31 24.4599C15.31 24.4799 15.31 24.4999 15.31 24.5199C14.72 24.5199 14.13 24.5199 13.54 24.5199C12.53 24.5199 12.13 24.8199 11.99 25.7899C11.93 26.2399 12.01 26.7099 12.03 27.1599C12.05 27.4899 12.09 27.8199 12.08 28.1499C12.07 28.5399 11.96 28.9299 11.98 29.3199C12.02 30.4499 12.51 31.0899 13.45 31.0899C14.99 31.0899 16.55 31.1299 18.05 30.8799C18.73 30.7599 19.51 30.0899 19.86 29.4599C20.21 28.8299 20.16 27.9299 20.16 27.1499C20.16 25.9099 19.14 24.7899 17.93 24.6399C17.06 24.5499 16.18 24.5199 15.31 24.4599ZM15.06 13.1899C15.06 13.2199 15.05 13.2599 15.05 13.2899C14.48 13.2899 13.92 13.2899 13.35 13.2899C12.57 13.2999 12.1 13.7499 12.1 14.5199C12.09 15.5699 12.1 16.6299 12.1 17.6799C12.1 18.6599 12.46 18.9999 13.47 18.9699C14.7 18.9299 15.94 18.8699 17.17 18.8499C18.63 18.8299 19.66 18.0599 20.01 16.6699C20.39 15.1899 19.63 13.8399 18.15 13.5499C17.13 13.3499 16.09 13.2999 15.06 13.1899Z" fill="white"/>
<path d="M67.22 22.5599C67.22 18.4999 67.22 14.4399 67.22 10.3899C67.22 9.64993 67.22 8.90993 67.22 8.16993C67.22 7.62993 67.72 7.20993 68.25 7.22993C69.44 7.27993 70.63 7.32993 71.82 7.34993C72.79 7.36993 73.16 7.85993 72.94 8.79993C72.85 9.19993 72.78 9.61993 72.79 10.0299C72.8 10.2699 72.94 10.6599 73.1 10.6999C73.32 10.7599 73.68 10.6399 73.87 10.4699C74.44 9.95993 74.97 9.40993 75.5 8.85993C76.52 7.79993 77.8 7.65993 79.16 7.77993C79.63 7.81993 80.15 7.76993 80.58 7.93993C82.19 8.54993 83.79 9.31993 84.82 10.7099C85.65 11.8199 86.33 13.0599 86.55 14.5299C86.88 16.6899 86.58 18.6799 85.53 20.5899C85.01 21.5299 84.39 22.3499 83.55 23.0199C83.03 23.4299 83.03 23.8899 83.45 24.5399C84.47 26.0999 85.14 27.7899 85.24 29.6599C85.35 31.7899 86.01 33.6699 87.38 35.3199C87.56 35.5399 87.69 36.0799 87.57 36.1999C87.32 36.4399 86.89 36.5999 86.54 36.6099C85.47 36.6299 84.41 36.5299 83.34 36.5199C82.52 36.5099 81.83 36.3399 81.46 35.4999C81.04 34.5699 80.44 33.6899 80.18 32.7199C79.93 31.7899 80.05 30.7799 79.94 29.8099C79.76 28.2199 79.11 26.8699 78.02 25.6599C76.82 24.3199 75.31 24.3899 73.78 24.4399C73.51 24.4499 73.08 24.8199 73.03 25.0799C72.86 25.9299 72.79 26.7999 72.77 27.6599C72.75 28.4499 72.87 29.2399 72.88 30.0299C72.9 31.6499 72.89 33.2699 72.88 34.8899C72.88 35.1999 72.79 35.4999 72.76 35.8099C72.72 36.3199 72.37 36.4899 71.95 36.4999C70.69 36.5299 69.43 36.5199 68.17 36.4999C67.52 36.4899 67.21 36.0699 67.21 35.2499C67.21 33.0799 67.21 30.9199 67.21 28.7499C67.22 26.6799 67.22 24.6199 67.22 22.5599ZM75.42 13.6699C74.92 13.6699 74.4 13.6099 73.91 13.6899C73.59 13.7499 73.15 13.9599 73.04 14.2199C72.84 14.6699 72.81 15.2099 72.78 15.7199C72.74 16.4099 72.81 17.1099 72.76 17.7999C72.72 18.3499 73.08 18.9599 73.6 18.9599C75.32 18.9699 77.05 18.9999 78.77 18.9499C80.1 18.9099 80.58 18.5199 80.95 17.2399C81.06 16.8499 81.08 16.4299 81.08 16.0199C81.1 14.7799 79.96 13.6599 78.71 13.6599C77.62 13.6699 76.52 13.6699 75.42 13.6699Z" fill="white"/>
<path d="M45.65 30.51C45.65 28.83 45.65 27.15 45.65 25.47C45.65 19.75 45.65 14.03 45.65 8.30997C45.65 7.62997 45.9 7.36997 46.58 7.36997C47.67 7.35997 48.77 7.36997 49.86 7.36997C50.09 7.36997 50.34 7.38997 50.54 7.31997C51.07 7.11997 51.7 7.71997 51.7 8.32997C51.7 11.31 51.7 14.3 51.7 17.28C51.7 17.5 51.59 17.73 51.63 17.93C51.82 18.93 52.37 19.18 53.61 18.98C54.13 18.89 54.67 18.97 55.2 18.96C56.43 18.93 57.66 18.94 58.88 18.82C59.45 18.76 59.68 18.28 59.57 17.66C59.51 17.35 59.64 17.01 59.64 16.69C59.65 14 59.64 11.31 59.64 8.61997C59.64 7.61997 60.18 7.24997 61.19 7.34997C62.2 7.43997 63.22 7.36997 64.24 7.37997C65.33 7.37997 65.57 7.66997 65.46 8.72997C65.42 9.13997 65.54 9.55997 65.54 9.96997C65.54 10.44 65.45 10.92 65.45 11.39C65.44 18.3 65.45 25.22 65.45 32.13C65.45 33.27 65.46 34.41 65.45 35.55C65.44 36.35 64.93 36.66 64.14 36.57C63.18 36.47 62.21 36.52 61.25 36.52C59.82 36.51 59.55 36.28 59.53 34.84C59.52 34.22 59.62 33.6 59.64 32.98C59.66 32.31 59.65 31.63 59.65 30.95C59.65 29.37 59.65 27.8 59.65 26.22C59.65 24.56 59.2 24.59 57.89 24.45C56.76 24.32 55.59 24.52 54.44 24.53C53.86 24.54 53.28 24.47 52.7 24.41C52.18 24.35 51.9 24.66 51.77 25.07C51.64 25.48 51.58 25.92 51.59 26.35C51.61 27.71 51.69 29.07 51.7 30.42C51.7 31.65 51.62 32.88 51.59 34.11C51.58 34.64 51.65 35.18 51.57 35.69C51.44 36.52 51.21 36.58 50.36 36.54C49.22 36.48 48.08 36.49 46.94 36.53C45.84 36.57 45.6 36.36 45.64 35.2C45.68 33.62 45.65 32.07 45.65 30.51Z" fill="white"/>
<path d="M27.36 21.7399C27.36 17.2399 27.36 12.7399 27.36 8.2499C27.36 7.4499 27.81 7.2299 28.6 7.3299C29.57 7.4499 30.58 7.4199 31.56 7.3299C32.57 7.2399 33.05 7.7299 32.89 8.7199C32.8 9.2899 32.9 9.8999 32.97 10.4899C32.99 10.6399 33.25 10.8799 33.37 10.8699C33.61 10.8399 33.88 10.6999 34.04 10.5199C34.81 9.6399 35.51 8.6999 36.32 7.8499C36.58 7.5699 37.08 7.3899 37.48 7.3799C39.35 7.3299 41.22 7.3499 43.09 7.3599C43.85 7.3599 44.1 7.7799 44.06 8.5599C44.02 9.5299 44.12 10.5099 44.13 11.4899C44.13 11.8999 44.1 12.3199 44 12.7199C43.88 13.2099 43.46 13.2899 43.01 13.2799C40.13 13.2799 37.25 13.2899 34.37 13.2699C33.27 13.2699 33.05 13.4999 32.96 14.3899C32.84 15.5399 32.86 16.7099 32.96 17.8599C33.03 18.6999 33.44 18.9499 34.32 18.9499C36.59 18.9499 38.86 18.9499 41.13 18.9499C42 18.9499 42.23 19.1999 42.25 20.0499C42.28 21.1299 42.33 22.2199 42.37 23.2999C42.4 24.0699 41.73 24.6099 40.98 24.4299C40.8 24.3899 40.61 24.3699 40.42 24.3699C39.14 24.4099 37.87 24.4599 36.59 24.4899C35.83 24.5099 35.07 24.4599 34.31 24.4999C33.3 24.5599 32.91 24.9999 32.91 25.9899C32.91 27.0999 32.9 28.2199 32.92 29.3299C32.93 29.7399 32.97 30.1599 33.06 30.5599C33.18 31.0699 33.58 31.1799 34.07 31.1799C36.91 31.1699 39.74 31.1799 42.58 31.1699C43.84 31.1699 44.17 31.5399 44.14 32.7499C44.12 33.5899 44.14 34.4299 44.13 35.2699C44.12 36.1499 43.79 36.4699 42.92 36.4699C38.06 36.4699 33.2 36.4699 28.35 36.4699C27.6 36.4699 27.36 36.2299 27.36 35.4599C27.35 30.9099 27.36 26.3199 27.36 21.7399Z" fill="white"/>
</svg>
