<svg width="23" height="23" viewBox="0 0 23 23" fill="none" xmlns="http://www.w3.org/2000/svg">
<path d="M19.0809 7.32318C18.8965 6.61336 18.3546 6.05339 17.6666 5.86405C16.4184 5.51856 11.4154 5.51855 11.4154 5.51855C11.4154 5.51855 6.41138 5.51856 5.16409 5.86405C4.47607 6.05339 3.93332 6.61336 3.74892 7.32318C3.41492 8.61092 3.41492 11.2968 3.41492 11.2968C3.41492 11.2968 3.41492 13.9826 3.74892 15.2704C3.93332 15.9811 4.47521 16.5402 5.16409 16.7295C6.41225 17.0741 11.4154 17.0741 11.4154 17.0741C11.4154 17.0741 16.4184 17.0741 17.6666 16.7295C18.3546 16.5393 18.8974 15.9802 19.0809 15.2704C19.4149 13.9826 19.4149 11.2968 19.4149 11.2968C19.4149 11.2968 19.4149 8.61092 19.0809 7.32318ZM9.81492 13.7727V8.82001L13.9717 11.2968L9.81492 13.7727Z" fill="#3D3D3D"/>
</svg>
