<svg width="23" height="23" viewBox="0 0 23 23" fill="none" xmlns="http://www.w3.org/2000/svg">
<g opacity="0.8">
<path d="M8.1005 3.57279C7.24693 3.60895 6.66577 3.74453 6.15726 3.94339C5.63966 4.15129 5.19471 4.42247 4.74976 4.86539C4.30481 5.3083 4.0324 5.75122 3.83262 6.27549C3.63285 6.78168 3.50572 7.36019 3.46032 8.20987C3.424 9.05955 3.41492 9.33072 3.41492 11.4911C3.424 13.6514 3.43308 13.9226 3.4694 14.7723C3.50572 15.622 3.64193 16.2005 3.8417 16.6976C4.05056 17.2219 4.32298 17.6648 4.76792 18.1077C5.21287 18.5506 5.65782 18.8218 6.1845 19.0207C6.69301 19.2195 7.27417 19.3461 8.12774 19.3913C8.98132 19.4274 9.25374 19.4365 11.424 19.4365C13.5943 19.4274 13.8667 19.4274 14.7203 19.3822C15.5738 19.3461 16.155 19.2105 16.6635 19.0116C17.1902 18.8037 17.6351 18.5326 18.0801 18.0896C18.525 17.6467 18.7974 17.2038 18.9972 16.6795C19.197 16.1734 19.3241 15.5948 19.3695 14.7452C19.4058 13.8955 19.4149 13.6243 19.4149 11.464C19.4058 9.3036 19.4058 9.03243 19.3604 8.18275C19.3241 7.33307 19.1879 6.75457 18.9881 6.24837C18.7793 5.7241 18.5069 5.28119 18.0619 4.83827C17.617 4.39535 17.172 4.12418 16.6453 3.92532C16.1368 3.72645 15.5557 3.59991 14.7021 3.55471C13.8394 3.52759 13.567 3.51855 11.3968 3.51855C9.22649 3.52759 8.95408 3.53663 8.1005 3.57279ZM8.19131 17.9541C7.41038 17.9179 6.99267 17.7914 6.71117 17.6829C6.33887 17.5383 6.07553 17.3665 5.79403 17.0863C5.51253 16.8061 5.34 16.544 5.19471 16.1734C5.08575 15.8931 4.94954 15.4683 4.91321 14.7C4.87689 13.8593 4.86781 13.6062 4.85873 11.482C4.85873 9.35784 4.85873 9.10474 4.89505 8.2641C4.93138 7.48674 5.0585 7.07094 5.16747 6.79072C5.31276 6.42012 5.48529 6.15798 5.76679 5.87777C6.04829 5.59756 6.31163 5.42581 6.68393 5.28119C6.96543 5.17272 7.39222 5.04617 8.16407 5.00097C9.00856 4.96482 9.26282 4.95578 11.3877 4.94674C13.5216 4.94674 13.7759 4.94674 14.6204 4.9829C15.4013 5.01905 15.819 5.1456 16.1005 5.25407C16.4728 5.3987 16.7452 5.57044 17.0176 5.85065C17.2991 6.13087 17.4717 6.393 17.617 6.76361C17.7259 7.04382 17.8531 7.46866 17.8985 8.23699C17.9348 9.07763 17.9439 9.33072 17.9529 11.4459C17.962 13.5701 17.9529 13.8232 17.9166 14.6638C17.8803 15.4412 17.7532 15.857 17.6442 16.1462C17.4989 16.5168 17.3264 16.779 17.0449 17.0592C16.7634 17.3394 16.5 17.5111 16.1277 17.6558C15.8462 17.7642 15.4195 17.8908 14.6476 17.936C13.8031 17.9721 13.5489 17.9812 11.4149 17.9902C9.29006 17.9993 9.0358 17.9902 8.19131 17.9541ZM14.7112 7.2246C14.7112 7.74887 15.147 8.17371 15.6737 8.17371C16.2004 8.17371 16.6363 7.73983 16.6272 7.21556C16.6272 6.69129 16.1913 6.26645 15.6646 6.26645C15.138 6.26645 14.7112 6.70033 14.7112 7.2246ZM7.31049 11.482C7.31049 13.7418 9.15385 15.5587 11.424 15.5587C13.6851 15.5496 15.5193 13.7237 15.5193 11.464C15.5103 9.21321 13.676 7.37827 11.4058 7.38731C9.13569 7.39635 7.30141 9.23129 7.31049 11.482ZM8.74522 11.482C8.74522 10.0177 9.93478 8.83357 11.4058 8.82453C12.8769 8.82453 14.0755 10.0087 14.0755 11.473C14.0755 12.9373 12.886 14.1305 11.4149 14.1305C9.94386 14.1305 8.7543 12.9464 8.74522 11.482Z" fill="#3D3D3D"/>
</g>
</svg>
