<svg width="48" height="48" viewBox="0 0 48 48" fill="none" xmlns="http://www.w3.org/2000/svg">
<path d="M22.05 38.95L19.75 36.8C15.75 33.1333 12.2917 29.6333 9.375 26.3C6.45833 22.9667 5 19.5167 5 15.95C5 13.2167 5.925 10.925 7.775 9.075C9.625 7.225 11.9167 6.3 14.65 6.3C16.1833 6.3 17.775 6.69167 19.425 7.475C21.075 8.25833 22.6 9.7 24 11.8C25.5 9.7 27.0417 8.25833 28.625 7.475C30.2083 6.69167 31.7833 6.3 33.35 6.3C36.0833 6.3 38.375 7.225 40.225 9.075C42.075 10.925 43 13.2167 43 15.95C43 19.55 41.5083 23.025 38.525 26.375C35.5417 29.725 32.1167 33.2 28.25 36.8L25.95 38.9C25.3833 39.4 24.7333 39.65 24 39.65C23.2667 39.65 22.6167 39.4167 22.05 38.95V38.95ZM23 14.35C21.9667 12.4833 20.7167 11.05 19.25 10.05C17.7833 9.05 16.25 8.55 14.65 8.55C12.4833 8.55 10.7083 9.25 9.325 10.65C7.94167 12.05 7.25 13.8167 7.25 15.95C7.25 17.7167 7.79167 19.5333 8.875 21.4C9.95833 23.2667 11.3167 25.125 12.95 26.975C14.5833 28.825 16.35 30.625 18.25 32.375C20.15 34.125 21.9333 35.75 23.6 37.25C23.7 37.35 23.8333 37.4 24 37.4C24.1667 37.4 24.3 37.35 24.4 37.25C26.0667 35.7833 27.85 34.1667 29.75 32.4C31.65 30.6333 33.4167 28.825 35.05 26.975C36.6833 25.125 38.0417 23.2583 39.125 21.375C40.2083 19.4917 40.75 17.6833 40.75 15.95C40.75 13.8167 40.05 12.05 38.65 10.65C37.25 9.25 35.4833 8.55 33.35 8.55C31.7167 8.55 30.175 9.04167 28.725 10.025C27.275 11.0083 26.0167 12.45 24.95 14.35C24.8167 14.55 24.6667 14.7 24.5 14.8C24.3333 14.9 24.15 14.95 23.95 14.95C23.75 14.95 23.5667 14.9 23.4 14.8C23.2333 14.7 23.1 14.55 23 14.35V14.35Z" fill="black"/>
</svg>
