<?xml version="1.0" encoding="utf-8"?>
<!-- Generator: Adobe Illustrator 24.0.1, SVG Export Plug-In . SVG Version: 6.00 Build 0)  -->
<svg version="1.1" id="Layer_1" xmlns="http://www.w3.org/2000/svg" xmlns:xlink="http://www.w3.org/1999/xlink" x="0px" y="0px"
	 viewBox="0 0 35 31.8" style="enable-background:new 0 0 35 31.8;" xml:space="preserve">
<path d="M15.9,29.9l-2-1.9c-3.5-3.2-6.5-6.2-9-9.1c-2.5-2.9-3.8-5.9-3.8-9c0-2.4,0.8-4.4,2.4-6s3.6-2.4,6-2.4c1.3,0,2.7,0.3,4.1,1
	c1.4,0.7,2.8,1.9,4,3.7c1.3-1.8,2.6-3.1,4-3.7c1.4-0.7,2.7-1,4.1-1c2.4,0,4.4,0.8,6,2.4c1.6,1.6,2.4,3.6,2.4,6c0,3.1-1.3,6.1-3.9,9
	s-5.6,5.9-8.9,9l-2,1.8c-0.5,0.4-1.1,0.6-1.7,0.6C17,30.5,16.4,30.3,15.9,29.9z M16.8,8.6c-0.9-1.6-2-2.9-3.2-3.7s-2.6-1.3-4-1.3
	c-1.9,0-3.4,0.6-4.6,1.8S3.1,8.2,3.1,10c0,1.5,0.5,3.1,1.4,4.7c0.9,1.6,2.1,3.2,3.5,4.8c1.4,1.6,2.9,3.2,4.6,4.7
	c1.6,1.5,3.2,2.9,4.6,4.2c0.1,0.1,0.2,0.1,0.3,0.1c0.1,0,0.3,0,0.3-0.1c1.4-1.3,3-2.7,4.6-4.2c1.6-1.5,3.2-3.1,4.6-4.7
	c1.4-1.6,2.6-3.2,3.5-4.9c0.9-1.6,1.4-3.2,1.4-4.7c0-1.8-0.6-3.4-1.8-4.6s-2.7-1.8-4.6-1.8c-1.4,0-2.8,0.4-4,1.3
	c-1.3,0.9-2.3,2.1-3.3,3.7c-0.1,0.2-0.2,0.3-0.4,0.4c-0.1,0.1-0.3,0.1-0.5,0.1c-0.2,0-0.3,0-0.5-0.1C17,8.9,16.8,8.8,16.8,8.6z"/>
</svg>
