<svg xmlns="http://www.w3.org/2000/svg" width="225.352" height="45.811" viewBox="0 0 225.352 45.811">
  <g id="logo_w" transform="translate(-313.003 -628.069)">
    <path id="path178" d="M412.794,672.677a11.739,11.739,0,0,0-4.8-1.355c-1.355,0-2.222.489-2.222,1.244,0,2.289,7.709,1.644,7.709,6.932,0,2.911-2.443,4.6-5.82,4.6a10.272,10.272,0,0,1-5.466-1.467v-3.266c2.178,1.445,3.511,1.955,5.177,1.955,1.444,0,2.222-.51,2.222-1.4,0-.49-.3-.849-1.1-1.328-1.642-1.049-6.614-1.322-6.614-5.693,0-2.622,2.266-4.354,5.777-4.354a12.387,12.387,0,0,1,5.132,1.178v2.954" transform="translate(-39.721 -18.088)" fill="#fff"/>
    <path id="path180" d="M434.776,685.909c-.333,0-.534-.2-.534-.711v-4.665c0-2.244-1.755-3.11-4.332-3.11a8.328,8.328,0,0,0-4.443,1.243v2.622a5.592,5.592,0,0,1,3.776-1.711c1.4,0,1.845.755,1.777,1.711-4.287,1.333-6.087,1.823-6.087,4.266a2.733,2.733,0,0,0,2.866,2.511,5.721,5.721,0,0,0,3.377-1.156c.223.823.733,1.156,1.8,1.156a6.715,6.715,0,0,0,3.021-.933v-1.8c-.755.534-1,.578-1.221.578Zm-3.756-.532a2.726,2.726,0,0,1-1.777.777,1.067,1.067,0,0,1-1.044-1.088c0-1.022.911-1.467,2.821-2.156v2.467" transform="translate(-50.02 -22.055)" fill="#fff"/>
    <path id="path182" d="M444.2,677.782h3.443l2.176,5.643,2.2-5.643h3.421l-4.71,10.443h-1.8L444.2,677.782" transform="translate(-58.633 -22.216)" fill="#fff"/>
    <path id="path184" d="M468.616,683.265h7.354c.156-3.732-2.311-5.842-5.288-5.842a5.168,5.168,0,0,0-5.4,5.354c0,3.2,2.333,5.288,5.932,5.288a7.422,7.422,0,0,0,4.577-1.355v-2.023a6.014,6.014,0,0,1-3.8,1.467C469.971,686.153,468.726,685.087,468.616,683.265Zm2.288-3.933a2.2,2.2,0,0,1,2.222,2.244h-4.444a2.177,2.177,0,0,1,2.222-2.244" transform="translate(-68.052 -22.055)" fill="#fff"/>
    <path id="path186" d="M504.415,677.379h-3.732V681.6a1.488,1.488,0,0,0,1.578,1.643,4.48,4.48,0,0,0,2.154-.6v2.333a7.3,7.3,0,0,1-2.977.644c-2.132,0-3.977-.978-3.977-3.844v-4.4H496v-.622l4.288-4.8h.4v3.222h3.732v2.2" transform="translate(-81.777 -19.613)" fill="#fff"/>
    <path id="path188" d="M516.72,675.328h.044a3.959,3.959,0,0,1,3.244-1.71,3.59,3.59,0,0,1,3.754,3.91v6.531h-3.222v-5.844c0-1.532-.667-2.243-1.666-2.243-.755,0-1.4.466-2.154,1.556v6.531H513.5V668.907h3.222v6.42" transform="translate(-89.599 -18.25)" fill="#fff"/>
    <path id="path190" d="M538.432,683.265h7.354c.155-3.732-2.311-5.842-5.288-5.842a5.167,5.167,0,0,0-5.4,5.354c0,3.2,2.333,5.288,5.931,5.288a7.418,7.418,0,0,0,4.577-1.355v-2.023a6.008,6.008,0,0,1-3.8,1.467C539.788,686.153,538.543,685.087,538.432,683.265Zm2.287-3.933a2.2,2.2,0,0,1,2.222,2.244H538.5a2.176,2.176,0,0,1,2.221-2.244" transform="translate(-99.252 -22.055)" fill="#fff"/>
    <path id="path192" d="M581.992,682.586a11.764,11.764,0,0,1-5.954,1.511c-5.887,0-8.819-3.822-8.819-7.732,0-4.043,3.31-7.82,9.108-7.82a10.684,10.684,0,0,1,5.488,1.333v3.377a10.573,10.573,0,0,0-5.221-1.556c-3.222,0-5.488,1.911-5.488,4.6,0,2.71,2.244,4.643,5.4,4.643,1.977,0,3.31-.622,5.487-1.666v3.31" transform="translate(-113.606 -18.088)" fill="#fff"/>
    <path id="path194" d="M601.207,675.328h.044a3.959,3.959,0,0,1,3.244-1.71,3.59,3.59,0,0,1,3.754,3.91v6.531h-3.222v-5.844c0-1.532-.667-2.243-1.666-2.243-.755,0-1.4.466-2.154,1.556v6.531h-3.222V668.907h3.222v6.42" transform="translate(-127.355 -18.25)" fill="#fff"/>
    <path id="path196" d="M620.63,688.025h3.221V677.783H620.63Z" transform="translate(-137.475 -22.216)" fill="#fff"/>
    <path id="path198" d="M623.864,670.321a1.777,1.777,0,1,1-1.777-1.777,1.783,1.783,0,0,1,1.777,1.777" transform="translate(-137.332 -18.088)" fill="#fff"/>
    <path id="path200" d="M630.713,684.059h3.221V668.907h-3.221Z" transform="translate(-141.981 -18.25)" fill="#fff"/>
    <path id="path202" d="M647.313,668.907v5.354a5.953,5.953,0,0,0-2.666-.644c-2.933,0-4.977,2.177-4.977,5.31,0,3.066,2.044,5.332,4.8,5.332a4.2,4.2,0,0,0,2.844-1.022v.821h3.222V668.907Zm0,12.352a2.7,2.7,0,0,1-1.911.844c-1.51,0-2.466-1.245-2.466-3.11,0-2.044.956-3.222,2.576-3.222a3.484,3.484,0,0,1,1.8.6v4.888" transform="translate(-145.984 -18.25)" fill="#fff"/>
    <path id="path204" d="M666.662,680.555h.044c.954-2.132,2.022-3.132,3.265-3.132a3.5,3.5,0,0,1,2.134.932l-.889,2.844a3.706,3.706,0,0,0-1.911-.755c-1.177,0-1.932,1.11-2.643,3v4.421H663.44V677.622h3.222v2.933" transform="translate(-156.606 -22.055)" fill="#fff"/>
    <path id="path206" d="M682.88,683.265h7.354c.155-3.732-2.311-5.842-5.288-5.842a5.167,5.167,0,0,0-5.4,5.354c0,3.2,2.333,5.288,5.932,5.288a7.417,7.417,0,0,0,4.576-1.355v-2.023a6.008,6.008,0,0,1-3.8,1.467C684.236,686.153,682.991,685.087,682.88,683.265Zm2.289-3.933a2.2,2.2,0,0,1,2.221,2.244h-4.443a2.177,2.177,0,0,1,2.222-2.244" transform="translate(-163.804 -22.055)" fill="#fff"/>
    <path id="path208" d="M705.052,679.087a4.126,4.126,0,0,1,3.333-1.665,3.585,3.585,0,0,1,3.732,3.933v6.509h-3.222V681.62c0-1.444-.689-2.044-1.6-2.044-.8,0-1.4.422-2.244,1.688v6.6H701.83V677.621h3.222v1.466" transform="translate(-173.762 -22.055)" fill="#fff"/>
    <path id="path210" d="M353.734,640.562c2.042-2.1,2.949-3.073,2.807-3.648a1.93,1.93,0,0,0-1.167-1.13,2.983,2.983,0,0,0-2.17-.256,7.363,7.363,0,0,0-1.145,1.045l-.644.632h0c-.354-.413-.732-.828-1.1-1.2a20.357,20.357,0,0,0-9.913-5.454,6.244,6.244,0,0,0-5.368-2.459,6.045,6.045,0,0,0-4.3,2.5,22.838,22.838,0,0,0-10.6,5.74v0a4.714,4.714,0,0,0-2.872.328,1.44,1.44,0,0,0-.895.873c-.066.261.014.683.991,1.966v0a22.5,22.5,0,0,0-4.317,14.261,20.549,20.549,0,0,0,5.953,13.573,20.264,20.264,0,0,0,4.233,3.244h0a25.054,25.054,0,0,0,23.354.777l.014-.006a1.269,1.269,0,0,0,.611-1.634l-.073-.2c-.991-2.709-4.011-10.956-1.522-18.12,1.043-3,3.664-6.087,5.911-8.5h0a19.985,19.985,0,0,1,2.378,11.72,18.26,18.26,0,0,1-4.335,10.035h0a.428.428,0,0,0-.118.3.722.722,0,0,0,.022.138l.191.542a.433.433,0,0,0,.72.142h.014c6.37-7.029,7.768-17.21,3.367-25.209h0Zm-27.08,15.484a41.372,41.372,0,0,0-1.366,12.137v0a20.683,20.683,0,0,1-4.027-3.128,20.318,20.318,0,0,1-5.856-12.138,18.833,18.833,0,0,1,2.867-12.267h0c.729.873,1.614,1.882,2.54,2.936a63.188,63.188,0,0,1,6.048,7.542c.7,1.178.36,2.587-.2,4.921Zm22.4-16.65c-4.794,4.2-9.191,6.354-13.058,6.38a15.7,15.7,0,0,1-9.139-3.263,35.911,35.911,0,0,1-5.625-5.132l-.117-.126h0a18.324,18.324,0,0,1,8.443-4.465s0,0,0,0h0s0,0,0,0a9.2,9.2,0,0,0-.448,3.81,8.666,8.666,0,0,0,2.914,5.889,5.81,5.81,0,0,0,8.457-.74,8.657,8.657,0,0,0,1.846-6.306,9.556,9.556,0,0,0-.2-1.287h0a20.454,20.454,0,0,1,5.9,4.126c.35.351.7.723,1.032,1.112h0" transform="translate(0)" fill="#ed1b2d"/>
  </g>
</svg>
