<svg xmlns="http://www.w3.org/2000/svg" xmlns:xlink="http://www.w3.org/1999/xlink" width="126" height="134.709" viewBox="0 0 126 134.709">
  <defs>
    <filter id="support_ico4_w" x="0" y="0" width="126" height="134.709" filterUnits="userSpaceOnUse">
      <feOffset dy="3" input="SourceAlpha"/>
      <feGaussianBlur stdDeviation="15" result="blur"/>
      <feFlood flood-opacity="0.122"/>
      <feComposite operator="in" in2="blur"/>
      <feComposite in="SourceGraphic"/>
    </filter>
  </defs>
  <g transform="matrix(1, 0, 0, 1, 0, 0)" filter="url(#support_ico4_w)">
    <path id="support_ico4_w-2" data-name="support_ico4_w" d="M26.5,30.358a1.291,1.291,0,0,0,1.335-1.335v-9.29a1.229,1.229,0,0,0-.377-.9,1.4,1.4,0,0,0-1.916,0,1.229,1.229,0,0,0-.377.9v9.29A1.291,1.291,0,0,0,26.5,30.358Zm0,5.748a1.558,1.558,0,0,0,1.1-.435,1.481,1.481,0,0,0,.465-1.132A1.493,1.493,0,0,0,26.5,32.971a1.558,1.558,0,0,0-1.1.435,1.481,1.481,0,0,0-.465,1.132,1.558,1.558,0,0,0,.435,1.1A1.481,1.481,0,0,0,26.5,36.106ZM9.835,43.016a1.251,1.251,0,0,1-.958-.406,1.327,1.327,0,0,1-.377-.929,1.291,1.291,0,0,1,1.335-1.335h3.484V22.4a13.478,13.478,0,0,1,2.874-8.361A11.94,11.94,0,0,1,23.771,9.4V7.713a2.453,2.453,0,0,1,.784-1.887,2.969,2.969,0,0,1,3.89,0,2.453,2.453,0,0,1,.784,1.887V9.4a12.054,12.054,0,0,1,7.606,4.645,13.391,13.391,0,0,1,2.9,8.361V40.345h3.426a1.336,1.336,0,1,1,0,2.671ZM26.5,26.352Zm0,23.458a4.061,4.061,0,0,1-2.932-1.219,3.985,3.985,0,0,1-1.248-2.961h8.361A4.163,4.163,0,0,1,26.5,49.81ZM15.932,40.345H37.068V22.4a10.341,10.341,0,0,0-3.048-7.519A10.119,10.119,0,0,0,26.5,11.777a10.147,10.147,0,0,0-7.49,3.106A10.291,10.291,0,0,0,15.932,22.4Z" transform="translate(36.5 36.9)" fill="#fff"/>
  </g>
</svg>
