<svg xmlns="http://www.w3.org/2000/svg" xmlns:xlink="http://www.w3.org/1999/xlink" width="134.938" height="134.093" viewBox="0 0 134.938 134.093">
  <defs>
    <filter id="support_ico3" x="0" y="0" width="134.938" height="134.093" filterUnits="userSpaceOnUse">
      <feOffset dy="3" input="SourceAlpha"/>
      <feGaussianBlur stdDeviation="15" result="blur"/>
      <feFlood flood-opacity="0.122"/>
      <feComposite operator="in" in2="blur"/>
      <feComposite in="SourceGraphic"/>
    </filter>
  </defs>
  <g transform="matrix(1, 0, 0, 1, 0, 0)" filter="url(#support_ico3)">
    <path id="support_ico3-2" data-name="support_ico3" d="M35.486,26.337a1.73,1.73,0,0,1-.591-.113,2.088,2.088,0,0,1-.591-.338,76.736,76.736,0,0,1-8.025-7.968q-3.238-3.8-3.238-7.011A6.25,6.25,0,0,1,29.348,4.6a6.463,6.463,0,0,1,3.21.929A10.172,10.172,0,0,1,35.543,8.2a9.558,9.558,0,0,1,2.928-2.675,6.463,6.463,0,0,1,3.21-.929,6.25,6.25,0,0,1,6.307,6.307q0,3.21-3.238,7.011a76.737,76.737,0,0,1-8.025,7.968,1.414,1.414,0,0,1-.563.338A2.126,2.126,0,0,1,35.486,26.337Zm.056-2.928a90.244,90.244,0,0,0,6.87-6.7q3.041-3.322,3.041-5.8A3.568,3.568,0,0,0,41.737,7.19a4.85,4.85,0,0,0-2.084.507A6.616,6.616,0,0,0,37.4,9.781l-1.858,2.365L33.628,9.781A7.2,7.2,0,0,0,31.347,7.7a4.568,4.568,0,0,0-2-.507,3.693,3.693,0,0,0-2.731,1.042,3.621,3.621,0,0,0-1.042,2.675q0,2.478,3.041,5.8a84.9,84.9,0,0,0,6.927,6.7ZM30.587,46.1a.5.5,0,0,0,.225.056.229.229,0,0,0,.169-.056l13.684-4.223a4.31,4.31,0,0,0-.76-1.408,1.5,1.5,0,0,0-1.154-.676H30.193q-.394,0-1.436-.084a7.267,7.267,0,0,1-2.055-.479l-3.886-1.239a1.387,1.387,0,0,1-.788-.676,1.332,1.332,0,0,1-.113-1.07,1.412,1.412,0,0,1,.7-.732,1.259,1.259,0,0,1,1.042,0l5.012,1.689a3.9,3.9,0,0,0,1.3.084q1.07-.028,2.816-.028h.507a3.868,3.868,0,0,0-.282-1.549,1.724,1.724,0,0,0-.957-.929L18.536,29.659H13.3V40.978Zm-.507,2.478L13.3,43.681a3.2,3.2,0,0,1-1.239,2.281,3.4,3.4,0,0,1-2.027.817H6.26a3.082,3.082,0,0,1-2.253-.957,3.147,3.147,0,0,1-.957-2.309V30.335a3.147,3.147,0,0,1,.957-2.309,3.082,3.082,0,0,1,2.253-.957H18.2a2.865,2.865,0,0,1,.563.056,3.21,3.21,0,0,1,.563.169L32.9,32.362a4.789,4.789,0,0,1,2.2,1.577,5.233,5.233,0,0,1,.9,3.322h7.1A4.166,4.166,0,0,1,46.411,38.7a5.7,5.7,0,0,1,1.239,3.857,1.63,1.63,0,0,1-.253.9,1.742,1.742,0,0,1-.7.619L31.939,48.581a3.889,3.889,0,0,1-1.858,0ZM35.543,15.243ZM5.584,43.512a.673.673,0,0,0,.676.676H9.977a.71.71,0,0,0,.479-.169.631.631,0,0,0,.2-.507V29.659H6.26a.673.673,0,0,0-.676.676Z" transform="translate(41.95 37.4)" fill="#3d3d3d"/>
  </g>
</svg>
