<svg xmlns="http://www.w3.org/2000/svg" width="209.243" height="215.21" viewBox="0 0 209.243 215.21">
  <g id="circle_txt" transform="translate(-260.416 120.578) rotate(-45)">
    <g id="그룹_25" data-name="그룹 25" transform="translate(210.142 143.672)">
      <path id="패스_62" data-name="패스 62" d="M220.884,155.319a10.857,10.857,0,0,0,8.794,6.812l-.552,1.922a11.846,11.846,0,0,1-7.691-4.5,12.134,12.134,0,0,1-2.713,8.842l-1.712-1.1c2.468-2.566,3.483-7.416,2.029-11.289l-1.375-3.668,1.845-.692Zm7.436-9L236,166.8l-1.868.7-7.685-20.483Z" transform="translate(-206.565 -142.293)" fill="#fff"/>
      <path id="패스_63" data-name="패스 63" d="M245.168,155.994l-10.184.494-.49-10.135,10.181-.493Zm-2.357-8.435-6.295.3.335,6.928,6.295-.3Zm9.934,15.522.078,1.6-14.678.712-.333-6.877,1.992-.1.256,5.273Zm-.84-3.76-1.994.1-.757-15.65,1.994-.1Z" transform="translate(-197.457 -143.672)" fill="#fff"/>
      <path id="패스_64" data-name="패스 64" d="M252.354,158.3a98.267,98.267,0,0,0,13.928,2.909l-.214,1.48a80.307,80.307,0,0,1-13.91-2.7Zm14.567-5.1c-.78,2.94-3.667,4.339-6.961,3.468-3.268-.865-5.109-3.518-4.33-6.458.785-2.966,3.691-4.334,6.959-3.468C265.884,147.613,267.7,150.235,266.921,153.2Zm-9.41-2.491c-.517,1.951.721,3.738,2.885,4.312,2.189.581,4.125-.367,4.642-2.318.525-1.977-.7-3.735-2.885-4.315C259.99,147.814,258.035,148.731,257.511,150.708Zm15.84-2.777-5.6,21.145-1.928-.511,5.6-21.145Z" transform="translate(-188.257 -142.207)" fill="#fff"/>
      <path id="패스_65" data-name="패스 65" d="M288.355,180.839c-1.573,1.855-4.552,1.118-8.023-1.825s-4.689-5.763-3.115-7.618c1.589-1.874,4.569-1.136,8.039,1.808S289.945,178.964,288.355,180.839Zm-1.521-1.29c.944-1.115-.043-3.037-2.569-5.177-2.543-2.157-4.6-2.815-5.544-1.7-.929,1.094.059,3.016,2.6,5.171C283.847,179.985,285.9,180.643,286.834,179.55Zm-5.1-11.149c-2.1-1.778-2.62-4.137-1.141-5.88,1.449-1.708,3.875-1.6,5.972.179s2.586,4.138,1.138,5.848C286.225,170.292,283.833,170.177,281.736,168.4Zm.961-1.133c1.3,1.1,2.771,1.17,3.653.131.865-1.02.557-2.464-.742-3.563-1.319-1.119-2.774-1.171-3.639-.151C281.088,164.724,281.378,166.151,282.7,167.267Zm8.823-1.868-8.464-7.174,1.024-1.208,3.49,2.958,1.573-1.855,1.5,1.275-1.573,1.855,3.452,2.928Zm-3.614,8.517-1.448-1.226,8.152-9.616,1.448,1.229-3.573,4.213,2.117,1.795,3.839-4.531,1.468,1.244-8.938,10.544-1.468-1.244,4.044-4.771-2.115-1.793Z" transform="translate(-175.558 -136.721)" fill="#fff"/>
      <path id="패스_66" data-name="패스 66" d="M290.807,179.322l8.035,12.8-5.77,3.624-1.062-1.691,4.411-2.768-6.975-11.107Zm12.5,12.865-1.382.867-10.506-16.733,1.381-.867L297.539,183l2.2-1.384L296.4,176.3l6.9-4.336,1.048,1.67-2.1,1.32,5.642,8.984,2.1-1.319,1.048,1.668-6.9,4.334L300.8,183.3l-2.2,1.386Zm-4.518-15.064,5.642,8.985,2.143-1.346-5.642-8.985Z" transform="translate(-168.835 -128.938)" fill="#fff"/>
      <path id="패스_67" data-name="패스 67" d="M296.713,197.3l3.32,13.069-1.51.383-3.8-14.956,5.071-1.29,3.153,12.41,1.887-.481-3.171-12.479,1.463-.373,3.656,14.39-4.765,1.211-3.159-12.433Zm14.066,12.272-1.557.4-4.867-19.155,1.557-.4Zm.774-18.3c2.382-.605,4.388,1.848,5.568,6.5s.592,7.761-1.792,8.365-4.363-1.852-5.545-6.5S309.172,191.877,311.554,191.271Zm.5,1.982c-1.416.359-1.714,2.546-.833,6.012s2.187,5.245,3.6,4.887,1.714-2.546.832-6.013S313.473,192.892,312.057,193.253Z" transform="translate(-166.086 -119.324)" fill="#fff"/>
      <path id="패스_68" data-name="패스 68" d="M316.856,237.137l-21.424-4.166.38-1.957,21.426,4.164ZM305.205,231.4a54.773,54.773,0,0,1,.478-6.28l-7.715-1.5.382-1.957,7.6,1.475c.318-2.143.687-4.178,1.031-5.947l1.7.058a100.152,100.152,0,0,0-1.98,14.266Zm9.37-11.341c2.628.511,3.977,3.128,3.355,6.328-.617,3.179-2.85,5.1-5.478,4.587-2.6-.506-3.953-3.122-3.337-6.3C309.739,221.475,311.971,219.554,314.575,220.061Zm-.368,1.886c-1.671-.325-3.081.94-3.492,3.039-.4,2.081.432,3.778,2.1,4.1s3.084-.937,3.487-3.014C316.713,223.971,315.879,222.272,314.207,221.947Z" transform="translate(-165.717 -105.377)" fill="#fff"/>
      <path id="패스_69" data-name="패스 69" d="M296.026,236.956l-6.047,11-1.428-.785,7.007-12.749,5.48,3.013-.961,1.747Zm3.834,18.987-1.471-.809,1.545-2.815-6.566-3.609.961-1.747,14.348,7.887-.961,1.746-6.31-3.466Zm.966-15.044c1.489-2.707,3.915-3.788,6.068-2.6,2.132,1.171,2.522,3.8,1.033,6.506s-3.928,3.81-6.059,2.639C299.714,246.256,299.339,243.607,300.826,240.9Zm1.364.75c-.949,1.728-.753,3.39.59,4.129,1.323.727,2.832,0,3.782-1.726s.739-3.369-.583-4.094C304.637,239.217,303.139,239.921,302.19,241.648Zm3.7,9.39,6.2-11.279,1.408.773-2.614,4.756,2.347,1.288-.961,1.747-2.345-1.29-2.625,4.777Z" transform="translate(-169.301 -96.403)" fill="#fff"/>
      <path id="패스_70" data-name="패스 70" d="M271.66,263.642l-.957-1.32,11.8-8.564,3.819,5.262-1.636,1.186-2.859-3.942Zm9.762,8.979,3.931,5.419-1.635,1.186-9.565-13.184,1.637-1.185,4.66,6.423,3.568-2.587.972,1.34Zm-.561-7.656a8.967,8.967,0,0,1,7.217.662,8.853,8.853,0,0,1,1.364-7.366l1.723.675a7.481,7.481,0,0,0-.344,8.73l.4.552,3.922-2.846.944,1.3-3.922,2.846,1.644,2.266-1.617,1.171-1.644-2.265-3.9,2.83-.946-1.3,3.9-2.829-.4-.552c-1.7-2.345-4.982-3.093-8.2-2.02Z" transform="translate(-178.598 -86.332)" fill="#fff"/>
      <path id="패스_71" data-name="패스 71" d="M267.889,264.462l-11.928,3.91-.509-1.55,13.826-4.531,2.151,6.566-1.9.62Zm-9.987,17.02-.516-1.573,3.051-1-2.415-7.373,1.9-.622,5,15.257-1.9.621-2.068-6.312Zm11.581-9.735a5.385,5.385,0,1,1-3.737,6.882A5.355,5.355,0,0,1,269.482,271.747Zm.537,1.643a3.65,3.65,0,1,0,4.7,2.3A3.578,3.578,0,0,0,270.019,273.39Z" transform="translate(-186.542 -81.887)" fill="#fff"/>
      <path id="패스_72" data-name="패스 72" d="M238.951,287.884l-.172-21.865,1.994-.017.172,21.867Zm17.513-15.536a98.217,98.217,0,0,0-14.2.867l-.183-1.481a80.2,80.2,0,0,1,14.124-1.062Zm-12.7,8.76c-.024-3.04,2.392-5.151,5.8-5.179,3.381-.026,5.852,2.046,5.877,5.087.024,3.063-2.414,5.151-5.8,5.177C246.236,286.222,243.787,284.173,243.763,281.109Zm9.729-.078c-.017-2.018-1.681-3.416-3.919-3.4-2.262.02-3.88,1.443-3.865,3.461.017,2.044,1.658,3.417,3.919,3.4C251.866,284.474,253.509,283.075,253.492,281.031Z" transform="translate(-195.226 -79.955)" fill="#fff"/>
      <path id="패스_73" data-name="패스 73" d="M210.8,274.562l15.94,7.388-.656,1.414-7.131-3.306-.92,1.988-1.811-.84.922-1.988-7-3.244Zm2.575-8.275.666-1.434,17.9,8.3-.665,1.436Zm5.718,11.156c-4.084-1.895-5.94-3.962-5.072-5.839s3.65-1.8,7.734.1,5.919,3.951,5.049,5.826S223.176,279.335,219.091,277.443Zm.595-1.282c2.868,1.331,4.737,1.527,5.22.488.47-1.014-.887-2.315-3.758-3.646s-4.736-1.524-5.206-.509C215.459,273.533,216.814,274.831,219.685,276.161ZM218.25,261.5c.931-2.009,3.893-1.922,8.2.073s6.287,4.2,5.356,6.21c-.911,1.965-3.884,1.9-8.191-.094S217.339,263.46,218.25,261.5Zm1.854.859c-.513,1.1.978,2.52,4.135,3.982s5.2,1.687,5.712.582c.522-1.125-.969-2.54-4.126-4S220.627,261.229,220.1,262.354Z" transform="translate(-210.142 -83.066)" fill="#fff"/>
    </g>
  </g>
</svg>
