<svg xmlns="http://www.w3.org/2000/svg" width="153.88" height="210" viewBox="0 0 153.88 210">
  <g id="circle_txt" transform="translate(-210.142 -143.672)" opacity="0.88">
    <g id="그룹_25" data-name="그룹 25" transform="translate(210.142 143.672)">
      <path id="패스_62" data-name="패스 62" d="M221.332,156.36a12.112,12.112,0,0,0,9.811,7.6l-.616,2.145a13.216,13.216,0,0,1-8.581-5.016,13.538,13.538,0,0,1-3.027,9.865l-1.911-1.227c2.754-2.862,3.886-8.273,2.263-12.6l-1.534-4.093,2.058-.772Zm8.3-10.041,8.574,22.852-2.084.782L227.544,147.1Z" transform="translate(-205.357 -141.828)" fill="#fff"/>
      <path id="패스_63" data-name="패스 63" d="M246.4,157.419l-11.362.551-.546-11.307,11.358-.55Zm-2.63-9.41-7.023.338.373,7.729,7.023-.339Zm11.083,17.317.087,1.79-16.375.794-.372-7.673,2.223-.109.285,5.883Zm-.937-4.194-2.224.107-.845-17.46,2.224-.107Z" transform="translate(-197.624 -143.672)" fill="#fff"/>
      <path id="패스_64" data-name="패스 64" d="M252.377,159.669a109.631,109.631,0,0,0,15.539,3.246l-.239,1.651a89.6,89.6,0,0,1-15.519-3.017Zm16.252-5.693c-.87,3.28-4.091,4.841-7.766,3.869-3.646-.965-5.7-3.925-4.831-7.2.876-3.309,4.118-4.836,7.764-3.869C267.471,147.744,269.5,150.669,268.628,153.976Zm-10.5-2.779c-.577,2.177.8,4.171,3.219,4.81,2.442.648,4.6-.409,5.179-2.586.585-2.206-.779-4.167-3.219-4.814C260.9,147.968,258.714,148.991,258.131,151.2Zm17.672-3.1-6.249,23.59-2.152-.57,6.249-23.59Z" transform="translate(-188.712 -141.712)" fill="#fff"/>
      <path id="패스_65" data-name="패스 65" d="M289.721,183.594c-1.755,2.07-5.078,1.247-8.951-2.036s-5.231-6.429-3.475-8.5c1.773-2.09,5.1-1.267,8.969,2.017S291.5,181.5,289.721,183.594Zm-1.7-1.439c1.054-1.244-.048-3.388-2.866-5.776-2.837-2.406-5.133-3.141-6.185-1.9-1.037,1.22.066,3.365,2.9,5.769C284.692,182.641,286.988,183.376,288.024,182.156Zm-5.688-12.439c-2.34-1.984-2.923-4.615-1.272-6.56,1.617-1.905,4.323-1.783,6.663.2s2.885,4.617,1.269,6.524C287.346,171.827,284.677,171.7,282.337,169.717Zm1.072-1.264c1.449,1.23,3.092,1.3,4.076.146.965-1.139.621-2.749-.828-3.976-1.471-1.249-3.095-1.306-4.06-.168C281.614,165.615,281.938,167.207,283.409,168.452Zm9.843-2.084-9.443-8,1.142-1.347,3.894,3.3,1.754-2.07,1.676,1.422-1.754,2.07,3.852,3.266Zm-4.032,9.5-1.615-1.368,9.095-10.729,1.615,1.371-3.986,4.7,2.362,2,4.283-5.055,1.637,1.388-9.972,11.764L291,178.557l4.512-5.323-2.36-2Z" transform="translate(-176.486 -134.373)" fill="#fff"/>
      <path id="패스_66" data-name="패스 66" d="M290.965,180.174l8.964,14.277-6.437,4.043-1.184-1.887,4.921-3.088-7.781-12.391Zm13.949,14.353-1.542.967L291.65,176.826l1.541-.967,5.284,8.414,2.459-1.544-3.724-5.932,7.7-4.837,1.169,1.863-2.345,1.473,6.295,10.023,2.343-1.471,1.169,1.861-7.7,4.836-3.724-5.932-2.459,1.546Zm-5.041-16.806,6.295,10.024,2.391-1.5-6.295-10.024Z" transform="translate(-170.991 -129.097)" fill="#fff"/>
      <path id="패스_67" data-name="패스 67" d="M296.943,198.1l3.7,14.58-1.685.428-4.239-16.686,5.657-1.439,3.517,13.846,2.106-.536-3.538-13.922,1.632-.416,4.079,16.055-5.316,1.351-3.524-13.871Zm15.693,13.691-1.738.441-5.43-21.371,1.738-.443Zm.864-20.421c2.657-.675,4.9,2.062,6.212,7.247s.66,8.659-2,9.332-4.868-2.067-6.186-7.252S310.843,192.045,313.5,191.37Zm.562,2.211c-1.58.4-1.912,2.84-.93,6.707s2.44,5.852,4.02,5.452,1.912-2.84.928-6.709S315.642,193.179,314.062,193.581Z" transform="translate(-167.313 -119.43)" fill="#fff"/>
      <path id="패스_68" data-name="패스 68" d="M319.334,239.444l-23.9-4.647.424-2.184,23.9,4.646Zm-13-6.4a61.1,61.1,0,0,1,.533-7.006l-8.608-1.673.426-2.184,8.474,1.646c.355-2.391.767-4.661,1.15-6.634l1.9.064A111.736,111.736,0,0,0,308,233.174Zm10.454-12.653c2.932.57,4.437,3.49,3.743,7.06-.689,3.546-3.18,5.688-6.112,5.117-2.9-.565-4.41-3.483-3.723-7.03C311.393,221.97,313.884,219.827,316.789,220.392Zm-.411,2.1c-1.865-.363-3.438,1.049-3.9,3.39-.45,2.321.482,4.215,2.347,4.578s3.441-1.045,3.891-3.363C319.175,224.755,318.243,222.859,316.379,222.5Z" transform="translate(-166.82 -105.517)" fill="#fff"/>
      <path id="패스_69" data-name="패스 69" d="M296.891,237.249l-6.746,12.273-1.593-.876,7.817-14.224,6.113,3.361-1.072,1.95Zm4.278,21.182-1.641-.9,1.724-3.141-7.325-4.026,1.072-1.95,16.007,8.8-1.072,1.948-7.04-3.867Zm1.077-16.784c1.661-3.02,4.368-4.227,6.77-2.9,2.379,1.306,2.813,4.238,1.152,7.259s-4.383,4.25-6.76,2.944C301.005,247.625,300.586,244.669,302.246,241.647Zm1.522.836c-1.059,1.928-.84,3.782.658,4.607,1.476.811,3.159,0,4.22-1.926s.825-3.758-.65-4.568C306.5,239.772,304.826,240.557,303.768,242.483Zm4.125,10.476,6.914-12.583,1.571.862-2.917,5.306,2.618,1.437-1.072,1.95-2.616-1.439-2.929,5.33Z" transform="translate(-171.614 -96.771)" fill="#fff"/>
      <path id="패스_70" data-name="패스 70" d="M271.77,264.785l-1.067-1.473,13.167-9.555,4.261,5.871-1.826,1.323-3.19-4.4ZM282.662,274.8l4.386,6.046-1.824,1.323-10.671-14.709,1.826-1.322,5.2,7.165,3.981-2.886,1.084,1.495Zm-.626-8.541a10,10,0,0,1,8.051.738,9.876,9.876,0,0,1,1.522-8.217l1.923.753c-2.206,3.11-2.377,6.991-.383,9.739l.446.616,4.376-3.175,1.054,1.451-4.376,3.175,1.834,2.528-1.8,1.307-1.834-2.526-4.351,3.158-1.055-1.452,4.354-3.156-.445-.616c-1.9-2.616-5.559-3.451-9.152-2.253Z" transform="translate(-179.627 -88.946)" fill="#fff"/>
      <path id="패스_71" data-name="패스 71" d="M269.327,264.713l-13.308,4.362-.568-1.729,15.425-5.055,2.4,7.325-2.116.692ZM258.184,283.7l-.575-1.754,3.4-1.115-2.694-8.226,2.114-.694,5.579,17.022-2.116.692-2.308-7.042Zm12.921-10.861c3.455-1.132,6.8.37,7.9,3.724s-.713,6.544-4.169,7.676-6.8-.368-7.9-3.723S267.649,273.974,271.105,272.841Zm.6,1.832a4.072,4.072,0,1,0,5.24,2.567A3.992,3.992,0,0,0,271.7,274.673Z" transform="translate(-187.046 -83)" fill="#fff"/>
      <path id="패스_72" data-name="패스 72" d="M238.971,290.415l-.192-24.394L241,266l.192,24.4Zm19.538-17.332a109.58,109.58,0,0,0-15.839.967l-.2-1.653a89.471,89.471,0,0,1,15.758-1.184Zm-14.17,9.773c-.027-3.392,2.669-5.747,6.468-5.777,3.772-.029,6.529,2.282,6.556,5.676.027,3.417-2.693,5.747-6.466,5.776C247.1,288.56,244.366,286.275,244.339,282.856Zm10.854-.087c-.019-2.252-1.875-3.811-4.373-3.792-2.523.022-4.328,1.61-4.311,3.862.019,2.28,1.849,3.813,4.372,3.792C253.38,286.611,255.212,285.05,255.194,282.769Z" transform="translate(-195.397 -80.415)" fill="#fff"/>
      <path id="패스_73" data-name="패스 73" d="M210.873,276.243l17.784,8.243-.731,1.578-7.956-3.689-1.027,2.218-2.021-.937,1.028-2.218-7.809-3.619Zm2.873-9.232.743-1.6,19.974,9.259-.742,1.6Zm6.38,12.446c-4.556-2.114-6.628-4.42-5.659-6.514s4.072-2,8.628.109,6.6,4.408,5.633,6.5S224.683,281.568,220.126,279.457Zm.663-1.43c3.2,1.485,5.285,1.7,5.823.545.524-1.132-.989-2.582-4.193-4.067s-5.284-1.7-5.808-.568C216.074,275.094,217.586,276.543,220.789,278.026Zm-1.6-16.362c1.038-2.241,4.344-2.145,9.147.081s7.014,4.688,5.976,6.928c-1.016,2.192-4.334,2.123-9.139-.105S218.171,263.857,219.187,261.665Zm2.068.959c-.572,1.232,1.091,2.812,4.613,4.442s5.8,1.882,6.373.65c.582-1.256-1.081-2.834-4.6-4.466S221.839,261.368,221.256,262.623Z" transform="translate(-210.142 -84.577)" fill="#fff"/>
    </g>
  </g>
</svg>
