<svg width="79" height="35" viewBox="0 0 79 35" fill="none" xmlns="http://www.w3.org/2000/svg">
<path d="M17.3356 35C26.9018 35 34.6712 27.1738 34.6712 17.5039C34.6712 7.83341 26.9018 0 17.3356 0C7.75459 0 0 7.83341 0 17.5039C0 27.1738 7.75459 35 17.3356 35Z" fill="#A50034"/>
<path d="M16.6382 9.82227V25.1778H21.4702V23.7971H18.0309V9.82227H16.6382Z" fill="white"/>
<path d="M11.7999 14.0119C12.9494 14.0119 13.8761 13.0676 13.8761 11.9144C13.8761 10.7602 12.9494 9.81226 11.7999 9.81226C10.6503 9.81226 9.72363 10.7602 9.72363 11.9144C9.72363 13.0685 10.6503 14.0119 11.7999 14.0119Z" fill="white"/>
<path d="M18.0303 2.85657C17.8491 2.84751 17.5047 2.83618 17.3401 2.83618C9.33834 2.83618 2.82617 9.41757 2.82617 17.4966C2.82617 21.4208 4.33547 25.0989 7.06924 27.8649C9.81423 30.6245 13.4567 32.1493 17.3401 32.1493C21.2086 32.1493 24.8502 30.6245 27.5903 27.8649C30.3308 25.0989 31.8472 21.4208 31.8472 17.4966V16.8445H31.2601H21.4836V18.194H30.4649C30.4649 18.2234 30.4649 18.3666 30.4586 18.4038C30.002 25.3105 24.2922 30.7808 17.3401 30.7808C13.8209 30.7808 10.5211 29.3983 8.03761 26.8874C5.54604 24.387 4.1731 21.056 4.1731 17.4961C4.1731 13.9567 5.54604 10.6084 8.03761 8.1003C10.5211 5.59444 13.8209 4.21191 17.3401 4.21191C17.4917 4.21191 17.8604 4.21191 18.0303 4.22097V2.85657Z" fill="white"/>
<path d="M47.7087 5.89175H42.4995V28.6747H58.4994V24.2398H47.7087V5.89175ZM69.9588 19.9925H74.2014V23.9761C73.4192 24.277 71.8937 24.5769 70.4423 24.5769C65.7539 24.5769 64.1921 22.1712 64.1921 17.285C64.1921 12.6254 65.6794 9.87802 70.3679 9.87802C72.9734 9.87802 74.4616 10.7055 75.6878 12.2846L78.9267 9.27625C76.954 6.42147 73.4927 5.55688 70.2566 5.55688C62.9618 5.55688 59.13 9.57895 59.13 17.247C59.13 24.8778 62.5904 29.0127 70.2198 29.0127C73.717 29.0127 77.1406 28.111 79.0002 26.7955V15.7434H69.9588V19.9925Z" fill="white"/>
</svg>
