<svg xmlns="http://www.w3.org/2000/svg" xmlns:xlink="http://www.w3.org/1999/xlink" width="175.948" height="39.174" viewBox="0 0 175.948 39.174">
  <defs>
    <radialGradient id="radial-gradient" cx="0.75" cy="0.3" r="1.033" gradientTransform="translate(0.006) scale(0.987 1)" gradientUnits="objectBoundingBox">
      <stop offset="0" stop-color="#008ed2"/>
      <stop offset="0.66" stop-color="#00398f"/>
      <stop offset="1" stop-color="#0072c0"/>
    </radialGradient>
    <radialGradient id="radial-gradient-2" cx="0.77" cy="0.58" r="0.951" gradientTransform="translate(-0.01) scale(1.021 1)" gradientUnits="objectBoundingBox">
      <stop offset="0" stop-color="#b9e6fb"/>
      <stop offset="0.63" stop-color="#00b8eb"/>
      <stop offset="1" stop-color="#88d5f8"/>
    </radialGradient>
  </defs>
  <g id="logo_w" transform="translate(-198.014 -352.595)">
    <g id="그룹_3" data-name="그룹 3" transform="translate(198.014 352.595)">
      <path id="패스_1" data-name="패스 1" d="M231.423,358.411a19.585,19.585,0,1,1-23.015-3.421l2.707-.2S221.449,349.429,231.423,358.411Z" transform="translate(-198.014 -352.701)" fill-rule="evenodd" fill="url(#radial-gradient)"/>
      <path id="패스_2" data-name="패스 2" d="M204.51,375.765a13.767,13.767,0,0,0,12.017,2.145,13.286,13.286,0,0,0,8.143-7.091c1.557-3.62.723-8.294-3.45-9.634-2.558-.822-5.666.358-7.676,1.959-1.659,1.322-3.423,3.313-5.836,2.447-1.886-.677-2.58-3.044-.965-5.87,1.6-2.8,5.03-5.524,10.491-5.9a20.183,20.183,0,0,1,14.222,4.487,19.6,19.6,0,0,0-23.018-3.421,15.745,15.745,0,0,0-6.69,7.039c-2.138,4.574-1.668,10.436,2.761,13.842Zm-3.96-13.165c-2.646,6.213-.7,13.856,5.426,17.326,5.59,3.167,13.35,2.778,18.214-1.937,1.566-1.519,2.761-3.813,4.686-4.8a3,3,0,0,1,2.96.013c1.539,1.029,1.589,2.915,1.029,4.677a12.5,12.5,0,0,1-3.072,4.78,18.1,18.1,0,0,1-8.342,4.964,19.667,19.667,0,0,1-16.648-3,16.791,16.791,0,0,1-5.534-19.26A19.474,19.474,0,0,1,200.549,362.6Z" transform="translate(-198.049 -352.595)" fill-rule="evenodd" fill="url(#radial-gradient-2)"/>
    </g>
    <path id="패스_3" data-name="패스 3" d="M374.792,362.108v-1.375l-9.705.007q0,3.636.006,7.271a1.666,1.666,0,0,0,.553,1.326,2.23,2.23,0,0,0,1.52.481l8.4-.006v-1.4l-7.521.006,0-6.308,6.756,0Zm-82.122,11a1.235,1.235,0,0,0-1.27-1.189l-4.112,0,0-3.282,7.79-.006v-1.375l-3.332,0a3.734,3.734,0,0,0,.45-.708,5.186,5.186,0,0,0,.271-.787,7.883,7.883,0,0,0,.2-.815,4.848,4.848,0,0,0,.067-.8q0-1.351,0-2.7a1.237,1.237,0,0,0-1.271-1.188l-12.489.01v1.376l10.786-.009,0,2.594a12.29,12.29,0,0,1-.1,1.573,5.921,5.921,0,0,1-.37,1.455l-12.587.009v1.375l7.634,0,0,3.282-5.45,0V373.3l10.786-.008,0,4.992,2.995,0q0-2.589,0-5.177Zm76.448-.874h-1.681q0,2.063,0,4.127a1.671,1.671,0,0,0,.587,1.365,2.333,2.333,0,0,0,1.531.48l11.506-.007v-1.375l-10.673.007,0-3.409a1.235,1.235,0,0,0-1.269-1.189ZM379.353,360.1a1.234,1.234,0,0,1,1.27,1.188q0,1.361,0,2.722l3.311,0v1.375l-3.311,0,.007,8-2.95,0q0-6.643-.01-13.285l1.681,0Zm-24.67.019H353.1q.008,9.051.014,18.1l2.77,0L355.88,366.5l2.026,0,.008,11.713,2.771,0q-.006-8.491-.013-16.983a1.16,1.16,0,0,0-1.192-1.116l-1.578,0q0,2.5,0,5.011l-2.026,0q0-1.947,0-3.894a1.159,1.159,0,0,0-1.193-1.115Zm-19.281.014-1.693,0q0,4.893.007,9.786l2.973,0,0-2.732,3.31,0v-1.375l-3.31,0,0-1.589,3.31,0v-1.375l-3.31,0,0-1.516a1.244,1.244,0,0,0-1.28-1.2Zm-24.434.019H309.39q.007,9.051.014,18.1l2.77,0-.008-10.671,1.688,0,.008,10.671,2.769,0q-.006-8.491-.012-16.983a1.158,1.158,0,0,0-1.192-1.115h-1.578q0,3.026,0,6.053l-1.688,0q0-2.469,0-4.936a1.159,1.159,0,0,0-1.193-1.115ZM260.1,372.668l-1.681,0q0,1.887,0,3.774a1.678,1.678,0,0,0,.575,1.365,2.281,2.281,0,0,0,1.52.481l11.258-.009V376.9l-10.4.008,0-3.056a1.235,1.235,0,0,0-1.27-1.189Zm9.988-12.486a1.235,1.235,0,0,1,1.271,1.188q0,1.529,0,3.056l3.309,0v1.4l-3.309,0,.005,7.665-2.95,0q0-6.653-.01-13.306Zm72.794,1.163,0,1.651,3.242,0a14.492,14.492,0,0,1-.571,4.343,13.515,13.515,0,0,1-.932,2.379,10.164,10.164,0,0,1-1.182,1.838,11.421,11.421,0,0,1-1.271,1.328l1.714,1.669a5.656,5.656,0,0,0,1.147-1,13.046,13.046,0,0,0,1.057-1.357,11.7,11.7,0,0,0,.865-1.494,13.246,13.246,0,0,0,.6-1.415,14.28,14.28,0,0,0,1.713,2.12q.991,1.022,2.3,2.2l1.057-1.4c-.5-.444-.947-.861-1.352-1.247s-.779-.785-1.126-1.187a11.944,11.944,0,0,1-.969-1.277,14.129,14.129,0,0,1-.879-1.571,12.281,12.281,0,0,0,.314-1.789q.111-1.021.179-2.1l2.995,0,0-1.69-8.894.006Zm-11.577,9.187a6.338,6.338,0,0,0-2.048.315,5.363,5.363,0,0,0-1.666.926,4.377,4.377,0,0,0-1.17,1.367,3.547,3.547,0,0,0,0,3.2,4.381,4.381,0,0,0,1.172,1.344,5.247,5.247,0,0,0,1.668.932,6.991,6.991,0,0,0,4.087,0,5.14,5.14,0,0,0,1.677-.934,4.528,4.528,0,0,0,1.158-1.347,3.452,3.452,0,0,0,0-3.2,4.554,4.554,0,0,0-1.161-1.364,5.214,5.214,0,0,0-1.678-.923,6.357,6.357,0,0,0-2.039-.313Zm0,1.375a1.8,1.8,0,0,1,.969.264,2.654,2.654,0,0,1,.744.677,3.355,3.355,0,0,1,.462.914,3.015,3.015,0,0,1-.482,2.858,2.369,2.369,0,0,1-.733.64,1.927,1.927,0,0,1-.956.247,1.986,1.986,0,0,1-.969-.234,2.407,2.407,0,0,1-.743-.629,3,3,0,0,1-.462-.894,3.16,3.16,0,0,1-.171-1.012,3.306,3.306,0,0,1,.158-.993,3.1,3.1,0,0,1,.45-.913,2.5,2.5,0,0,1,.743-.669,1.892,1.892,0,0,1,.989-.256Zm-10.969-6.871a3.928,3.928,0,0,1,.392-1.748,4.35,4.35,0,0,1,1.2-1.455,5.862,5.862,0,0,1,1.756-1,6.781,6.781,0,0,1,4.2,0,5.75,5.75,0,0,1,1.767,1,4.36,4.36,0,0,1,1.183,1.454,4.066,4.066,0,0,1,0,3.5,4.386,4.386,0,0,1-1.182,1.455,5.714,5.714,0,0,1-1.766,1,6.764,6.764,0,0,1-4.2,0,5.87,5.87,0,0,1-1.757-1,4.354,4.354,0,0,1-1.205-1.453,3.923,3.923,0,0,1-.4-1.75Zm7.948-.025a3.69,3.69,0,0,0-.181-1.13,3.837,3.837,0,0,0-.5-1.012,2.452,2.452,0,0,0-.789-.727,2.029,2.029,0,0,0-1.035-.274,2.062,2.062,0,0,0-1.07.276,2.555,2.555,0,0,0-.775.729,3.107,3.107,0,0,0-.472,1,4.236,4.236,0,0,0-.158,1.139,4.347,4.347,0,0,0,.158,1.179,3.154,3.154,0,0,0,.474,1,2.547,2.547,0,0,0,.776.727,2.061,2.061,0,0,0,1.07.274,2.03,2.03,0,0,0,1.035-.276,2.46,2.46,0,0,0,.787-.729,3.809,3.809,0,0,0,.5-1.012,3.732,3.732,0,0,0,.179-1.17Zm-26.921-3.185,4.1,0v-1.277l-4.1,0v1.277Zm2.051,3.634a1.467,1.467,0,0,1,.846.255,2.279,2.279,0,0,1,.62.649,3.435,3.435,0,0,1,.394.855,3.174,3.174,0,0,1,.147.913,3.442,3.442,0,0,1-.134.933,3.124,3.124,0,0,1-.4.876,2.185,2.185,0,0,1-.619.638,1.5,1.5,0,0,1-.845.247,1.574,1.574,0,0,1-.889-.245,2.254,2.254,0,0,1-.644-.638,2.919,2.919,0,0,1-.371-.865,3.7,3.7,0,0,1-.124-.943,3.386,3.386,0,0,1,.134-.934,2.781,2.781,0,0,1,.4-.855,2.437,2.437,0,0,1,.642-.639,1.5,1.5,0,0,1,.843-.247Zm-4.685-2.3V364.5l2.927,0a6.77,6.77,0,0,0-2.183,1.672,3.093,3.093,0,0,0-.719,1.966,3.533,3.533,0,0,0,.338,1.533,4.133,4.133,0,0,0,1.036,1.3,4.6,4.6,0,0,0,1.476.883,5.305,5.305,0,0,0,1.813.295,5.1,5.1,0,0,0,1.8-.3,4.436,4.436,0,0,0,1.441-.884,4.971,4.971,0,0,0,1.047-1.287,3.171,3.171,0,0,0,.37-1.544,3.057,3.057,0,0,0-.733-1.964,6.92,6.92,0,0,0-2.174-1.669l2.9,0v-1.336l-9.344.007Zm-40.588-1.893,5.11,0v-1.277l-5.111,0,0,1.278Zm-3.107.926v1.356l2.905,0a6.136,6.136,0,0,0-1.643,1.632,3.171,3.171,0,0,0-.539,1.73,3.476,3.476,0,0,0,.35,1.542,3.811,3.811,0,0,0,1.092,1.306,5.536,5.536,0,0,0,1.611.894,5.663,5.663,0,0,0,1.88.3,5.805,5.805,0,0,0,1.879-.3,5.127,5.127,0,0,0,1.61-.905,4.048,4.048,0,0,0,1.08-1.308,3.4,3.4,0,0,0,.359-1.543,3.11,3.11,0,0,0-.564-1.748,6.331,6.331,0,0,0-1.645-1.611l2.95,0v-1.356l-11.326.009Zm5.653,1.941a1.6,1.6,0,0,1,.889.255,2.637,2.637,0,0,1,.687.648,3.383,3.383,0,0,1,.428.884,3.177,3.177,0,0,1,.158.983,3.4,3.4,0,0,1-.146.982,3.044,3.044,0,0,1-.438.9,2.281,2.281,0,0,1-.675.649,1.732,1.732,0,0,1-1.812,0,2.516,2.516,0,0,1-.688-.668,3.443,3.443,0,0,1-.417-.9,3.232,3.232,0,0,1,0-1.927,3.133,3.133,0,0,1,.416-.884,2.516,2.516,0,0,1,.686-.669A1.639,1.639,0,0,1,260.689,364.139Z" transform="translate(-9.975 -1.294)" fill="#fff"/>
    <g id="그룹_4" data-name="그룹 4" transform="translate(246.962 380.856)">
      <path id="패스_4" data-name="패스 4" d="M257.34,386.955H258.4v2.229l1.91-2.229h1.3L259.44,389.4l2.266,2.741h-1.387l-1.9-2.407H258.4v2.407H257.34Z" transform="translate(-257.34 -386.867)" fill="#fff"/>
      <path id="패스_5" data-name="패스 5" d="M266.982,386.848a2.683,2.683,0,1,1-2.592,2.666A2.447,2.447,0,0,1,266.982,386.848Zm0,4.545c1.083,0,1.485-.943,1.485-1.879,0-.913-.431-1.849-1.485-1.849s-1.486.936-1.486,1.849C265.5,390.45,265.9,391.393,266.982,391.393Z" transform="translate(-258.573 -386.848)" fill="#fff"/>
      <path id="패스_6" data-name="패스 6" d="M272.974,386.955h1.144c1.137,0,2.493-.037,2.493,1.4a1.194,1.194,0,0,1-1.092,1.2v.016c.288.021.455.3.561.534l.849,2.028h-1.183l-.636-1.62c-.152-.385-.288-.534-.735-.534h-.341v2.153h-1.061Zm1.061,2.214h.348c.523,0,1.121-.074,1.121-.72,0-.624-.591-.677-1.121-.677h-.348Z" transform="translate(-260.075 -386.867)" fill="#fff"/>
      <path id="패스_7" data-name="패스 7" d="M279.932,386.955h3.123v.817h-2.062v1.278h1.887v.817h-1.887v1.456h2.077v.817h-3.138Z" transform="translate(-261.292 -386.867)" fill="#fff"/>
      <path id="패스_8" data-name="패스 8" d="M287.676,386.955h1.2l2.077,5.185h-1.175l-.455-1.188h-2.145l-.462,1.188h-1.1Zm.583,1.04h-.016l-.766,2.139h1.547Z" transform="translate(-262.286 -386.867)" fill="#fff"/>
      <path id="패스_9" data-name="패스 9" d="M300.214,386.848a2.683,2.683,0,1,1-2.593,2.666A2.446,2.446,0,0,1,300.214,386.848Zm0,4.545c1.082,0,1.485-.943,1.485-1.879,0-.913-.431-1.849-1.485-1.849s-1.486.936-1.486,1.849C298.728,390.45,299.129,391.393,300.214,391.393Z" transform="translate(-264.387 -386.848)" fill="#fff"/>
      <path id="패스_10" data-name="패스 10" d="M310.109,392.047a5.446,5.446,0,0,1-1.2.164c-1.713,0-2.9-.84-2.9-2.593a2.6,2.6,0,0,1,2.9-2.77,3.585,3.585,0,0,1,1.2.215l-.076.877a2.216,2.216,0,0,0-1.146-.275,1.746,1.746,0,0,0-1.772,1.879,1.724,1.724,0,0,0,1.8,1.85,3.008,3.008,0,0,0,1.159-.215Z" transform="translate(-265.853 -386.848)" fill="#fff"/>
      <path id="패스_11" data-name="패스 11" d="M313.164,386.955h3.121v.817h-2.061v1.278h1.887v.817h-1.887v1.456H316.3v.817h-3.138Z" transform="translate(-267.106 -386.867)" fill="#fff"/>
      <path id="패스_12" data-name="패스 12" d="M320.907,386.955h1.2l2.077,5.185h-1.174l-.455-1.188h-2.145l-.462,1.188h-1.1Zm.583,1.04h-.015l-.766,2.139h1.545Z" transform="translate(-268.1 -386.867)" fill="#fff"/>
      <path id="패스_13" data-name="패스 13" d="M327.31,386.955h1.3l2.016,3.878h.015v-3.878h1.015v5.185h-1.3l-2.024-3.877h-.015v3.877H327.31Z" transform="translate(-269.58 -386.867)" fill="#fff"/>
      <path id="패스_14" data-name="패스 14" d="M339.033,386.955h2.941v.817h-1.879v1.278h1.789v.817h-1.789v2.273h-1.062Z" transform="translate(-271.631 -386.867)" fill="#fff"/>
      <path id="패스_15" data-name="패스 15" d="M347.142,386.848a2.683,2.683,0,1,1-2.591,2.666A2.448,2.448,0,0,1,347.142,386.848Zm0,4.545c1.085,0,1.486-.943,1.486-1.879,0-.913-.431-1.849-1.486-1.849s-1.485.936-1.485,1.849C345.657,390.45,346.059,391.393,347.142,391.393Z" transform="translate(-272.596 -386.848)" fill="#fff"/>
      <path id="패스_16" data-name="패스 16" d="M353.2,386.955h1.062v2.993c0,.884.287,1.464,1.1,1.464s1.1-.579,1.1-1.464v-2.993h1.061v3.313c0,1.389-.8,1.961-2.16,1.961s-2.161-.573-2.161-1.961Z" transform="translate(-274.109 -386.867)" fill="#fff"/>
      <path id="패스_17" data-name="패스 17" d="M361.047,386.955h1.3l2.016,3.878h.015v-3.878H365.4v5.185h-1.3l-2.024-3.877h-.015v3.877h-1.015Z" transform="translate(-275.482 -386.867)" fill="#fff"/>
      <path id="패스_18" data-name="패스 18" d="M368.978,386.955h1.447c1.621,0,3.054.535,3.054,2.593s-1.433,2.592-3.054,2.592h-1.447Zm1.061,4.368h.591a1.776,1.776,0,0,0,0-3.551h-.591Z" transform="translate(-276.869 -386.867)" fill="#fff"/>
      <path id="패스_19" data-name="패스 19" d="M378.245,386.955h1.2l2.077,5.185h-1.174l-.455-1.188h-2.145l-.462,1.188h-1.1Zm.583,1.04h-.015l-.766,2.139h1.545Z" transform="translate(-278.13 -386.867)" fill="#fff"/>
      <path id="패스_20" data-name="패스 20" d="M384.823,387.772h-1.516v-.817H387.4v.817h-1.516v4.368h-1.061Z" transform="translate(-279.376 -386.867)" fill="#fff"/>
      <path id="패스_21" data-name="패스 21" d="M390.211,386.955h1.062v5.185h-1.062Z" transform="translate(-280.584 -386.867)" fill="#fff"/>
      <path id="패스_22" data-name="패스 22" d="M396.392,386.848a2.683,2.683,0,1,1-2.591,2.666A2.448,2.448,0,0,1,396.392,386.848Zm0,4.545c1.085,0,1.486-.943,1.486-1.879,0-.913-.432-1.849-1.486-1.849s-1.485.936-1.485,1.849C394.907,390.45,395.309,391.393,396.392,391.393Z" transform="translate(-281.212 -386.848)" fill="#fff"/>
      <path id="패스_23" data-name="패스 23" d="M402.43,386.955h1.3l2.016,3.878h.015v-3.878h1.015v5.185h-1.3l-2.024-3.877h-.015v3.877H402.43Z" transform="translate(-282.721 -386.867)" fill="#fff"/>
    </g>
  </g>
</svg>
