<svg xmlns="http://www.w3.org/2000/svg" width="29.941" height="27.771" viewBox="0 0 29.941 27.771">
  <g id="sns_04" transform="translate(-623.26 -266.06)">
    <path id="패스_54" data-name="패스 54" d="M650.31,314.51a1.031,1.031,0,1,0,1.032,1.03A1.03,1.03,0,0,0,650.31,314.51Z" transform="translate(-20.517 -38.203)" fill="#f4f4f4"/>
    <path id="패스_55" data-name="패스 55" d="M698.16,314a1.11,1.11,0,1,0,1.11,1.11A1.11,1.11,0,0,0,698.16,314Z" transform="translate(-58.184 -37.801)" fill="#f4f4f4"/>
    <path id="패스_56" data-name="패스 56" d="M649.2,266.06h-21.93a4.006,4.006,0,0,0-4.006,4.006v13.015a4.006,4.006,0,0,0,4.006,4.006h7.745l2.635,6.207s.182.537.62.537h0c.44,0,.62-.537.62-.537l2.635-6.207H649.2a4.006,4.006,0,0,0,4.006-4.006V270.066A4.006,4.006,0,0,0,649.2,266.06Zm-16.531,11.5a2.479,2.479,0,0,1-2.472,2.447,2.056,2.056,0,0,1-1.489-.63v.429h-1.791v-7.388c-.006,0-.008,0,0,0v0c.112.017,1.791,0,1.791,0v2.826c.421-.719,1.639-.706,1.639-.706C633,274.784,632.665,277.563,632.665,277.563Zm3.156-2.8v5.059h-1.753v-5.008c0-.681-.846-.871-.846-.871v-1.766A2.426,2.426,0,0,1,635.821,274.763Zm4.156,5.251a2.714,2.714,0,1,1,2.94-2.705A2.83,2.83,0,0,1,639.977,280.015Zm9.606,0a2.5,2.5,0,0,1-2.587,2.57h-.8V280.92h.48s1.1.1,1.085-1.59c0,0-.214.685-1.753.685a2.311,2.311,0,0,1-2.183-2.286v-.808a2.493,2.493,0,0,1,2.447-2.384,1.785,1.785,0,0,1,1.527.681v-.541h1.779Z" fill="#f4f4f4"/>
    <path id="패스_57" data-name="패스 57" d="M730.495,314.12a1.085,1.085,0,1,0,1.085,1.085A1.086,1.086,0,0,0,730.495,314.12Z" transform="translate(-83.7 -37.895)" fill="#f4f4f4"/>
  </g>
</svg>
