<svg xmlns="http://www.w3.org/2000/svg" width="27.59" height="27.574" viewBox="0 0 27.59 27.574">
  <g id="sns_01" transform="translate(-6.3 -9)">
    <g id="그룹_42" data-name="그룹 42" transform="translate(6.3 9)">
      <path id="SVGID_1_" d="M14.38,9.094a9.919,9.919,0,0,0-3.351.642,6.951,6.951,0,0,0-2.427,1.6A6.617,6.617,0,0,0,7.02,13.776a10.32,10.32,0,0,0-.642,3.351C6.316,18.6,6.3,19.068,6.3,22.811c.016,3.742.031,4.212.094,5.684a9.737,9.737,0,0,0,.642,3.335,6.868,6.868,0,0,0,1.6,2.443,6.617,6.617,0,0,0,2.443,1.581,10.32,10.32,0,0,0,3.351.642c1.472.063,1.942.078,5.684.078,3.742-.016,4.212-.016,5.684-.094a9.919,9.919,0,0,0,3.351-.642,6.868,6.868,0,0,0,2.443-1.6A6.617,6.617,0,0,0,33.17,31.8a10.32,10.32,0,0,0,.642-3.351c.063-1.472.078-1.942.078-5.684-.016-3.742-.016-4.212-.094-5.684a9.919,9.919,0,0,0-.642-3.351,6.868,6.868,0,0,0-1.6-2.443A6.617,6.617,0,0,0,29.114,9.7a10.32,10.32,0,0,0-3.351-.642C24.276,9.016,23.806,9,20.064,9c-3.742.016-4.212.031-5.684.094m.157,24.912a7.646,7.646,0,0,1-2.552-.47,4.605,4.605,0,0,1-2.615-2.615,7.63,7.63,0,0,1-.485-2.552c-.063-1.456-.078-1.895-.094-5.574,0-3.68,0-4.118.063-5.574a7.646,7.646,0,0,1,.47-2.552,4.605,4.605,0,0,1,2.615-2.615,8.062,8.062,0,0,1,2.552-.485c1.456-.063,1.895-.078,5.559-.094,3.68,0,4.118,0,5.574.063a7.646,7.646,0,0,1,2.552.47,4.145,4.145,0,0,1,1.581,1.033,4.268,4.268,0,0,1,1.033,1.581,8.061,8.061,0,0,1,.485,2.552c.063,1.456.078,1.895.094,5.559.016,3.68,0,4.118-.063,5.574a7.861,7.861,0,0,1-.47,2.568,4.605,4.605,0,0,1-2.615,2.615,8.062,8.062,0,0,1-2.552.485c-1.456.063-1.895.078-5.574.094-3.664.016-4.1,0-5.559-.063M25.779,15.42a1.652,1.652,0,1,0,1.644-1.66,1.657,1.657,0,0,0-1.644,1.66M13.017,22.795A7.078,7.078,0,1,0,20.079,15.7a7.07,7.07,0,0,0-7.062,7.093m2.474,0a4.6,4.6,0,1,1,4.6,4.588,4.608,4.608,0,0,1-4.6-4.588" transform="translate(-6.3 -9)" fill="#f4f4f4"/>
    </g>
  </g>
</svg>
