<svg xmlns="http://www.w3.org/2000/svg" width="32.356" height="22.65" viewBox="0 0 32.356 22.65">
  <path id="sns_03" d="M163.291,236.787a4.053,4.053,0,0,0-2.86-2.86c-2.524-.677-12.642-.677-12.642-.677s-10.119,0-12.642.677a4.056,4.056,0,0,0-2.862,2.86,45.245,45.245,0,0,0,0,15.578,4.05,4.05,0,0,0,2.862,2.86c2.524.675,12.642.675,12.642.675s10.118,0,12.642-.675a4.053,4.053,0,0,0,2.86-2.86,45.243,45.243,0,0,0,0-15.578Zm-18.738,12.642v-9.708l8.406,4.855Z" transform="translate(-131.61 -233.25)" fill="#f4f4f4"/>
</svg>
